<svg width="46" height="10" viewBox="0 0 46 10" fill="none" xmlns="http://www.w3.org/2000/svg">
<path fill-rule="evenodd" clip-rule="evenodd" d="M46 1.08333C46 0.485025 45.5167 0 44.9206 0H1.07942C0.483274 0 0 0.485025 0 1.08333V8.91667C0 9.51498 0.483273 10 1.07942 10H44.9206C45.5167 10 46 9.51498 46 8.91667V1.08333ZM8.23579 1.37999C8.63441 1.37999 8.95755 1.7043 8.95755 2.10435V2.10435C8.95755 2.50491 8.63364 2.82942 8.23453 2.82872L3.92137 2.82115C3.5553 2.82051 3.2582 3.11817 3.2582 3.48557V3.48557C3.2582 3.85252 3.55459 4.14999 3.92022 4.14999H6.90996C7.30893 4.14999 7.63235 4.47458 7.63235 4.87499V4.87499C7.63235 5.27539 7.30893 5.59999 6.90997 5.59999H4.33762C3.74147 5.59999 3.2582 6.08501 3.2582 6.68332V7.39999C3.2582 7.93999 2.81978 8.37999 2.28173 8.37999V8.37999C1.73694 8.37999 1.29531 7.93675 1.29531 7.38999V2.46332C1.29531 1.86501 1.77858 1.37999 2.37473 1.37999H8.23579ZM10.2832 2.46332C10.2832 1.86501 10.7665 1.37999 11.3626 1.37999H15.3449C16.7797 1.37999 17.9454 2.54999 17.9454 3.98999V7.29666C17.9454 7.89496 17.4622 8.37999 16.866 8.37999H12.8838C11.449 8.37999 10.2832 7.20999 10.2832 5.76999V2.46332ZM12.8938 6.40999H14.9031C15.4993 6.40999 15.9826 5.92496 15.9826 5.32666V4.64999C15.9826 3.92999 15.4047 3.34999 14.6873 3.34999H13.3255C12.7294 3.34999 12.2461 3.83501 12.2461 4.43332V5.75999C12.2461 6.11999 12.5351 6.40999 12.8938 6.40999ZM27.2934 3.70999C27.2934 4.32532 27.0552 4.88647 26.6668 5.30349C26.2455 5.75575 25.9874 6.52238 26.3766 7.0027V7.0027C26.8237 7.55451 26.4325 8.37999 25.7238 8.37999H25.399C25.0974 8.37999 24.812 8.24279 24.623 8.00689L23.2916 6.34547C23.1318 6.146 22.8905 6.02999 22.6354 6.02999V6.02999C22.1703 6.02999 21.7933 6.40837 21.7933 6.87514V7.39499C21.7933 7.93899 21.3539 8.37999 20.8119 8.37999V8.37999C20.2698 8.37999 19.8304 7.93899 19.8304 7.39499V1.58999C19.8304 1.47401 19.9241 1.37999 20.0397 1.37999V1.37999H24.9419H24.9718C26.2571 1.37999 27.2934 2.41999 27.2934 3.70999ZM21.7933 3.70499C21.7933 3.90105 21.9517 4.05999 22.147 4.05999H24.9469C24.9496 4.05999 24.9519 4.06223 24.9519 4.06499V4.06499C24.9519 4.06775 24.9541 4.06999 24.9569 4.06995C25.1538 4.0673 25.3106 3.90831 25.3106 3.70999C25.3106 3.50999 25.1511 3.34999 24.9519 3.34999H22.147C21.9517 3.34999 21.7933 3.50893 21.7933 3.70499V3.70499ZM34.4548 6.20999C34.4548 5.9228 34.2229 5.68999 33.9367 5.68999H33.299C32.8478 5.68999 32.482 5.32286 32.482 4.86999V4.86999C32.482 4.41712 32.8478 4.04999 33.299 4.04999H35.6107C36.0619 4.04999 36.4277 4.41712 36.4277 4.86999V5.68499C36.4277 5.68775 36.4255 5.68999 36.4227 5.68999V5.68999C36.42 5.68999 36.4177 5.69223 36.4177 5.69499V7.28666C36.4177 7.88496 35.9345 8.36999 35.3383 8.36999H32.0436C30.2302 8.36999 28.7555 6.88999 28.7555 5.06999V4.66999C28.7555 2.84999 30.2302 1.36999 32.0436 1.36999H35.6007C36.0519 1.36999 36.4177 1.73712 36.4177 2.18999V2.18999C36.4177 2.64286 36.0519 3.00999 35.6007 3.00999H32.8307C31.8045 3.00999 30.9774 3.83999 30.9774 4.86999C30.9774 5.89999 31.8045 6.72999 32.8307 6.72999H33.9367C34.2229 6.72999 34.4548 6.49718 34.4548 6.20999V6.20999ZM44.2409 1.37999C44.7824 1.37999 45.2214 1.82054 45.2214 2.364V2.364C45.2214 2.90822 44.7812 3.3491 44.239 3.348L40.6733 3.3408C40.4503 3.34035 40.2693 3.52163 40.2693 3.7454V3.7454C40.2693 3.96885 40.4498 4.14999 40.6725 4.14999H43.7916C44.1905 4.14999 44.514 4.47458 44.514 4.87499V4.87499C44.514 5.27539 44.1905 5.59999 43.7916 5.59999H40.6729C40.45 5.59999 40.2693 5.78131 40.2693 6.00499V6.00499C40.2693 6.22866 40.45 6.40999 40.6729 6.40999H44.2101C44.7521 6.40999 45.1915 6.85099 45.1915 7.39499V7.39499C45.1915 7.93899 44.7521 8.37999 44.2101 8.37999H40.2693C39.1833 8.37999 38.3064 7.49999 38.3064 6.40999V2.46332C38.3064 1.86501 38.7897 1.37999 39.3859 1.37999H44.2409Z" fill="#FF0074"/>
</svg>
