<svg width="154" height="44" viewBox="0 0 154 44" fill="none" xmlns="http://www.w3.org/2000/svg">
<g clip-path="url(#clip0)">
<path d="M152.954 9.72362C154.698 14.4336 154.262 18.9941 151.646 23.2772C150.076 25.8554 147.737 27.8715 144.961 29.0395C144.175 29.3793 143.529 29.1364 143.214 28.4091C142.934 27.7689 143.249 27.1056 143.993 26.7674C145.892 25.9291 147.554 24.633 148.833 22.9943C150.112 21.3556 150.969 19.425 151.326 17.3741C151.683 15.3232 151.53 13.2154 150.881 11.2381C150.232 9.26075 149.106 7.47508 147.604 6.03973C144.569 3.21934 140.996 2.05704 136.901 2.67923C134.478 3.04063 132.216 4.11374 130.399 5.76341C128.583 7.41309 127.293 9.56557 126.693 11.9497C126.379 13.1843 126.139 14.4746 126.33 15.7962C126.47 16.7812 126.062 17.3426 125.274 17.4624C124.531 17.5757 124.008 17.1817 123.849 16.4496C123.65 15.5302 123.781 14.6158 123.849 13.7014C124.036 11.1174 124.96 8.77638 126.394 6.66848C128.442 3.64781 131.23 1.59409 134.746 0.605806C138.755 -0.520379 142.622 -0.0640076 146.253 1.94704C149.363 3.62397 151.748 6.39248 152.954 9.72362Z" fill="#2A7DDB"/>
<path d="M145.923 8.17384C147.965 10.2916 148.935 12.8116 148.779 15.7698C148.671 17.7904 147.949 19.7292 146.71 21.3248C145.47 22.9205 143.774 24.0963 141.848 24.694C141.063 24.9271 140.496 24.648 140.239 23.9109C140.023 23.2936 140.378 22.5975 141.099 22.3546C142.94 21.7258 144.396 20.6078 145.341 18.9071C146.716 16.4249 146.716 13.8967 145.324 11.4227C143.071 7.41376 137.761 6.59292 134.381 9.2081C132.899 10.3351 131.884 11.9722 131.531 13.8048C131.379 14.5271 130.988 14.9244 130.386 14.9539C129.446 15.0098 128.845 14.3449 129.06 13.3894C129.798 10.1061 131.587 7.61568 134.639 6.14474C138.38 4.33562 143.114 5.16138 145.923 8.17384Z" fill="#2A7DDB"/>
<path d="M141.415 29.1364C143.004 30.471 143.228 33.1601 141.742 34.6392C139.329 37.0476 137.09 39.6447 134.427 41.7821C132.891 43.0134 131.078 43.5978 129.087 43.8999C123.874 44.6879 118.902 40.7216 117.393 36.4484C116.604 34.2141 116.739 31.9354 117.218 29.6683C117.801 26.9333 118.262 24.1769 118.689 21.4123C118.834 20.4246 119.359 19.5333 120.152 18.9304C120.944 18.3274 121.941 18.0609 122.927 18.1881C123.7 18.2861 124.422 18.6318 124.983 19.1739C125.545 19.716 125.918 20.4255 126.047 21.1973C126.098 21.501 126.21 21.7669 126.302 22.2003C127.85 20.5587 129.454 19.1879 130.782 17.5429C131.078 17.1768 131.524 16.9371 131.863 16.6006C133.161 15.3152 134.441 14.0117 135.733 12.7197C137.296 11.1552 139.605 11.147 141.219 12.6934C142.947 14.3499 143.112 16.704 141.546 18.3473C140.169 19.8002 138.74 21.2055 137.313 22.6157C137.028 22.8948 136.94 23.0639 137.211 23.425C137.595 23.9405 137.988 24.4823 137.985 25.1849C137.985 25.4164 138.197 25.4443 138.339 25.5214C139.078 25.9204 139.695 26.4572 139.974 27.2616C140.254 28.066 140.807 28.6258 141.415 29.1364ZM139.961 32.8827C140.512 32.1817 140.177 30.8158 139.103 30.5318C138.527 30.3791 138.145 30.6861 137.774 31.0588C137.592 31.2394 137.37 31.461 137.103 31.2049C136.798 30.9127 137.046 30.696 137.249 30.4858C137.452 30.2757 137.697 30.1296 137.819 29.8554C138.182 29.0461 137.904 28.2302 137.064 27.6375C136.538 27.2665 135.848 27.3979 135.233 27.9856C135.144 28.0836 135.049 28.1752 134.948 28.2597C134.747 28.4026 134.531 28.6373 134.278 28.3944C134.024 28.1514 134.224 27.915 134.389 27.718C134.667 27.3897 134.978 27.0745 135.247 26.733C135.776 26.0615 135.699 25.3556 135.055 24.7515C134.386 24.1211 133.608 24.0587 132.989 24.6021C132.71 24.8483 132.46 25.1291 132.193 25.3917C131.99 25.5937 131.778 25.8645 131.477 25.5822C131.176 25.2998 131.403 25.0683 131.611 24.8533C132.102 24.3476 132.571 23.8305 133.066 23.3364C135.228 21.1759 137.402 19.027 139.559 16.8616C140.349 16.0704 140.341 15.3217 139.585 14.5764C138.83 13.8311 138.084 13.8442 137.296 14.629C135.324 16.599 133.355 18.5761 131.387 20.5603L130.831 21.1201L125.293 26.6837C125.13 26.8479 124.991 27.0318 124.737 26.9546C124.484 26.8774 124.435 26.6575 124.392 26.3948C124.144 24.8401 124.01 23.2658 123.639 21.7325C123.465 21.0167 123.014 20.6227 122.36 20.6522C121.706 20.6818 121.26 21.1053 121.147 21.8162C120.686 24.7471 120.161 27.666 119.572 30.5728C118.792 34.4521 119.808 37.6648 123.146 39.9993C126.224 42.1515 130.442 42.0202 133.284 39.5495C135.426 37.6845 137.316 35.5553 139.333 33.5673C139.557 33.3525 139.767 33.1238 139.961 32.8827Z" fill="#353635"/>
<path d="M106.518 21.5584L112.169 28.7653H106.842L103.323 24.3476L102.026 25.674V28.7653H97.6263V11.5146H102.026V20.5586L106.518 16.1655H111.727L106.518 21.5584Z" fill="#2A7DDB"/>
<path d="M96.0043 19.4193L92.6001 21.1628C91.9984 19.9775 91.1188 19.4669 90.1001 19.4669C88.5713 19.4669 87.3679 20.5356 87.3679 22.4416C87.3679 24.3952 88.5713 25.4639 90.1001 25.4639C91.1188 25.4639 91.9984 24.9534 92.6001 23.7664L96.0043 25.5115C95.1476 27.6966 92.9713 28.9755 90.1181 28.9755C85.9046 28.9755 82.9238 26.2782 82.9238 22.4416C82.9238 18.6526 85.9111 15.9554 90.1181 15.9554C92.9713 15.9554 95.1476 17.2342 96.0043 19.4193Z" fill="#2A7DDB"/>
<path d="M80.8604 16.1655H76.4621V28.7653H80.8604V16.1655Z" fill="#2A7DDB"/>
<path d="M78.658 10.0733C80.2783 10.0733 81.3443 11.0271 81.3443 12.3519C81.3443 13.7474 80.2783 14.7701 78.658 14.7701C77.0376 14.7701 75.9716 13.7474 75.9716 12.4225C75.9716 11.0977 77.0409 10.0733 78.658 10.0733Z" fill="#2A7DDB"/>
<path d="M73.6138 11.5146H69.2138V28.7653H73.6138V11.5146Z" fill="#2A7DDB"/>
<path d="M67.3842 15.2331L64.4656 17.8844C63.447 16.6515 62.1978 15.9767 60.6461 15.9767C57.9826 15.9767 56.1301 17.8367 56.1301 20.6276C56.1301 23.4184 57.9826 25.2768 60.6461 25.2768C62.1978 25.2768 63.447 24.6021 64.4656 23.3708L67.3842 26.0205C65.8096 27.9905 63.4012 29.0888 60.4139 29.0888C55.2733 29.0888 51.4996 25.5789 51.4996 20.6276C51.4996 15.6763 55.2733 12.1648 60.4139 12.1648C63.4012 12.1664 65.8096 13.2631 67.3842 15.2331Z" fill="#2A7DDB"/>
<path d="M43.9276 15.9554C47.3301 15.9554 50.0869 18.4671 50.0869 22.4646C50.0869 26.4621 47.3301 28.9754 43.9276 28.9754C42.4691 28.9754 41.287 28.5338 40.4302 27.649V33.2766H36.0319V16.1655H40.2225V17.4197C41.0515 16.42 42.2827 15.9554 43.9276 15.9554ZM45.6411 22.4646C45.6411 20.5586 44.4835 19.4669 43.0005 19.4669C41.5175 19.4669 40.3615 20.5586 40.3615 22.4646C40.3615 24.3706 41.5191 25.4639 43.0005 25.4639C44.4819 25.4639 45.6411 24.3722 45.6411 22.4646Z" fill="#353635"/>
<path d="M27.8336 15.9554C31.2378 15.9554 33.9929 18.4671 33.9929 22.4646C33.9929 26.4621 31.2378 28.9754 27.8336 28.9754C26.3752 28.9754 25.193 28.5338 24.3362 27.649V33.2766H19.9379V16.1655H24.1286V17.4197C24.9625 16.42 26.1888 15.9554 27.8336 15.9554ZM29.5472 22.4646C29.5472 20.5586 28.3896 19.4669 26.9066 19.4669C25.4236 19.4669 24.2676 20.5586 24.2676 22.4646C24.2676 24.3706 25.4252 25.4639 26.9066 25.4639C28.3879 25.4639 29.5472 24.3722 29.5472 22.4646Z" fill="#353635"/>
<path d="M11.6711 12.4915L18.849 28.7653H14.073L12.7993 25.6035H5.95163L4.67791 28.7653H0L7.15503 12.4915H11.6711ZM11.4569 22.2101L9.37381 17.0011L7.28911 22.2101H11.4569Z" fill="#353635"/>
</g>
<defs>
<clipPath id="clip0">
<rect width="154" height="44" fill="white"/>
</clipPath>
</defs>
</svg>
