<svg width="119" height="34" viewBox="0 0 119 34" fill="none" xmlns="http://www.w3.org/2000/svg">
<g clip-path="url(#clip0)">
<path d="M118.191 7.51395C119.54 11.1535 119.202 14.6775 117.181 17.9872C115.968 19.9794 114.16 21.5373 112.016 22.4399C111.408 22.7024 110.909 22.5147 110.665 21.9527C110.449 21.458 110.693 20.9455 111.268 20.6842C112.734 20.0364 114.019 19.0348 115.008 17.7686C115.996 16.5023 116.658 15.0105 116.934 13.4257C117.21 11.8409 117.092 10.2121 116.59 8.68421C116.088 7.15627 115.218 5.77644 114.057 4.6673C111.712 2.48791 108.952 1.58977 105.787 2.07056C103.915 2.34982 102.167 3.17904 100.763 4.45379C99.3595 5.72854 98.363 7.39182 97.899 9.23413C97.6564 10.1881 97.4707 11.1852 97.6185 12.2064C97.7272 12.9675 97.4113 13.4013 96.8023 13.494C96.2287 13.5815 95.8244 13.277 95.7018 12.7113C95.5477 12.0009 95.6488 11.2943 95.7018 10.5877C95.8459 8.59097 96.5597 6.78199 97.6678 5.15315C99.2509 2.819 101.405 1.23204 104.122 0.468364C107.22 -0.401869 110.208 -0.049219 113.014 1.50477C115.417 2.80058 117.26 4.93988 118.191 7.51395Z" fill="white"/>
<path d="M112.758 6.31616C114.337 7.95261 115.086 9.89985 114.966 12.1858C114.882 13.7471 114.324 15.2453 113.366 16.4783C112.409 17.7113 111.098 18.6199 109.61 19.0817C109.003 19.2618 108.565 19.0462 108.367 18.4766C108.2 17.9996 108.474 17.4618 109.031 17.274C110.454 16.7881 111.578 15.9243 112.309 14.61C113.371 12.692 113.371 10.7384 112.296 8.82665C110.555 5.72882 106.451 5.09454 103.84 7.11536C102.695 7.98625 101.91 9.25123 101.638 10.6673C101.52 11.2255 101.218 11.5325 100.753 11.5553C100.027 11.5985 99.5617 11.0847 99.7285 10.3464C100.298 7.80926 101.681 5.88485 104.039 4.74822C106.93 3.35026 110.588 3.98835 112.758 6.31616Z" fill="white"/>
<path d="M109.275 22.5143C110.503 23.5456 110.676 25.6235 109.528 26.7665C107.663 28.6275 105.933 30.6343 103.875 32.286C102.689 33.2374 101.288 33.689 99.7487 33.9224C95.7208 34.5313 91.8786 31.4665 90.7124 28.1644C90.1035 26.4379 90.2071 24.6772 90.5773 22.9253C91.0283 20.8119 91.3846 18.6819 91.7144 16.5457C91.8263 15.7824 92.2321 15.0937 92.8446 14.6278C93.457 14.1619 94.2271 13.9559 94.9892 14.0542C95.5867 14.13 96.1439 14.3971 96.5781 14.816C97.0124 15.2349 97.3006 15.7832 97.3999 16.3795C97.4391 16.6142 97.5263 16.8197 97.597 17.1546C98.7935 15.886 100.033 14.8268 101.059 13.5557C101.288 13.2728 101.633 13.0876 101.894 12.8275C102.897 11.8342 103.887 10.827 104.885 9.82863C106.093 8.6197 107.877 8.61336 109.124 9.80835C110.459 11.0883 110.587 12.9074 109.376 14.1773C108.312 15.2999 107.208 16.3858 106.105 17.4755C105.885 17.6912 105.817 17.8219 106.027 18.1009C106.324 18.4993 106.627 18.9179 106.624 19.4608C106.624 19.6397 106.789 19.6613 106.899 19.7209C107.47 20.0292 107.946 20.444 108.162 21.0656C108.378 21.6872 108.805 22.1197 109.275 22.5143ZM108.152 25.4091C108.578 24.8674 108.319 23.812 107.489 23.5925C107.044 23.4746 106.748 23.7118 106.461 23.9998C106.321 24.1393 106.149 24.3105 105.943 24.1127C105.707 23.8869 105.899 23.7194 106.056 23.557C106.213 23.3946 106.402 23.2817 106.497 23.0699C106.777 22.4445 106.563 21.814 105.913 21.3561C105.506 21.0694 104.973 21.1709 104.498 21.625C104.43 21.7007 104.356 21.7715 104.278 21.8368C104.123 21.9472 103.956 22.1286 103.76 21.9409C103.564 21.7531 103.718 21.5705 103.846 21.4182C104.061 21.1645 104.301 20.921 104.509 20.6571C104.917 20.1383 104.858 19.5928 104.36 19.1259C103.844 18.6388 103.242 18.5906 102.765 19.0105C102.549 19.2008 102.355 19.4177 102.149 19.6207C101.993 19.7767 101.828 19.986 101.596 19.7678C101.363 19.5496 101.539 19.3708 101.699 19.2046C102.078 18.8139 102.441 18.4143 102.824 18.0324C104.494 16.363 106.175 14.7025 107.841 13.0292C108.451 12.4178 108.445 11.8393 107.861 11.2634C107.278 10.6875 106.701 10.6976 106.093 11.304C104.569 12.8262 103.047 14.354 101.526 15.8873L101.097 16.3199L96.8175 20.619C96.6911 20.7459 96.5837 20.888 96.3879 20.8283C96.1921 20.7687 96.1542 20.5987 96.1213 20.3958C95.9293 19.1944 95.8256 17.9779 95.5388 16.793C95.4049 16.2399 95.0562 15.9355 94.5508 15.9583C94.0454 15.9812 93.7005 16.3085 93.6133 16.8577C93.257 19.1225 92.8515 21.378 92.3966 23.6242C91.794 26.6219 92.5786 29.1044 95.1585 30.9083C97.5364 32.5714 100.796 32.4699 102.992 30.5607C104.647 29.1197 106.108 27.4743 107.667 25.9381C107.839 25.7721 108.001 25.5955 108.152 25.4091Z" fill="white"/>
<path d="M82.3092 16.6585L86.6757 22.2275H82.5594L79.8404 18.8138L78.8385 19.8388V22.2275H75.4385V8.89746H78.8385V15.886L82.3092 12.4913H86.3346L82.3092 16.6585Z" fill="white"/>
<path d="M74.1851 15.0058L71.5546 16.353C71.0896 15.4371 70.4099 15.0426 69.6228 15.0426C68.4414 15.0426 67.5115 15.8684 67.5115 17.3412C67.5115 18.8508 68.4414 19.6766 69.6228 19.6766C70.4099 19.6766 71.0896 19.2821 71.5546 18.3649L74.1851 19.7134C73.5231 21.4019 71.8414 22.3901 69.6367 22.3901C66.3807 22.3901 64.0775 20.3058 64.0775 17.3412C64.0775 14.4134 66.3858 12.3291 69.6367 12.3291C71.8414 12.3291 73.5231 13.3173 74.1851 15.0058Z" fill="white"/>
<path d="M62.4831 12.4912H59.0844V22.2274H62.4831V12.4912Z" fill="white"/>
<path d="M60.7812 7.78418C62.0333 7.78418 62.857 8.52121 62.857 9.54494C62.857 10.6232 62.0333 11.4135 60.7812 11.4135C59.5291 11.4135 58.7053 10.6232 58.7053 9.5995C58.7053 8.57577 59.5316 7.78418 60.7812 7.78418Z" fill="white"/>
<path d="M56.8833 8.89746H53.4834V22.2275H56.8833V8.89746Z" fill="white"/>
<path d="M52.0696 11.7713L49.8143 13.8201C49.0272 12.8674 48.0619 12.346 46.8629 12.346C44.8047 12.346 43.3732 13.7833 43.3732 15.9398C43.3732 18.0964 44.8047 19.5324 46.8629 19.5324C48.0619 19.5324 49.0272 19.011 49.8143 18.0596L52.0696 20.107C50.8529 21.6293 48.9918 22.478 46.6835 22.478C42.7112 22.478 39.7951 19.7658 39.7951 15.9398C39.7951 12.1138 42.7112 9.40039 46.6835 9.40039C48.9918 9.40166 50.8529 10.2491 52.0696 11.7713Z" fill="white"/>
<path d="M33.944 12.3291C36.5733 12.3291 38.7035 14.27 38.7035 17.359C38.7035 20.4479 36.5733 22.3901 33.944 22.3901C32.817 22.3901 31.9036 22.0488 31.2415 21.3651V25.7137H27.8428V12.4915H31.081V13.4606C31.7216 12.6881 32.673 12.3291 33.944 12.3291ZM35.2681 17.359C35.2681 15.8862 34.3736 15.0426 33.2277 15.0426C32.0817 15.0426 31.1884 15.8862 31.1884 17.359C31.1884 18.8318 32.083 19.6766 33.2277 19.6766C34.3724 19.6766 35.2681 18.833 35.2681 17.359Z" fill="white"/>
<path d="M21.5078 12.3291C24.1383 12.3291 26.2673 14.27 26.2673 17.359C26.2673 20.4479 24.1383 22.3901 21.5078 22.3901C20.3808 22.3901 19.4673 22.0488 18.8053 21.3651V25.7137H15.4066V12.4915H18.6448V13.4606C19.2892 12.6881 20.2368 12.3291 21.5078 12.3291ZM22.8319 17.359C22.8319 15.8862 21.9374 15.0426 20.7914 15.0426C19.6455 15.0426 18.7522 15.8862 18.7522 17.359C18.7522 18.8318 19.6468 19.6766 20.7914 19.6766C21.9361 19.6766 22.8319 18.833 22.8319 17.359Z" fill="white"/>
<path d="M9.01856 9.65234L14.5651 22.2276H10.8746L9.89035 19.7843H4.59899L3.61475 22.2276H0L5.52889 9.65234H9.01856ZM8.85305 17.1622L7.2434 13.1371L5.63249 17.1622H8.85305Z" fill="white"/>
</g>
<defs>
<clipPath id="clip0">
<rect width="119" height="34" fill="white"/>
</clipPath>
</defs>
</svg>
