<svg width="145" height="33" viewBox="0 0 145 33" fill="none" xmlns="http://www.w3.org/2000/svg">
<path d="M11.7621 13.0261V11.7512C11.3034 11.6811 10.84 11.6427 10.3755 11.6363C5.87897 11.6271 1.89794 14.4379 0.547666 18.5753C-0.802569 22.7127 0.791243 27.2165 4.48235 29.6937C1.71742 26.8393 0.94967 22.684 2.52207 19.084C4.09446 15.4838 7.71335 13.1113 11.7621 13.0261Z" fill="#25F4EE"/>
<path d="M12.0113 27.4682C14.5254 27.4649 16.592 25.5543 16.7021 23.1315V1.51055H20.797C20.7134 1.05878 20.6735 0.600493 20.6778 0.141602L15.0771 0.141602V21.7416C14.984 24.1768 12.9125 26.1057 10.3864 26.1097C9.63144 26.1035 8.88884 25.9244 8.21973 25.5872C8.65337 26.1667 9.22287 26.6392 9.88179 26.9661C10.5407 27.293 11.2704 27.465 12.0113 27.4682H12.0113ZM28.4451 8.84642V7.64465C26.9381 7.64515 25.4645 7.21616 24.2094 6.41155C25.3097 7.6454 26.7965 8.5001 28.4451 8.84642H28.4451Z" fill="#25F4EE"/>
<path d="M24.2094 6.41147C22.973 5.05332 22.2914 3.30747 22.2919 1.5H20.7969C20.99 2.49934 21.3922 3.45024 21.9789 4.29467C22.5656 5.1391 23.3245 5.85935 24.2094 6.41147ZM10.3755 17.0391C8.21806 17.0497 6.34501 18.4755 5.83263 20.4971C5.3202 22.5188 6.29993 24.6174 8.2089 25.5871C7.17455 24.2096 7.02842 22.3888 7.83065 20.8742C8.63296 19.3594 10.248 18.4067 12.0113 18.408C12.4815 18.4137 12.9484 18.484 13.398 18.617V13.1203C12.9389 13.0539 12.4755 13.019 12.0113 13.0158H11.7621V17.1958C11.3103 17.0789 10.8431 17.0261 10.3755 17.039L10.3755 17.0391Z" fill="#FE2C55"/>
<path d="M28.4451 8.84668V13.0266C25.6553 13.0214 22.9379 12.1696 20.6778 10.5918V21.5747C20.6658 27.055 16.0568 31.4917 10.3755 31.4917C8.26562 31.4953 6.20653 30.8673 4.4823 29.6943C7.35981 32.6796 11.838 33.6623 15.7712 32.1715C19.7043 30.6807 22.291 27.02 22.2919 22.9436V11.9921C24.5595 13.5595 27.2803 14.4003 30.0701 14.3956V9.01386C29.5239 9.01219 28.9793 8.95617 28.4451 8.84668H28.4451Z" fill="#FE2C55"/>
<path d="M20.6778 21.5743V10.5915C22.9448 12.1602 25.666 13.0011 28.4559 12.995V8.81496C26.8077 8.47921 25.3172 7.63565 24.2094 6.41147C23.3245 5.85935 22.5656 5.1391 21.9789 4.29467C21.3922 3.45024 20.99 2.49934 20.797 1.5H16.7021V23.1313C16.6201 25.0612 15.2801 26.7293 13.3633 27.2876C11.4465 27.8458 9.37337 27.1717 8.19806 25.608C6.28913 24.6383 5.3094 22.5396 5.82178 20.518C6.33421 18.4964 8.20722 17.0706 10.3647 17.06C10.835 17.064 11.3021 17.1344 11.7513 17.269V13.089C7.67978 13.1555 4.03354 15.5363 2.45673 19.158C0.879885 22.7796 1.67028 26.9579 4.47151 29.8089C6.21274 30.9432 8.27481 31.5308 10.3755 31.4913C16.0569 31.4913 20.6658 27.0547 20.6778 21.5743Z" fill="black"/>
<path d="M47.8253 31.5046H41.9042V12.9389H35.9944L35.9831 7.84971H54.2333L52.5577 12.9389H47.8253V31.5046ZM95.9754 31.5046H90.0656V12.9389H84.1332L84.1218 7.84971H102.791L101.115 12.9389H95.9754V31.5046ZM55.3428 15.3743H61.1959V31.5046H55.3881L55.3428 15.3743ZM71.0909 23.6524L69.3587 25.2687V31.5046H63.5168V7.78418H69.3587V18.8035L75.1553 13.343H82.1293L74.8043 20.2014L83.0123 31.5046H76.5704L71.0909 23.6524ZM133.019 23.6524L131.344 25.2687V31.5046H125.49L125.434 7.78418H131.344V18.8035L137.129 13.343H144.103L136.778 20.2014L144.929 31.5046H138.487L133.019 23.6524Z" fill="black"/>
<path d="M58.275 13.5285C59.9007 13.5285 61.2186 12.2573 61.2186 10.6891C61.2186 9.12088 59.9007 7.84961 58.275 7.84961C56.6493 7.84961 55.3314 9.12088 55.3314 10.6891C55.3314 12.2573 56.6493 13.5285 58.275 13.5285Z" fill="black"/>
<path d="M102.044 21.8504C102.045 16.8121 106.064 12.6223 111.271 12.229H110.399C105.107 12.5268 100.974 16.7533 100.974 21.8668C100.974 26.9803 105.107 31.2068 110.399 31.5046H111.271C106.05 31.1103 102.028 26.9013 102.044 21.8504Z" fill="#25F4EE"/>
<path d="M113.546 12.1964H112.663C117.853 12.6099 121.847 16.7941 121.847 21.8178C121.847 26.8415 117.853 31.0257 112.663 31.4392H113.546C119.074 31.4392 123.554 27.1169 123.554 21.785C123.554 16.4532 119.074 12.1309 113.546 12.1309V12.1964Z" fill="#FE2C55"/>
<path d="M111.961 26.5465C109.273 26.5465 107.093 24.444 107.093 21.8505C107.093 19.2569 109.273 17.1544 111.961 17.1544C114.65 17.1544 116.829 19.2569 116.829 21.8505C116.823 24.4415 114.647 26.5405 111.961 26.5465ZM111.961 12.1963C106.434 12.1963 101.953 16.5186 101.953 21.8505C101.953 27.1823 106.434 31.5046 111.961 31.5046C117.489 31.5046 121.969 27.1823 121.969 21.8505C121.969 19.29 120.915 16.8344 119.038 15.0239C117.161 13.2134 114.616 12.1963 111.961 12.1963Z" fill="black"/>
</svg>
