<svg width="148" height="24" viewBox="0 0 148 24" fill="none" xmlns="http://www.w3.org/2000/svg">
<path d="M77.6888 0H94.0445V3.89129H82.1069V9.41693H93.7124V13.1759H82.1069V18.795H94.0445V22.6862H77.6888V0ZM139.214 23.0948C144.228 23.0948 147.054 20.7601 147.054 17.5536C147.054 15.2694 145.381 13.5651 141.879 12.8257L138.177 12.0903C136.028 11.7011 135.352 11.312 135.352 10.5337C135.352 9.52589 136.389 8.90717 138.298 8.90717C140.367 8.90717 141.899 9.44806 142.299 11.3081H146.637C146.401 7.80594 143.812 5.49451 138.562 5.49451C134.024 5.49451 130.838 7.31563 130.838 10.845C130.838 13.2849 132.591 14.8725 136.373 15.6469L140.511 16.5769C142.143 16.8882 142.58 17.3163 142.58 17.9739C142.58 19.0206 141.347 19.6783 139.354 19.6783C136.849 19.6783 135.416 19.1374 134.86 17.2773H130.498C131.134 20.7717 133.799 23.0948 139.214 23.0948ZM129.237 22.6707H124.543C121.598 22.6707 119.965 20.8885 119.965 18.6393V9.72824H116.663V5.93033H119.981V1.1635H124.343V5.93033H129.237V9.72824H124.343V17.5536C124.343 18.4447 124.979 18.8728 125.976 18.8728H129.237V22.6707ZM110.428 5.93811V7.44794C108.892 6.18555 106.945 5.49585 104.934 5.50229C103.73 5.47766 102.533 5.68698 101.413 6.11797C100.293 6.54897 99.2734 7.19296 98.4129 8.01221C97.5525 8.83146 96.8689 9.80947 96.4022 10.8889C95.9355 11.9684 95.6951 13.1276 95.6951 14.2986C95.6951 15.4695 95.9355 16.6287 96.4022 17.7082C96.8689 18.7876 97.5525 19.7657 98.4129 20.5849C99.2734 21.4042 100.293 22.0482 101.413 22.4791C102.533 22.9101 103.73 23.1195 104.934 23.0948C106.945 23.1033 108.894 22.4134 110.428 21.1492V22.6629H114.778V5.93033L110.428 5.93811ZM105.294 19.4214C104.25 19.433 103.227 19.1427 102.354 18.5873C101.48 18.032 100.796 17.2367 100.389 16.3025C99.9816 15.3683 99.869 14.3375 100.066 13.3409C100.262 12.3444 100.759 11.4272 101.493 10.7059C102.227 9.98453 103.165 9.49165 104.187 9.28987C105.21 9.08809 106.271 9.18652 107.236 9.57264C108.201 9.95876 109.027 10.6151 109.607 11.4584C110.188 12.3016 110.497 13.2936 110.496 14.3083C110.503 14.9772 110.373 15.6407 110.113 16.2603C109.854 16.88 109.471 17.4435 108.987 17.9183C108.502 18.3931 107.926 18.7698 107.29 19.0264C106.655 19.2831 105.974 19.4147 105.286 19.4137L105.294 19.4214Z" fill="#05C167"/>
<path d="M67.9802 9.0706C65.7912 9.0706 64.2385 10.7361 64.2385 13.2927V22.6707H60.8969V6.16381H64.1984V8.1795C64.6057 7.51142 65.1892 6.96141 65.8887 6.58646C66.5881 6.21152 67.378 6.02529 68.1763 6.04707H69.3769V9.0706H67.9802ZM58.5878 14.4172C58.5878 9.49476 54.9861 5.81359 50.1118 5.81359C48.9601 5.82119 47.8213 6.05015 46.761 6.48728C45.7006 6.92441 44.7397 7.5611 43.9333 8.3607C43.127 9.16031 42.4912 10.1071 42.0625 11.1465C41.6339 12.1859 41.4208 13.2975 41.4356 14.4172C41.4356 19.3358 45.3375 23.0559 50.4279 23.0559C51.8498 23.082 53.2574 22.7754 54.5319 22.1618C55.8065 21.5483 56.9106 20.6458 57.7514 19.5304L55.3262 17.8027C54.7698 18.5577 54.0336 19.1705 53.1806 19.5887C52.3276 20.0068 51.3831 20.2178 50.4279 20.2036C49.0675 20.1974 47.7544 19.7174 46.7266 18.8508C45.6987 17.9842 45.0242 16.7882 44.8252 15.4796H58.5958L58.5878 14.4172ZM44.8973 12.9035C45.4936 10.3859 47.5625 8.68148 50.0717 8.68148C52.5809 8.68148 54.6459 10.3859 55.2062 12.9035H44.8973ZM30.8506 5.81359C29.7339 5.8145 28.6284 6.03059 27.5981 6.44937C26.5678 6.86815 25.633 7.48131 24.8478 8.25343V0H21.5062V22.6707H24.8078V20.5772C26.4072 22.1505 28.5835 23.042 30.8586 23.0559C32.0388 23.0803 33.2121 22.8753 34.3098 22.453C35.4074 22.0307 36.4073 21.3996 37.2508 20.5966C38.0943 19.7937 38.7645 18.835 39.222 17.7769C39.6795 16.7188 39.9152 15.5826 39.9152 14.4348C39.9152 13.2869 39.6795 12.1507 39.222 11.0926C38.7645 10.0345 38.0943 9.07584 37.2508 8.27288C36.4073 7.46991 35.4074 6.83878 34.3098 6.41648C33.2121 5.99418 32.0388 5.78921 30.8586 5.81359H30.8506ZM30.6105 20.153C29.4458 20.1584 28.3056 19.8272 27.3348 19.2015C26.3639 18.5759 25.606 17.6838 25.1574 16.6387C24.7087 15.5935 24.5895 14.4423 24.8148 13.3311C25.04 12.2199 25.5997 11.1989 26.4228 10.3975C27.2458 9.59609 28.2951 9.0505 29.4376 8.82992C30.58 8.60934 31.7641 8.72372 32.8396 9.15855C33.9151 9.59338 34.8335 10.3291 35.4783 11.2722C36.1231 12.2154 36.4652 13.3236 36.4613 14.4562C36.4623 15.2032 36.3117 15.943 36.0179 16.6333C35.7242 17.3236 35.2931 17.9506 34.7495 18.4785C34.2059 19.0063 33.5604 19.4246 32.8501 19.7093C32.1399 19.994 31.3788 20.1395 30.6105 20.1374V20.153ZM9.20036 19.9974C12.4259 19.9974 14.9311 17.5925 14.9311 13.9892V0H18.3927V22.6707H14.9711V20.5266C14.1717 21.3299 13.213 21.9673 12.153 22.4C11.093 22.8327 9.95377 23.0519 8.80417 23.0442C3.82982 23.0442 0 19.5187 0 14.1721V0H3.52567V14.0087C3.52567 17.6315 5.92681 19.9974 9.20036 19.9974Z" fill="black"/>
</svg>
