<svg width="131" height="40" viewBox="0 0 131 40" fill="none" xmlns="http://www.w3.org/2000/svg">
<path d="M19.6167 0C8.78294 0 0 8.95424 0 19.9996C0 31.0462 8.78294 40 19.6167 40C30.451 40 39.2334 31.0462 39.2334 19.9996C39.2334 8.95495 30.4514 0.000954566 19.6165 0.000954566L19.6167 0ZM28.6128 28.8452C28.2605 29.4344 27.5076 29.619 26.9316 29.26C22.3251 26.3896 16.527 25.7412 9.6986 27.3315C9.0406 27.4853 8.3847 27.0648 8.23479 26.3941C8.08416 25.7233 8.4948 25.0546 9.15444 24.9017C16.627 23.16 23.0368 23.9097 28.2073 27.1309C28.7836 27.4916 28.9663 28.2582 28.6126 28.8457L28.6128 28.8452ZM31.0139 23.4003C30.5702 24.1342 29.629 24.3644 28.9101 23.9137C23.6383 20.6098 15.5996 19.6529 9.3627 21.583C8.55383 21.8321 7.69953 21.3674 7.45403 20.5442C7.21041 19.7195 7.6665 18.8502 8.47396 18.5994C15.5982 16.3955 24.4547 17.4631 30.51 21.2568C31.2292 21.7082 31.4564 22.6683 31.0136 23.4005L31.0139 23.4003ZM31.22 17.7296C24.8967 13.901 14.4665 13.549 8.43013 15.4168C7.46082 15.7165 6.43574 15.1586 6.14199 14.1704C5.84825 13.1817 6.39498 12.1373 7.365 11.8368C14.2943 9.69221 25.8135 10.1066 33.0926 14.5122C33.9645 15.0397 34.2505 16.1877 33.7337 17.0755C33.2184 17.9644 32.0893 18.2574 31.2202 17.7296H31.22ZM53.3706 18.4633C49.9836 17.6398 49.3806 17.0619 49.3806 15.8474C49.3806 14.7001 50.4401 13.928 52.0157 13.928C53.543 13.928 55.0574 14.5143 56.6452 15.7213C56.6932 15.7579 56.7534 15.7724 56.8127 15.7629C56.8719 15.7538 56.9244 15.7206 56.9591 15.6707L58.6129 13.2939C58.6808 13.196 58.6623 13.0611 58.5707 12.9863C56.681 11.4404 54.5531 10.6888 52.0659 10.6888C48.4088 10.6888 45.8543 12.9264 45.8543 16.1278C45.8543 19.5609 48.0578 20.7765 51.8658 21.7149C55.1069 22.476 55.6539 23.1137 55.6539 24.2536C55.6539 25.5167 54.5477 26.302 52.7677 26.302C50.7906 26.302 49.178 25.623 47.3741 24.0303C47.3293 23.9909 47.268 23.973 47.2113 23.9763C47.1515 23.9813 47.097 24.0095 47.059 24.0561L45.2047 26.306C45.1269 26.3994 45.1368 26.5389 45.2267 26.6196C47.3256 28.53 49.907 29.539 52.6927 29.539C56.6335 29.539 59.18 27.3437 59.18 23.946C59.187 21.0777 57.5028 19.4895 53.3777 18.4664L53.3706 18.4633ZM68.0955 15.0576C66.3874 15.0576 64.9863 15.7435 63.831 17.149V15.567C63.831 15.4421 63.7317 15.3404 63.6094 15.3404H60.5766C60.4541 15.3404 60.355 15.4421 60.355 15.567V33.145C60.355 33.2699 60.4541 33.3716 60.5766 33.3716H63.6094C63.7317 33.3716 63.831 33.2699 63.831 33.145V27.5964C64.9866 28.9185 66.3878 29.5645 68.0955 29.5645C71.2693 29.5645 74.4823 27.0736 74.4823 22.3119C74.487 17.5491 71.2731 15.0574 68.099 15.0574L68.0955 15.0576ZM70.9557 22.3119C70.9557 24.7367 69.4907 26.4288 67.393 26.4288C65.3192 26.4288 63.7549 24.6598 63.7549 22.3119C63.7549 19.9643 65.3192 18.1951 67.393 18.1951C69.4567 18.1948 70.9559 19.9258 70.9559 22.3117L70.9557 22.3119ZM82.7173 15.0576C78.6299 15.0576 75.4277 18.2665 75.4277 22.3637C75.4277 26.4164 78.6079 29.5915 82.6672 29.5915C86.7691 29.5915 89.9812 26.3934 89.9812 22.3119C89.9812 18.2445 86.7907 15.0581 82.7171 15.0581L82.7173 15.0576ZM82.7173 26.4529C80.5433 26.4529 78.9042 24.672 78.9042 22.3107C78.9042 19.9394 80.4866 18.2187 82.6672 18.2187C84.8553 18.2187 86.5054 19.9996 86.5054 22.3625C86.5054 24.7334 84.9125 26.4529 82.7176 26.4529H82.7173ZM98.7095 15.3404H95.3722V11.8617C95.3722 11.737 95.2733 11.6353 95.1508 11.6353H92.1185C91.9957 11.6353 91.8962 11.737 91.8962 11.8617V15.3404H90.438C90.3159 15.3404 90.217 15.4421 90.217 15.567V18.2244C90.217 18.3491 90.3159 18.4511 90.438 18.4511H91.8962V25.3271C91.8962 28.1058 93.2527 29.5146 95.928 29.5146C97.0159 29.5146 97.9185 29.2856 98.769 28.7939C98.8381 28.7545 98.881 28.6785 98.881 28.5978V26.0672C98.881 25.9891 98.8411 25.9153 98.7756 25.8745C98.7095 25.8322 98.6273 25.8301 98.5596 25.8642C97.9754 26.1639 97.4106 26.3022 96.7793 26.3022C95.8062 26.3022 95.3722 25.8518 95.3722 24.8423V18.4523H98.7095C98.832 18.4523 98.9306 18.3506 98.9306 18.2257V15.5685C98.9353 15.4436 98.8369 15.3419 98.7128 15.3419L98.7095 15.3404ZM110.338 15.354V14.9268C110.338 13.6698 110.81 13.1093 111.871 13.1093C112.503 13.1093 113.011 13.2373 113.579 13.4308C113.649 13.4532 113.723 13.442 113.779 13.3992C113.838 13.3565 113.871 13.2879 113.871 13.2153V10.6098C113.871 10.5102 113.808 10.422 113.714 10.3927C113.113 10.2104 112.344 10.0234 111.193 10.0234C108.392 10.0234 106.912 11.6317 106.912 14.6726V15.327H105.454C105.332 15.327 105.232 15.4288 105.232 15.5534V18.2244C105.232 18.3491 105.332 18.4511 105.454 18.4511H106.912V29.057C106.912 29.1819 107.01 29.2837 107.133 29.2837H110.166C110.288 29.2837 110.388 29.1819 110.388 29.057V18.4518H113.219L117.557 29.0551C117.065 30.1693 116.58 30.3909 115.919 30.3909C115.385 30.3909 114.822 30.2282 114.247 29.9073C114.193 29.8769 114.129 29.8719 114.07 29.8903C114.013 29.9111 113.964 29.955 113.939 30.0123L112.911 32.3115C112.862 32.4202 112.904 32.5477 113.007 32.6041C114.08 33.1966 115.049 33.4495 116.246 33.4495C118.485 33.4495 119.723 32.386 120.814 29.5249L126.076 15.6635C126.102 15.5938 126.094 15.515 126.052 15.4531C126.011 15.3917 125.943 15.3547 125.87 15.3547H122.713C122.618 15.3547 122.533 15.4161 122.502 15.5066L119.268 24.9254L115.726 15.5004C115.693 15.4128 115.61 15.3547 115.519 15.3547H110.337L110.338 15.354ZM103.596 15.3404H100.563C100.441 15.3404 100.341 15.4421 100.341 15.567V29.057C100.341 29.1819 100.441 29.2837 100.563 29.2837H103.596C103.718 29.2837 103.818 29.1819 103.818 29.057V15.568C103.818 15.5382 103.813 15.5087 103.801 15.4811C103.79 15.4536 103.774 15.4286 103.753 15.4075C103.733 15.3864 103.708 15.3697 103.681 15.3584C103.654 15.347 103.625 15.3413 103.596 15.3414L103.596 15.3404ZM102.097 9.19808C100.895 9.19808 99.9204 10.1897 99.9204 11.4146C99.9204 12.6403 100.896 13.6331 102.097 13.6331C103.298 13.6331 104.272 12.6403 104.272 11.4146C104.272 10.1899 103.297 9.19808 102.098 9.19808H102.097ZM128.665 19.6777C127.465 19.6777 126.531 18.6949 126.531 17.5015C126.531 16.3081 127.477 15.3141 128.677 15.3141C129.877 15.3141 130.811 16.2967 130.811 17.4891C130.811 18.6825 129.864 19.6777 128.665 19.6777H128.665ZM128.677 15.5305C127.584 15.5305 126.757 16.4165 126.757 17.5015C126.757 18.586 127.578 19.4601 128.666 19.4601C129.759 19.4601 130.587 18.5748 130.587 17.4891C130.587 16.4046 129.765 15.5305 128.678 15.5305H128.677ZM129.15 17.7129L129.754 18.5746H129.245L128.701 17.7841H128.234V18.5746H127.808V16.2904H128.807C129.328 16.2904 129.67 16.562 129.67 17.0191C129.672 17.3936 129.459 17.6224 129.152 17.7129H129.15V17.7129ZM128.789 16.6824H128.234V17.4048H128.789C129.067 17.4048 129.232 17.2665 129.232 17.0432C129.232 16.8082 129.066 16.6824 128.79 16.6824H128.789V16.6824Z" fill="#2EBD59"/>
</svg>
