<svg width="110" height="34" viewBox="0 0 110 34" fill="none" xmlns="http://www.w3.org/2000/svg">
<path fill-rule="evenodd" clip-rule="evenodd" d="M68.238 26.59C61.8699 31.4245 52.6071 34.0003 44.618 34.0003C33.4255 34.0003 23.3908 29.7602 15.749 22.7066C15.1701 22.1518 15.6719 21.3989 16.4052 21.8348C24.6259 26.7485 34.7763 29.6809 45.2741 29.6809C52.3369 29.6809 60.1331 28.1751 67.3117 25.0446C68.3924 24.6087 69.2801 25.7975 68.238 26.59Z" fill="#FF9900"/>
<path fill-rule="evenodd" clip-rule="evenodd" d="M70.901 23.4593C70.0905 22.3893 65.4977 22.9441 63.4522 23.2215C62.8347 23.3008 62.7189 22.746 63.2978 22.3497C66.9643 19.6947 72.9465 20.4872 73.6412 21.359C74.3359 22.2308 73.4483 28.4126 70.0133 31.345C69.473 31.7809 68.9713 31.5432 69.2028 30.9488C69.9747 28.9674 71.7115 24.5688 70.901 23.4593Z" fill="#FF9900"/>
<path fill-rule="evenodd" clip-rule="evenodd" d="M63.568 3.72494V1.14918C63.568 0.752911 63.8382 0.515147 64.1855 0.515147H75.3781C75.7254 0.515147 76.0342 0.792538 76.0342 1.14918V3.32867C76.0342 3.68531 75.7254 4.16084 75.1851 4.95338L69.3959 13.4336C71.5572 13.3939 73.8343 13.711 75.764 14.8205C76.1885 15.0583 76.3043 15.4545 76.3429 15.8112V18.5455C76.3429 18.9417 75.957 19.3776 75.5324 19.1399C72.0975 17.2774 67.5047 17.0793 63.7224 19.1795C63.3365 19.3776 62.9119 18.9813 62.9119 18.5851V15.9697C62.9119 15.5734 62.9119 14.8601 63.3365 14.2261L70.052 4.35897H64.2241C63.8768 4.35897 63.568 4.08158 63.568 3.72494ZM22.7733 19.6946H19.3769C19.0682 19.655 18.798 19.4172 18.7594 19.1002V1.18881C18.7594 0.832168 19.0682 0.554776 19.4155 0.554776H22.5803C22.9277 0.554776 23.1592 0.832165 23.1978 1.14918V3.48717H23.275C24.0855 1.22843 25.6679 0.158506 27.752 0.158506C29.8747 0.158506 31.2256 1.22843 32.1518 3.48717C32.9623 1.22843 34.8535 0.158506 36.8604 0.158506C38.2884 0.158506 39.8322 0.752911 40.7971 2.13986C41.8777 3.64569 41.6462 5.82518 41.6462 7.7669V19.1002C41.6462 19.4569 41.3374 19.7343 40.9901 19.7343H37.6323C37.2849 19.6946 37.0148 19.4172 37.0148 19.1002V9.58974C37.0148 8.83682 37.092 6.93472 36.9376 6.22144C36.6674 5.03263 35.9341 4.67599 34.9307 4.67599C34.1202 4.67599 33.2325 5.23077 32.8851 6.14219C32.5378 7.05361 32.5764 8.55943 32.5764 9.58974V19.1002C32.5764 19.4569 32.2676 19.7343 31.9203 19.7343H28.5239C28.1766 19.6946 27.9064 19.4172 27.9064 19.1002V9.58974C27.9064 7.60838 28.2152 4.63636 25.8223 4.63636C23.3908 4.63636 23.468 7.4895 23.468 9.58974V19.1002C23.4294 19.4172 23.1592 19.6946 22.7733 19.6946ZM85.6829 0.158506C90.7388 0.158506 93.479 4.59673 93.479 10.2634C93.479 15.7319 90.4686 20.0909 85.6829 20.0909C80.7427 20.0909 78.0411 15.6527 78.0411 10.1049C78.0025 4.51748 80.7427 0.158506 85.6829 0.158506ZM85.6829 3.84382C83.1742 3.84382 83.0198 7.37063 83.0198 9.55012C83.0198 11.7296 82.9812 16.4056 85.6443 16.4056C88.2687 16.4056 88.4231 12.641 88.4231 10.3427C88.4231 8.83683 88.3459 7.01399 87.9214 5.58741C87.5354 4.31935 86.7635 3.84382 85.6829 3.84382ZM100.002 19.6946H96.6052C96.2579 19.655 95.9877 19.3776 95.9877 19.0606V1.10955C96.0263 0.792536 96.2965 0.515147 96.6438 0.515147H99.8086C100.117 0.515147 100.349 0.752916 100.426 1.03031V3.76457H100.503C101.468 1.30769 102.78 0.158506 105.135 0.158506C106.64 0.158506 108.145 0.713279 109.11 2.25873C109.998 3.68531 109.998 6.10256 109.998 7.84615V19.1399C109.959 19.4569 109.689 19.6946 109.342 19.6946H105.945C105.636 19.655 105.366 19.4172 105.328 19.1399V9.3916C105.328 7.41025 105.559 4.55711 103.205 4.55711C102.394 4.55711 101.623 5.11189 101.237 5.98369C100.773 7.09324 100.696 8.16316 100.696 9.3916V19.0606C100.658 19.4173 100.349 19.6946 100.002 19.6946ZM54.6526 11.1352C54.6526 12.4825 54.6912 13.6317 54.0351 14.8601C53.4948 15.8508 52.6457 16.4452 51.6808 16.4452C50.3686 16.4452 49.5967 15.4149 49.5967 13.9091C49.5967 10.9371 52.1826 10.3823 54.6526 10.3823V11.1352ZM58.0876 19.655C57.856 19.8531 57.5472 19.8928 57.2771 19.7343C56.1578 18.7832 55.9263 18.3077 55.3087 17.3963C53.4562 19.338 52.1054 19.9324 49.7125 19.9324C46.8565 19.9324 44.618 18.1096 44.618 14.5035C44.618 11.6504 46.1232 9.74824 48.2459 8.7972C50.0984 7.96503 52.6843 7.80653 54.6526 7.56877V7.13287C54.6526 6.3007 54.7298 5.31003 54.2281 4.59674C53.8035 3.96271 53.0316 3.68531 52.3369 3.68531C51.0247 3.68531 49.8669 4.35898 49.5967 5.78555C49.5195 6.10257 49.3265 6.41957 49.0178 6.41957L45.7372 6.06293C45.467 5.98368 45.1583 5.78555 45.2355 5.34965C46.0074 1.22844 49.5967 0 52.8387 0C54.4982 0 56.6596 0.435895 57.9718 1.74359C59.6314 3.32867 59.477 5.46853 59.477 7.7669V13.1958C59.477 14.8205 60.1331 15.5338 60.7506 16.4452C60.9822 16.7622 61.0208 17.1585 60.7506 17.3566C60.0173 17.951 58.7823 19.0606 58.0876 19.655ZM10.0756 11.1352C10.0756 12.4825 10.1142 13.6317 9.45806 14.8601C8.91773 15.8508 8.06864 16.4452 7.10377 16.4452C5.79154 16.4452 5.01965 15.4149 5.01965 13.9091C5.01965 10.9371 7.60551 10.3823 10.0756 10.3823V11.1352ZM13.4719 19.655C13.2403 19.8531 12.9316 19.8928 12.6614 19.7343C11.5422 18.7832 11.3106 18.3077 10.6931 17.3963C8.84054 19.338 7.48972 19.9324 5.09684 19.9324C2.24082 19.9324 0.00231934 18.1096 0.00231934 14.5035C0.00231934 11.6504 1.50752 9.74824 3.63023 8.7972C5.48279 7.96503 8.06864 7.80653 10.037 7.56877V7.13287C10.037 6.3007 10.1142 5.31003 9.61243 4.59674C9.18789 3.96271 8.416 3.68531 7.72129 3.68531C6.40906 3.68531 5.25122 4.35898 4.98105 5.78555C4.90386 6.10257 4.71089 6.41957 4.40213 6.41957L1.12157 6.06293C0.851404 5.98368 0.54265 5.78555 0.619839 5.34965C1.39174 1.22844 4.98106 0 8.22302 0C9.8826 0 12.0439 0.435895 13.3561 1.74359C15.0157 3.32867 14.8613 5.46853 14.8613 7.7669V13.1958C14.8613 14.8205 15.5174 15.5338 16.135 16.4452C16.3665 16.7622 16.4051 17.1585 16.135 17.3566C15.4017 17.951 14.1666 19.0606 13.4719 19.655Z" fill="black"/>
</svg>
