<svg width="138" height="40" viewBox="0 0 138 40" fill="none" xmlns="http://www.w3.org/2000/svg">
<g clip-path="url(#clip0)">
<path d="M134.893 23.8844C134.815 24.2696 134.677 24.597 134.49 24.8857C134.304 25.1742 134.059 25.4057 133.745 25.5882C133.44 25.7618 133.058 25.8577 132.606 25.8577C132.165 25.8577 131.782 25.7713 131.478 25.5882C131.175 25.414 130.916 25.1737 130.722 24.8857C130.536 24.5972 130.398 24.2696 130.31 23.8844C130.224 23.502 130.181 23.1114 130.182 22.7198C130.182 22.3156 130.222 21.9111 130.3 21.5362C130.379 21.151 130.516 20.8141 130.703 20.5253C130.889 20.2265 131.135 19.9959 131.448 19.8035C131.753 19.6204 132.135 19.5243 132.587 19.5243C133.028 19.5243 133.401 19.6204 133.706 19.8035C134.01 19.9885 134.269 20.2384 134.461 20.5348C134.658 20.8331 134.795 21.1795 134.883 21.5552C134.971 21.9401 135.011 22.3251 135.011 22.7198C135.011 23.1145 134.971 23.4995 134.893 23.8844ZM137.504 20.7755C137.317 20.1306 137.042 19.5724 136.669 19.0815C136.286 18.6004 135.815 18.2054 135.246 17.9169C134.677 17.6281 133.99 17.4741 133.195 17.4741C132.567 17.4741 131.998 17.5993 131.478 17.84C130.957 18.0807 130.526 18.4751 130.192 19.0046H130.153V17.7436H127.523V31.0942H130.29V26.4062H130.329C130.655 26.8772 131.102 27.2557 131.625 27.5037C132.155 27.7539 132.724 27.8791 133.352 27.8791C134.088 27.8791 134.736 27.7349 135.295 27.4556C135.835 27.1844 136.308 26.7998 136.679 26.3293C137.052 25.8577 137.327 25.3185 137.504 24.7026C137.69 24.0865 137.778 23.4516 137.778 22.7872C137.778 22.0847 137.69 21.4109 137.504 20.7658V20.7755ZM123.853 23.8844C123.774 24.2696 123.637 24.597 123.45 24.8857C123.263 25.1745 123.018 25.4057 122.704 25.5882C122.4 25.7618 122.017 25.8577 121.566 25.8577C121.124 25.8577 120.752 25.7713 120.437 25.5882C120.134 25.4139 119.875 25.1736 119.681 24.8857C119.495 24.5972 119.358 24.2696 119.27 23.8844C119.183 23.5021 119.14 23.1115 119.142 22.7198C119.142 22.3156 119.181 21.9111 119.26 21.5362C119.338 21.151 119.475 20.8141 119.662 20.5253C119.849 20.2265 120.094 19.9959 120.408 19.8035C120.712 19.6204 121.095 19.5243 121.546 19.5243C121.988 19.5243 122.361 19.6204 122.665 19.8035C122.97 19.9884 123.228 20.2384 123.42 20.5348C123.617 20.8331 123.754 21.1795 123.843 21.5552C123.931 21.9401 123.97 22.3251 123.97 22.7198C123.97 23.1145 123.931 23.4995 123.853 23.8844ZM125.628 19.0815C125.256 18.6004 124.775 18.2054 124.206 17.9169C123.637 17.6281 122.95 17.4741 122.154 17.4741C121.526 17.4741 120.957 17.5993 120.437 17.84C119.917 18.0807 119.485 18.4751 119.152 19.0046H119.112V17.7436H116.482V31.0942H119.249V26.4062H119.289C119.615 26.8772 120.062 27.2557 120.585 27.5037C121.114 27.7539 121.683 27.8791 122.311 27.8791C123.057 27.8791 123.695 27.7349 124.255 27.4556C124.795 27.1842 125.267 26.7997 125.638 26.3293C126.012 25.8577 126.286 25.3185 126.473 24.7026C126.654 24.0796 126.746 23.435 126.748 22.7872C126.748 22.0847 126.659 21.4109 126.473 20.7658C126.286 20.1211 126.012 19.5626 125.628 19.072V19.0815ZM107.414 22.3541L109.229 17.3391H109.269L111.025 22.3541H107.414ZM107.708 13.9702L102.438 27.6287H105.52L106.609 24.5872H111.82L112.87 27.6287H116.05L110.839 13.9702H107.698H107.708ZM102.213 23.2973C102.026 22.9893 101.79 22.7198 101.486 22.5082C101.192 22.2965 100.848 22.1325 100.465 21.998C100.078 21.873 99.6847 21.7639 99.2877 21.6709C98.8952 21.584 98.5125 21.4973 98.1394 21.4205C97.7663 21.3436 97.4229 21.2566 97.1384 21.1605C96.8443 21.0643 96.6086 20.9393 96.4319 20.785C96.2452 20.631 96.1571 20.4387 96.1571 20.1885C96.1571 19.9864 96.2061 19.8226 96.3139 19.6973C96.4219 19.5724 96.5496 19.4857 96.6967 19.4183C96.844 19.351 97.0107 19.3124 97.1974 19.2934C97.3668 19.275 97.5371 19.2654 97.7076 19.2646C98.1984 19.2646 98.6302 19.3607 98.9936 19.5436C99.3567 19.7264 99.5627 20.0825 99.5921 20.6022H102.222C102.173 19.9861 102.006 19.4857 101.741 19.0812C101.476 18.6767 101.143 18.3594 100.74 18.1187C100.338 17.878 99.8768 17.705 99.3664 17.599C98.8562 17.4931 98.3261 17.445 97.7766 17.445C97.2273 17.445 96.6972 17.4934 96.1771 17.5892C95.6569 17.6854 95.1861 17.8492 94.7739 18.0899C94.3521 18.3306 94.0181 18.6484 93.773 19.0524C93.5176 19.4566 93.3902 19.9864 93.3902 20.6212C93.3902 21.0545 93.4783 21.4202 93.6649 21.7185C93.8416 22.0173 94.0868 22.2672 94.3812 22.4693C94.6856 22.6619 95.0193 22.8257 95.4021 22.9507C95.7849 23.0757 96.1773 23.1819 96.5798 23.2683C97.5711 23.4704 98.3366 23.6725 98.8958 23.8746C99.4453 24.0767 99.7203 24.3848 99.7203 24.789C99.7203 25.0297 99.6614 25.2318 99.5436 25.3954C99.4284 25.5552 99.2773 25.6869 99.1019 25.7803C98.9252 25.8765 98.7288 25.9441 98.513 25.9919C98.3102 26.0372 98.1028 26.0598 97.8948 26.0593C97.6201 26.0593 97.355 26.0308 97.1096 25.9631C96.8545 25.8958 96.6288 25.799 96.4327 25.6646C96.2363 25.5298 96.0793 25.3565 95.9519 25.1449C95.8242 24.9333 95.7652 24.6828 95.7652 24.394H93.1351C93.1644 25.058 93.3121 25.6067 93.5965 26.0495C93.8713 26.4926 94.2344 26.839 94.6662 27.1084C95.098 27.3779 95.5985 27.5703 96.1579 27.6857C96.7174 27.8014 97.2863 27.8593 97.8752 27.8593C98.4446 27.8593 99.0135 27.8014 99.5633 27.6952C100.113 27.5895 100.604 27.3969 101.035 27.1275C101.467 26.858 101.811 26.5018 102.076 26.0685C102.34 25.626 102.478 25.087 102.478 24.4323C102.478 23.9705 102.39 23.5856 102.203 23.2772L102.213 23.2973ZM90.7595 14.7789H87.992V17.7436H86.3136V19.5626H87.992V25.3959C87.992 25.8966 88.0801 26.2913 88.2471 26.5991C88.4141 26.9074 88.6495 27.138 88.944 27.3116C89.2384 27.4752 89.5724 27.5906 89.9549 27.6485C90.3578 27.7073 90.7646 27.7362 91.1719 27.7349C91.4467 27.7349 91.7214 27.7254 92.0158 27.7159C92.2757 27.7072 92.5347 27.6815 92.7911 27.6387V25.5306C92.6556 25.5606 92.5179 25.5799 92.3792 25.5882C92.229 25.5998 92.0784 25.6062 91.9278 25.6075C91.4566 25.6075 91.1522 25.5306 90.9955 25.3763C90.8384 25.2226 90.7598 24.9143 90.7598 24.4622V19.5626H92.7911V17.7436H90.7598V14.7789H90.7595ZM82.8199 23.8075C82.8199 23.9613 82.8005 24.1637 82.7708 24.4236C82.7378 24.6895 82.6474 24.9455 82.5058 25.1745C82.3587 25.425 82.1427 25.6366 81.8385 25.8197C81.5444 26.0022 81.1123 26.0892 80.5728 26.0892C80.3568 26.0892 80.1407 26.0696 79.9249 26.0313C79.7189 25.9925 79.5325 25.9251 79.3754 25.8292C79.2184 25.7328 79.1007 25.6078 79.0024 25.4345C78.9143 25.2709 78.865 25.0688 78.865 24.8184C78.865 24.5584 78.9143 24.3563 79.0024 24.1832C79.0907 24.0191 79.2181 23.8844 79.3658 23.7692C79.5128 23.6633 79.6895 23.5769 79.8956 23.5095C80.1017 23.4421 80.298 23.3938 80.5138 23.3552C80.7354 23.3178 80.9578 23.2857 81.181 23.259C81.4067 23.2302 81.6131 23.2012 81.8192 23.1629C82.0252 23.1246 82.2116 23.0762 82.3883 23.0186C82.565 22.961 82.7121 22.8839 82.8301 22.7779V23.7888L82.8199 23.8075ZM85.5873 25.4342V20.2844C85.5873 19.6878 85.45 19.2064 85.1755 18.8408C84.9007 18.4749 84.547 18.1959 84.1252 17.9938C83.6934 17.7916 83.2223 17.6569 82.7021 17.58C82.1916 17.5116 81.6769 17.4762 81.1616 17.4741C80.6019 17.4741 80.0427 17.5319 79.4932 17.6379C78.9439 17.7438 78.4432 17.9264 78.0014 18.1866C77.5665 18.4404 77.1945 18.7856 76.9121 19.1975C76.6276 19.621 76.4606 20.1502 76.4215 20.7856H79.189C79.2381 20.2469 79.4245 19.8715 79.7383 19.6403C80.0526 19.4091 80.4745 19.2939 81.0242 19.2939C81.2696 19.2939 81.5048 19.3129 81.7211 19.342C81.9221 19.3679 82.1157 19.4334 82.2903 19.5346C82.4573 19.6308 82.5847 19.7655 82.683 19.9388C82.7811 20.1121 82.8301 20.3428 82.8301 20.6413C82.8398 20.9203 82.7614 21.1325 82.5747 21.2863C82.3883 21.4305 82.1429 21.5462 81.8291 21.6231C81.5153 21.7 81.1619 21.7579 80.7595 21.7964C80.357 21.835 79.9449 21.8831 79.5328 21.9505C79.1206 22.0178 78.7082 22.1042 78.2961 22.2102C77.884 22.3161 77.5206 22.4796 77.2065 22.7013C76.8827 22.9225 76.6276 23.2112 76.4215 23.5674C76.2155 23.9333 76.1172 24.3954 76.1172 24.9536C76.1172 25.4638 76.2052 25.9066 76.3822 26.2723C76.5479 26.6288 76.7966 26.9421 77.1084 27.1869C77.4325 27.4341 77.8025 27.6172 78.1978 27.7259C78.6099 27.8414 79.0614 27.899 79.5422 27.899C80.1703 27.899 80.7789 27.8126 81.3774 27.6295C81.9694 27.4522 82.5062 27.1312 82.9378 26.6961C82.9475 26.8596 82.9772 27.0229 83.0065 27.1869C83.0359 27.3407 83.0849 27.5045 83.1342 27.6585H85.941C85.8134 27.4564 85.7153 27.1481 85.6663 26.7439C85.6143 26.3191 85.5881 25.8917 85.5876 25.4638V25.4342H85.5873ZM74.1839 18.6001C73.9091 18.2537 73.5361 17.9745 73.0652 17.7819C72.5941 17.5797 71.9859 17.4833 71.2397 17.4833C70.7195 17.4833 70.1897 17.618 69.6402 17.878C69.0907 18.138 68.6489 18.5615 68.2958 19.1293H68.2368V13.9797H65.4693V27.6384H68.2368V22.4503C68.2368 21.4395 68.4038 20.7177 68.7472 20.2749C69.081 19.8321 69.6305 19.6204 70.3861 19.6204C71.0436 19.6204 71.5147 19.8226 71.7698 20.2265C72.0252 20.6307 72.1626 21.2374 72.1626 22.0553V27.6384H74.9301V21.5552C74.9301 20.9391 74.8711 20.3811 74.763 19.8804C74.655 19.3798 74.4587 18.9467 74.1839 18.6001ZM59.5512 23.3938H59.5119L57.1372 13.98H54.2713L51.857 23.2783H51.8177L49.6094 13.98H46.5477L50.2375 27.6387H53.3388L55.6548 18.3401H55.6941L58.0495 27.6387H61.0918L62.76 21.5745L64.8406 13.98H61.8374L59.5512 23.3938Z" fill="#272525"/>
<path d="M20.59 35.8593C17.204 35.8593 14.0441 34.8583 11.4042 33.1547L4.98572 35.1661L7.06633 29.0828C5.06438 26.3874 3.88698 23.0667 3.88698 19.4859C3.88698 10.4571 11.3749 3.11281 20.5803 3.11281C29.7857 3.11281 37.2736 10.4571 37.2736 19.4859C37.2736 28.5145 29.7857 35.8591 20.5803 35.8591H20.59V35.8593ZM20.59 0.0131836C9.62747 0.0131836 0.736433 8.73451 0.736433 19.4862C0.736433 23.1631 1.77674 26.6091 3.58231 29.5449L0.000244141 39.9888L10.9921 36.5333C13.9301 38.1267 17.2328 38.9614 20.59 38.959C31.5522 38.959 40.4435 30.2382 40.4435 19.4862C40.4433 8.73451 31.5522 0.0131836 20.59 0.0131836Z" fill="#FEFEFE"/>
<path d="M20.59 3.11182C11.3846 3.11182 3.89673 10.4561 3.89673 19.4849C3.89673 23.0657 5.07441 26.3864 7.07635 29.0818L4.99575 35.1651L11.414 33.1537C14.0538 34.8671 17.2041 35.8583 20.5997 35.8583C29.8051 35.8583 37.293 28.5138 37.293 19.4852C37.293 10.4564 29.8051 3.11209 20.5997 3.11209H20.59V3.11182Z" fill="url(#paint0_linear)"/>
<path d="M15.9283 11.4288C15.6045 10.6684 15.3591 10.6396 14.8686 10.6201C14.6823 10.6083 14.4958 10.602 14.3091 10.6011C13.671 10.6011 13.0038 10.7839 12.6013 11.1881C12.1108 11.679 10.8938 12.8243 10.8938 15.1731C10.8938 17.5218 12.6407 19.7935 12.8761 20.1113C13.1215 20.4286 16.2817 25.3184 21.1885 27.3113C25.0257 28.8706 26.1643 28.7261 27.0376 28.5433C28.3133 28.2738 29.9131 27.3494 30.3156 26.2331C30.718 25.1163 30.718 24.1634 30.6 23.9612C30.4823 23.7591 30.1582 23.6439 29.6677 23.403C29.1772 23.1623 26.7922 22.0072 26.3407 21.8532C25.899 21.6896 25.4771 21.7475 25.1437 22.2096C24.6725 22.8545 24.2114 23.5092 23.8383 23.9036C23.5439 24.2117 23.0628 24.2503 22.6606 24.0865C22.1208 23.8653 20.6097 23.3451 18.7448 21.7184C17.3021 20.4577 16.3208 18.8888 16.0363 18.4172C15.7516 17.9361 16.007 17.6566 16.2324 17.3969C16.4778 17.0983 16.7132 16.8867 16.9586 16.6074C17.204 16.3284 17.3414 16.1839 17.4984 15.8566C17.6655 15.539 17.5475 15.2117 17.4298 14.971C17.312 14.7303 16.3307 12.3815 15.9283 11.4288Z" fill="#FEFEFE"/>
</g>
<defs>
<linearGradient id="paint0_linear" x1="-121.583" y1="-51.7448" x2="-121.583" y2="-50.5433" gradientUnits="userSpaceOnUse">
<stop stop-color="#6EBF61"/>
<stop offset="0.231" stop-color="#50A557"/>
<stop offset="0.522" stop-color="#2A904F"/>
<stop offset="0.812" stop-color="#50A557"/>
<stop offset="1" stop-color="#6EBF63"/>
</linearGradient>
<clipPath id="clip0">
<rect width="137.778" height="40" fill="white"/>
</clipPath>
</defs>
</svg>
