<svg width="102" height="43" viewBox="0 0 102 43" fill="none" xmlns="http://www.w3.org/2000/svg">
<path d="M11.1749 26.2701C10.9683 26.9834 10.7749 27.7 10.5949 28.42L10.0049 30.77C9.82491 31.46 9.70491 32.02 9.63491 32.42C9.57584 32.7585 9.41004 33.0692 9.16174 33.3067C8.91344 33.5442 8.59568 33.6961 8.25491 33.7401C7.55927 33.8647 6.84332 33.8097 6.17491 33.5802C5.44349 33.342 4.77874 32.9342 4.2349 32.3902C3.94293 32.1042 3.71249 31.7615 3.55772 31.3832C3.40296 31.0049 3.32714 30.5989 3.33491 30.1902C3.40309 29.0347 3.58735 27.8889 3.88491 26.7702C4.24491 25.2202 4.7649 23.3702 5.4249 21.2902C6.15824 19.0168 6.94491 16.7635 7.78491 14.5302C8.59824 12.4369 9.48157 10.3535 10.4349 8.28021C10.5905 7.94571 10.8295 7.65686 11.129 7.44144C11.4284 7.22603 11.7783 7.0913 12.1449 7.0502C13.6121 6.8452 15.1036 6.8925 16.5549 7.19006C16.7306 7.22908 16.8953 7.30678 17.0371 7.41751C17.1789 7.52824 17.2943 7.66921 17.3748 7.83015C17.4552 7.99108 17.4988 8.16791 17.5023 8.3478C17.5058 8.5277 17.4691 8.70614 17.3949 8.87007C16.6082 10.6034 15.8749 12.3601 15.1949 14.14C14.6682 15.5067 14.1582 16.8801 13.6649 18.2601C13.6537 18.29 13.6517 18.3227 13.6592 18.3538C13.6667 18.385 13.6834 18.4131 13.7071 18.4346C13.7308 18.4562 13.7604 18.4701 13.7921 18.4746C13.8238 18.4791 13.8561 18.4741 13.8849 18.46C14.5423 18.1478 15.1772 17.7903 15.7849 17.39C16.8005 16.7419 17.7281 15.9656 18.5449 15.08C19.3616 14.2072 20.0365 13.2118 20.5449 12.13C21.0449 11.0489 21.301 9.87107 21.2949 8.67999C21.3507 8.04338 21.2618 7.40246 21.0349 6.80505C20.8081 6.20763 20.4491 5.66921 19.9849 5.23005C18.9118 4.4601 17.6021 4.09194 16.2849 4.19001C14.705 4.1835 13.1518 4.5977 11.7849 5.39003C10.4527 6.12951 9.25566 7.08982 8.24492 8.23004C7.30653 9.30361 6.53766 10.5142 5.96491 11.82C5.48727 12.8367 5.21539 13.9378 5.16491 15.06C5.17574 15.3615 5.08214 15.6575 4.89995 15.898C4.71775 16.1385 4.45812 16.3088 4.16491 16.38C3.57961 16.5555 2.95208 16.5272 2.38491 16.2999C1.74375 16.0241 1.19038 15.578 0.784909 15.0099C0.234311 14.2508 -0.0408436 13.3266 0.00490886 12.3899C0.0854298 11.1894 0.463459 10.0278 1.10491 9.00986C1.9328 7.59768 2.99848 6.33922 4.25491 5.28991C5.79904 3.99378 7.5412 2.95386 9.41492 2.20988C11.6673 1.31907 14.0731 0.880728 16.4949 0.919891C18.0013 0.904314 19.5045 1.06202 20.9749 1.38991C22.3811 1.70428 23.7303 2.23384 24.9749 2.95989C26.0889 3.64241 27.0464 4.5522 27.7849 5.62988C28.5358 6.70831 28.9277 7.99602 28.9049 9.30993C28.9108 10.7568 28.5678 12.1838 27.9049 13.4699C27.2334 14.7564 26.3357 15.9115 25.2549 16.8799C24.0889 17.9209 22.787 18.7989 21.3849 19.4899C20.1489 20.1095 18.8647 20.6279 17.5449 21.0399C17.5095 21.0472 17.4782 21.0679 17.4577 21.0977C17.4372 21.1275 17.4291 21.1641 17.4349 21.1998C17.4349 21.8598 17.5149 22.5098 17.5749 23.1398C17.6349 23.7698 17.7549 24.5598 17.8749 25.2298C17.9949 25.8998 18.1349 26.5198 18.3049 27.1298C18.5055 27.8602 18.7493 28.5782 19.0349 29.2798C19.2592 29.7695 19.5095 30.2469 19.7849 30.7098C20.0199 31.1416 20.2803 31.559 20.5649 31.9598C20.8249 32.3313 21.1088 32.6853 21.4149 33.0198C21.6979 33.3273 22.002 33.6146 22.3249 33.8798C22.6404 34.1317 22.9747 34.359 23.3249 34.5598C24.28 35.1398 25.3601 35.4827 26.4749 35.5598C26.8544 35.5882 27.2354 35.5882 27.6149 35.5598C28.01 35.5071 28.401 35.4269 28.7849 35.3198C29.2025 35.2231 29.6133 35.0995 30.0149 34.9498C30.6255 34.7192 31.2172 34.4417 31.7849 34.1198C32.0387 33.9748 32.337 33.9283 32.6228 33.9892C32.9087 34.0501 33.1621 34.214 33.3349 34.4498C33.5059 34.685 33.5824 34.9759 33.549 35.2648C33.5157 35.5538 33.375 35.8196 33.1549 36.0098C32.4293 36.6428 31.668 37.2337 30.8749 37.7797C30.3749 38.1297 29.8749 38.4497 29.3549 38.7798L28.5649 39.1997C28.0576 39.4544 27.5368 39.6815 27.0049 39.8798C26.5015 40.0674 25.9872 40.2243 25.4649 40.3497C24.9679 40.4698 24.4634 40.5567 23.9549 40.6098C23.4655 40.6441 22.9743 40.6441 22.4849 40.6098C21.7748 40.5785 21.0704 40.4679 20.3849 40.2798C19.7141 40.0939 19.0666 39.8322 18.4549 39.4998C18.0474 39.2782 17.6564 39.0275 17.2849 38.7498C16.9782 38.5195 16.6845 38.2724 16.4049 38.0098C16.0514 37.6973 15.7175 37.3633 15.4049 37.0098C15.0895 36.6334 14.7957 36.2395 14.5249 35.8298C14.255 35.3895 14.008 34.9356 13.7849 34.4698C13.5449 34.0098 13.3149 33.5198 13.1149 33.0198C12.9149 32.5198 12.7149 32.0198 12.5449 31.4498C12.3749 30.8798 12.2149 30.3298 12.0849 29.7598C11.9549 29.1898 11.8249 28.5598 11.7349 27.9598C11.6449 27.3598 11.5749 26.8498 11.5149 26.2898C11.5061 26.2554 11.4861 26.2249 11.458 26.2031C11.4299 26.1813 11.3954 26.1695 11.3599 26.1695C11.3244 26.1695 11.2899 26.1813 11.2618 26.2031C11.2337 26.2249 11.2137 26.2554 11.2049 26.2898" fill="#FF7175"/>
<path d="M101.225 4.44021C101.233 5.32963 100.976 6.20128 100.487 6.94411C99.9974 7.68694 99.2981 8.2673 98.4779 8.61132C97.6577 8.95535 96.7536 9.04745 95.8808 8.87586C95.0081 8.70428 94.2062 8.27681 93.5772 7.64787C92.9483 7.01893 92.5208 6.21701 92.3492 5.34426C92.1777 4.47152 92.2697 3.56745 92.6138 2.74722C92.9578 1.92699 93.5382 1.22775 94.281 0.738539C95.0238 0.249327 95.8955 -0.00772933 96.7849 0.000177051C97.3706 -0.00245524 97.9511 0.110309 98.4932 0.332016C99.0353 0.553723 99.5285 0.880061 99.9445 1.29235C100.36 1.70465 100.691 2.19483 100.918 2.73494C101.144 3.27505 101.262 3.85451 101.265 4.44021H101.225ZM79.9849 16.6002C79.8153 17.5019 79.5949 18.3933 79.3249 19.2702C79.0024 20.3303 78.6218 21.3719 78.1849 22.3902C77.7182 23.4035 77.2116 24.4035 76.6649 25.3902C76.2205 26.1853 75.7192 26.9473 75.1649 27.6702C74.7923 28.1724 74.3514 28.62 73.8549 29.0002C73.7075 29.1256 73.5269 29.2055 73.3349 29.2303H73.2649C73.2149 29.2303 73.0549 29.1003 72.9749 28.5604C72.9158 27.9218 72.9529 27.2779 73.0849 26.6504C73.2621 25.7236 73.4958 24.8085 73.7849 23.9103C74.1066 22.8532 74.4872 21.8149 74.9249 20.8003C75.3566 19.7693 75.8543 18.7673 76.4149 17.8003C76.8699 17.0112 77.3812 16.2559 77.9449 15.5403C78.3206 15.0467 78.7613 14.606 79.2549 14.2303C79.4023 14.1049 79.583 14.0249 79.7749 14.0002H79.7849C79.7849 14.0002 79.9949 14.14 80.0749 14.6702C80.1324 15.2988 80.0953 15.9325 79.9649 16.5502L79.9849 16.6002ZM59.8949 16.5502C59.7253 17.4519 59.5049 18.3433 59.2349 19.2202C58.9209 20.2969 58.547 21.3552 58.1149 22.3902C57.6483 23.4035 57.1416 24.4035 56.5949 25.3902C56.1509 26.1856 55.6496 26.9476 55.0949 27.6702C54.7203 28.159 54.2794 28.5931 53.7849 28.9602C53.6375 29.0856 53.4569 29.1656 53.2649 29.1904H53.1949C53.1949 29.1904 52.9749 29.0603 52.9049 28.5203C52.8432 27.8822 52.8769 27.2385 53.0049 26.6104C53.1717 25.7015 53.3921 24.8032 53.6649 23.9204C53.9796 22.8603 54.3535 21.8186 54.7849 20.8004C55.2134 19.7696 55.7077 18.7676 56.2649 17.8004C56.7198 17.0294 57.2276 16.2909 57.7849 15.5904C58.1616 15.0976 58.6021 14.6571 59.0949 14.2804C59.2423 14.155 59.423 14.075 59.6149 14.0502H59.6849C59.6849 14.0502 59.9049 14.1901 59.9749 14.7202C60.0355 15.3484 60.0018 15.982 59.8749 16.6002L59.8949 16.5502ZM38.1549 16.6002C38.0477 17.5069 37.8806 18.4055 37.6549 19.2902C37.3898 20.3443 37.0558 21.3799 36.6549 22.3903C36.2616 23.3969 35.8183 24.3969 35.3249 25.3902C34.9344 26.1765 34.4796 26.929 33.9649 27.6402C33.6288 28.1015 33.2318 28.5152 32.7849 28.8702C32.6491 28.9954 32.478 29.0758 32.2949 29.1004H32.2249C32.1749 29.1004 32.0049 28.9606 31.9149 28.4204C31.8352 27.7896 31.8352 27.1512 31.9149 26.5204C32.0041 25.6231 32.1612 24.7339 32.3849 23.8604C32.6498 22.8062 32.9839 21.7707 33.3849 20.7604C33.7783 19.7471 34.2216 18.7471 34.7149 17.7604C35.1124 16.9696 35.5704 16.2106 36.0849 15.4904C36.4246 14.9929 36.8357 14.5482 37.3049 14.1704C37.4411 14.0457 37.612 13.9655 37.7949 13.9402H37.7851C37.8351 13.9402 38.0251 14.0801 38.1351 14.6302C38.2301 15.26 38.2301 15.9005 38.1351 16.5302L38.1549 16.6002ZM100.135 22.3102C100.014 22.1391 99.8538 21.9997 99.6675 21.904C99.4812 21.8082 99.2746 21.7589 99.0651 21.7602C98.8689 21.7601 98.6755 21.8073 98.5014 21.8978C98.3274 21.9883 98.1777 22.1195 98.0651 22.2802C97.8051 22.6602 97.4751 23.1102 97.0651 23.6202C96.6698 24.1843 96.2424 24.7252 95.7851 25.2402C95.3591 25.6951 94.9049 26.1226 94.4251 26.5203C94.1825 26.7631 93.8657 26.918 93.5251 26.9602C93.4151 26.9602 93.1951 26.9602 93.1451 26.4002C93.1141 25.638 93.2018 24.8755 93.4051 24.1402C93.6754 23.0876 94.0093 22.0524 94.4051 21.0402C95.1584 19.0402 95.9718 17.0769 96.8451 15.1502C97.1751 14.4102 97.3851 13.9302 97.4751 13.7202C97.6071 13.437 97.6509 13.1207 97.601 12.8122C97.5511 12.5037 97.4097 12.2174 97.1951 11.9902C96.7559 11.4963 96.177 11.1476 95.5351 10.9903C94.8286 10.8197 94.0916 10.8197 93.3851 10.9903C92.9893 11.0775 92.6163 11.2472 92.2907 11.4885C91.965 11.7297 91.6939 12.037 91.4951 12.3902C90.9207 13.361 90.3999 14.3625 89.9351 15.3902C89.2684 16.8702 88.6618 18.3769 88.1151 19.9102C87.7651 20.9102 87.4451 21.9102 87.1151 22.9102C86.6286 24.5992 85.6334 26.0971 84.2651 27.2002C83.7912 27.5985 83.2972 27.9724 82.7851 28.3202C82.5518 28.4737 82.3118 28.617 82.0651 28.7502C82.0489 28.7586 82.0303 28.7613 82.0124 28.7577C81.9945 28.7541 81.9783 28.7445 81.9667 28.7304C81.955 28.7164 81.9484 28.6988 81.9482 28.6805C81.9479 28.6623 81.9539 28.6444 81.9651 28.63C82.3784 28.09 82.7851 27.5067 83.1851 26.8801C84.0816 25.4414 84.8256 23.9131 85.4051 22.3201C86.0354 20.7116 86.4686 19.0327 86.6951 17.3201C86.8705 16.0094 86.8061 14.6777 86.5051 13.3901C86.2832 12.3902 85.7596 11.4826 85.0051 10.79C84.263 10.1354 83.3046 9.77918 82.3151 9.79006C81.1121 9.788 79.9344 10.1354 78.9251 10.79C78.2495 11.2191 77.6137 11.7077 77.0251 12.25C77.0251 12.25 76.9351 12.25 76.9051 12.25C76.7632 12.0335 76.5877 11.8411 76.3851 11.6801C75.8784 11.2703 75.2765 10.9951 74.6351 10.88C73.9672 10.7592 73.2797 10.8072 72.6351 11.0199C72.2857 11.1331 71.9642 11.3191 71.6919 11.5656C71.4195 11.8121 71.2025 12.1135 71.0551 12.4499C70.3284 14.0232 69.6618 15.6166 69.0551 17.2299C68.2084 19.2966 67.4518 21.3698 66.7851 23.4498C66.2213 25.085 65.1753 26.5109 63.7851 27.5399C63.4251 27.8097 63.0551 28.0799 62.6651 28.3199C62.4318 28.4733 62.1918 28.6167 61.9451 28.7499C61.9289 28.7583 61.9103 28.761 61.8924 28.7574C61.8745 28.7538 61.8583 28.7441 61.8467 28.7301C61.835 28.716 61.8284 28.6985 61.8282 28.6802C61.8279 28.6619 61.8339 28.6441 61.8451 28.6297C62.2784 28.063 62.6851 27.4797 63.0651 26.8797C63.9616 25.441 64.7056 23.9128 65.2851 22.3197C65.9154 20.7113 66.3486 19.0324 66.5751 17.3197C66.7668 16.012 66.7194 14.6804 66.4351 13.3897C66.2132 12.3899 65.6896 11.4823 64.9351 10.7897C64.193 10.1351 63.2346 9.77883 62.2451 9.78972C61.0422 9.78823 59.8646 10.1356 58.8551 10.7897C58.1797 11.2191 57.5439 11.7077 56.9551 12.2497C56.9551 12.2497 56.8651 12.2497 56.8351 12.2497C56.6932 12.0332 56.5177 11.8408 56.3151 11.6797C55.8086 11.2696 55.2066 10.9944 54.5651 10.8797C53.8972 10.7588 53.2097 10.8069 52.5651 11.0196C52.2138 11.1316 51.8904 11.317 51.6163 11.5635C51.3421 11.8101 51.1236 12.1121 50.9751 12.4496C50.2484 14.0229 49.5818 15.6162 48.9751 17.2296C48.3084 18.9496 47.6751 20.6829 47.0751 22.4295C46.6467 23.7209 45.9045 24.8857 44.9151 25.8195C44.6551 26.0694 44.3951 26.2995 44.1451 26.5095C43.9025 26.7524 43.5857 26.9073 43.2451 26.9496C43.1251 26.9496 42.9151 26.9496 42.8651 26.3896C42.8338 25.6273 42.9215 24.8648 43.1251 24.1296C43.3945 23.0767 43.7285 22.0414 44.1251 21.0295C44.5551 19.8995 44.9851 18.8195 45.4151 17.7995C45.8451 16.7795 46.2351 15.8796 46.5651 15.1396C46.7851 14.6662 46.9917 14.1896 47.1851 13.7096C47.3184 13.4266 47.363 13.1099 47.3131 12.8012C47.2631 12.4924 47.1209 12.206 46.9051 11.9795C46.4575 11.4809 45.8676 11.1318 45.2151 10.9795C44.5086 10.8089 43.7716 10.8089 43.0651 10.9795C42.6731 11.0663 42.3034 11.2339 41.9797 11.4715C41.656 11.7091 41.3854 12.0115 41.1851 12.3595L40.8951 12.8495C40.8894 12.8648 40.8792 12.8781 40.8658 12.8874C40.8524 12.8967 40.8364 12.9017 40.8201 12.9017C40.8038 12.9017 40.7878 12.8967 40.7744 12.8874C40.761 12.8781 40.7508 12.8648 40.7451 12.8495C40.6597 12.4516 40.5183 12.0678 40.3251 11.7096C40.0213 11.1551 39.5672 10.6975 39.0151 10.3896C38.3695 10.0361 37.6406 9.86334 36.9051 9.88954C34.6374 9.99737 32.4942 10.9582 30.9051 12.5796C28.9551 14.3295 27.3451 17.1296 26.1051 20.8996C25.5685 22.5191 25.2327 24.1983 25.1051 25.8995C24.9932 27.2046 25.1186 28.5191 25.4751 29.7795C25.7577 30.7786 26.3281 31.6724 27.1151 32.3496C27.8761 32.9988 28.8448 33.3536 29.8451 33.3495C30.5968 33.3524 31.3425 33.2168 32.0451 32.9495C32.6948 32.6946 33.3097 32.3587 33.8751 31.9495C34.2957 31.6537 34.6874 31.319 35.0451 30.9496C35.1028 30.888 35.1757 30.8427 35.2564 30.8183C35.3372 30.7939 35.4229 30.7911 35.5051 30.8104C35.5872 30.8297 35.6628 30.8703 35.7242 30.9281C35.7857 30.9859 35.8308 31.0588 35.8551 31.1396C35.9679 31.4954 36.133 31.8325 36.3451 32.1397C36.6224 32.5197 36.9919 32.8229 37.4188 33.0206C37.8457 33.2183 38.3159 33.304 38.7851 33.2697C40.1145 33.2288 41.395 32.7587 42.4351 31.9297C43.0084 31.5089 43.5591 31.0582 44.0851 30.5797C44.1108 30.5574 44.143 30.5438 44.1769 30.5411C44.2108 30.5383 44.2447 30.5464 44.2737 30.5643C44.3027 30.5821 44.3253 30.6087 44.3381 30.6402C44.3509 30.6717 44.3534 30.7065 44.3451 30.7395C44.0351 31.7395 43.7551 32.7395 43.5051 33.5995C43.0851 35.0895 42.7851 36.3895 42.4851 37.3895C42.2907 38.042 42.1601 38.7118 42.0951 39.3895C42.0724 40.1918 42.3588 40.9723 42.8951 41.5695C43.3794 42.1113 43.9912 42.5237 44.6751 42.7695C45.0824 42.9173 45.5118 42.9952 45.9451 42.9997C46.1637 43.0001 46.3816 42.9766 46.5951 42.9297C46.9157 42.8704 47.2096 42.7122 47.4356 42.4772C47.6616 42.2422 47.8083 41.9424 47.8551 41.6197C47.9251 41.1497 48.0551 40.5197 48.2551 39.7297C48.4551 38.9397 48.6951 37.9898 48.9751 36.9798C49.2551 35.9697 49.5651 34.8497 49.9751 33.5498C50.1484 32.9498 50.3318 32.3197 50.5251 31.6597C50.538 31.6321 50.5584 31.6088 50.5841 31.5924C50.6098 31.5761 50.6396 31.5673 50.6701 31.5673C50.7005 31.5673 50.7304 31.5761 50.7561 31.5924C50.7817 31.6088 50.8022 31.6321 50.8151 31.6597C50.9029 31.8121 50.9997 31.959 51.1051 32.0997C51.4519 32.5162 51.8935 32.8433 52.3929 33.0539C52.8923 33.2644 53.4348 33.3521 53.9751 33.3097H54.7551C56.5821 33.3151 58.3938 32.9758 60.0951 32.3097C61.5899 31.7301 63.0154 30.9855 64.3451 30.0897C64.3726 30.0721 64.4048 30.0633 64.4374 30.0644C64.47 30.0656 64.5015 30.0767 64.5276 30.0963C64.5538 30.1158 64.5733 30.143 64.5835 30.1739C64.5938 30.2049 64.5944 30.2383 64.5851 30.2696C64.2451 31.3763 63.9118 32.483 63.5851 33.5897C63.2184 34.863 62.8851 36.1397 62.5851 37.4197C62.3911 38.0722 62.2604 38.742 62.1951 39.4196C62.1724 40.222 62.4588 41.0025 62.9951 41.5997C63.4851 42.1325 64.1004 42.5347 64.7851 42.7696C65.1893 42.9164 65.6152 42.9942 66.0451 42.9998C66.267 43.001 66.4884 42.9776 66.7051 42.9299C67.0238 42.8687 67.3156 42.7096 67.5396 42.4748C67.7637 42.24 67.9089 41.9411 67.9551 41.6199C68.0251 41.1499 68.1551 40.5199 68.3551 39.7299C68.5551 38.9399 68.7951 37.9899 69.0751 36.9799C69.3551 35.9699 69.6751 34.8499 70.0751 33.5499C70.2484 32.9499 70.4318 32.3199 70.6251 31.6599C70.638 31.6323 70.6585 31.6089 70.6841 31.5925C70.7098 31.5762 70.7397 31.5675 70.7701 31.5675C70.8006 31.5675 70.8304 31.5762 70.8561 31.5925C70.8817 31.6089 70.9022 31.6323 70.9151 31.6599C71.0029 31.8122 71.0997 31.9591 71.2051 32.0999C71.5514 32.5169 71.9929 32.8446 72.4924 33.0552C72.9919 33.2658 73.5347 33.3532 74.0751 33.3099H74.8551C76.6821 33.315 78.4937 32.9757 80.1951 32.3098C81.9397 31.6369 83.5874 30.7358 85.0951 29.6299L85.7851 29.0898C85.809 29.0707 85.8378 29.0588 85.8682 29.0556C85.8987 29.0523 85.9294 29.0579 85.9568 29.0716C85.9841 29.0853 86.007 29.1065 86.0226 29.1328C86.0383 29.1591 86.0461 29.1893 86.0451 29.2199V29.39C85.9985 30.3542 86.2461 31.3098 86.7551 32.13C87.0324 32.51 87.4019 32.8132 87.8288 33.0109C88.2557 33.2086 88.7259 33.2943 89.1951 33.26C90.501 33.2011 91.756 32.7361 92.7851 31.93C93.9796 31.0502 95.0759 30.0444 96.0551 28.93C96.9894 27.8946 97.8547 26.7989 98.6451 25.6499C99.1584 24.9033 99.6618 24.1466 100.155 23.3799C100.256 23.2199 100.31 23.0344 100.31 22.8449C100.31 22.6555 100.256 22.47 100.155 22.31" fill="#FF7175"/>
</svg>
