<svg width="53" height="60" viewBox="0 0 53 60" fill="none" xmlns="http://www.w3.org/2000/svg">
<path d="M45.9998 30.3503C45.9998 35.1275 42.0402 39 37.1556 39H15.8442C10.9596 39 7 35.1275 7 30.3503V9.64968C7 4.87264 10.9596 1 15.8442 1H37.1558C42.0404 1 46 4.87264 46 9.64968V30.3503H45.9998Z" fill="#EEE312"/>
<path fill-rule="evenodd" clip-rule="evenodd" d="M16.0239 0.677195C11.4034 0.677195 7.65783 4.53305 7.65783 9.28938V30.7106C7.65783 35.4671 11.4034 39.3228 16.0239 39.3228H36.9759C41.5964 39.3228 45.342 35.4671 45.342 30.7106C45.342 30.7067 45.342 30.7028 45.3422 30.699V9.28938C45.3422 4.53305 41.5966 0.677195 36.9761 0.677195H16.0239ZM45.9998 30.7225C45.9999 30.7185 46 30.7146 46 30.7106V9.28938C46 4.15904 41.9599 0 36.9761 0H16.0239C11.0401 0 7 4.15904 7 9.28938V30.7106C7 35.8412 11.0401 40 16.0239 40H36.9759C41.9559 40 45.9936 35.8476 45.9998 30.7225Z" fill="#1A1A1A"/>
<path d="M26.4831 34C29.0256 34 30.9281 31.9564 30.9281 31.9564C31.0952 31.8039 31.2853 31.658 31.2853 31.658C32.8075 30.5666 35.275 31.3533 35.275 31.3533C36.1716 31.5851 36.1975 30.8458 36.1975 30.8458L36.2667 30.0081C36.3322 29.1867 37.4888 29.1955 37.4888 29.1955C39.0119 29.1304 39.6531 28.4496 39.9172 27.9693C40.2007 27.5087 39.6649 27.3785 39.6649 27.3785C35.9896 26.2585 34.2064 22.4509 34.2064 22.4509C33.3761 20.8602 34.5139 20.2168 34.5139 20.2168C34.8215 19.9799 36.328 19.4383 36.328 19.4383C37.5712 18.8941 37.1582 17.9491 37.1582 17.9491C36.697 16.9334 35.6209 17.6106 35.6209 17.6106C35.1121 17.9053 34.7292 17.8812 34.7292 17.8812C33.8793 17.8989 33.7771 17.7002 33.7771 17.7002L33.8063 13.2947C33.8063 9.26594 30.5507 6 26.5347 6H26.4651C22.4489 6 19.1935 9.26594 19.1935 13.2947L19.2227 17.7002C19.2227 17.7002 19.1205 17.8989 18.2706 17.8812C18.2706 17.8812 17.8877 17.9053 17.3789 17.6106C17.3789 17.6106 16.3029 16.9336 15.8416 17.9491C15.8416 17.9491 15.4282 18.8941 16.6718 19.4383C16.6718 19.4383 18.1785 19.9799 18.4859 20.2168C18.4859 20.2168 19.6237 20.86 18.7934 22.4509C18.7934 22.4509 17.0106 26.2585 13.335 27.3785C13.335 27.3785 12.7991 27.5085 13.0829 27.9693C13.3471 28.4496 13.9885 29.1304 15.511 29.1955C15.511 29.1955 16.6678 29.1867 16.7333 30.0081L16.8026 30.8458C16.8026 30.8458 16.8285 31.5851 17.725 31.3533C17.725 31.3533 20.1925 30.5666 21.7145 31.658C21.7145 31.658 21.9047 31.8039 22.072 31.9564C22.072 31.9564 23.9746 34 26.517 34H26.4831Z" fill="white"/>
<path d="M0.0205568 54.608C0.561823 54.9028 1.78222 55.3509 2.64051 55.3509C3.56482 55.3509 4.05328 54.9438 4.05328 54.3264C4.05328 53.7368 3.63082 53.4 2.56149 52.993C1.08253 52.4456 0.118815 51.5754 0.118815 50.2C0.118815 48.586 1.38636 47.3509 3.48579 47.3509C4.48912 47.3509 5.2286 47.5754 5.75685 47.828L5.77288 49.72C5.41644 49.5375 4.3175 49.1053 3.44619 49.1053C2.57469 49.1053 2.15224 49.5263 2.15224 50.0175C2.15224 50.6208 2.65409 50.8875 3.80263 51.3507C5.374 51.9683 6.11348 52.8385 6.11348 54.1717C6.11348 55.7577 4.96457 57.1191 2.52208 57.1191C1.50517 57.1191 0.501662 56.8244 0 56.5296L0.0205568 54.608ZM23.3861 50.2109V51.2751C23.7588 50.5255 24.2966 50.0908 25.4567 50.0908C26.8393 50.0908 27.9269 51.2526 27.9269 53.442C27.9269 55.9402 26.5509 57.1191 25.1425 57.1191C24.3802 57.1191 23.7859 56.7822 23.5017 56.3331L23.3586 56.1322V60H21.5119V50.2256L23.3861 50.2109ZM23.3512 54.0668C23.3512 54.2418 23.3646 54.4022 23.3916 54.5329C23.5257 55.1304 23.9953 55.5819 24.5858 55.5819C25.4712 55.5819 25.9946 54.7807 25.9946 53.5713C25.9946 52.435 25.5252 51.5752 24.6125 51.5752C24.0354 51.5752 23.5257 52.0414 23.3916 52.6974C23.3646 52.8139 23.3512 52.9596 23.3512 53.0907V54.0668ZM33.9272 56.8069C33.5783 56.9753 32.9194 57.1298 32.1701 57.1298C30.1286 57.1298 28.8235 55.8202 28.8235 53.659C28.8235 51.6518 30.0897 50.0943 32.4415 50.0943C32.9582 50.0943 33.5268 50.1924 33.9402 50.361L33.9301 51.9951C33.5572 51.7553 33.0486 51.652 32.5318 51.652C31.3631 51.652 30.7289 52.452 30.7421 53.575C30.7421 54.8381 31.3906 55.4977 32.5705 55.4977C33.0357 55.4977 33.6191 55.254 33.9163 55.1134L33.9272 56.8069ZM38.8901 50.0912C40.4552 50.0912 41.1168 50.8824 41.0997 52.9508V56.9649H39.1796V53.1894C39.1796 52.2912 38.8514 51.6737 38.1148 51.6737C37.598 51.6737 37.2271 52.0386 37.0849 52.4176C37.0332 52.5581 37.0202 52.7404 37.0202 52.8949V56.9649H35.1791V47H37.0375V51.2204C37.6361 50.0228 38.8901 50.0912 38.8901 50.0912V50.0912ZM51.5916 48.2353V50.2412H53V51.7866H51.5916V54.3088C51.5916 55.2052 51.7289 55.5158 52.3667 55.5158C52.6381 55.5158 52.7545 55.5018 52.9481 55.4598L52.9612 56.9233C52.7028 57.0356 52.2375 57.1198 51.6819 57.1198C51.049 57.1198 50.5775 56.8672 50.2673 56.5163C49.9055 56.1092 49.7247 55.4496 49.7247 54.481V51.787H48.7689V50.2416H49.7247V48.8111L51.5916 48.2353ZM11.0641 49.9474C10.1396 49.9474 9.52139 50.4401 9.20002 50.8549V50.0755H7.25278V51.8284C7.25014 51.9788 7.24845 52.132 7.24845 52.2914V56.9649H7.25278V56.9719L7.2558 56.9649H9.25528V53.0071C9.25528 52.8107 9.28187 52.6142 9.33449 52.4737C9.46651 52.0808 9.79674 51.6737 10.3512 51.6737C11.0775 51.6737 11.3679 52.2772 11.3679 53.1616V56.9649H13.3749V52.8949C13.3746 50.8738 12.5872 49.9474 11.0641 49.9474V49.9474ZM19.9509 56.9721V52.9088C19.9509 51.2948 19.2891 49.9474 17.183 49.9474C16.1499 49.9474 15.3492 50.2189 14.878 50.4676V52.1004C15.3058 51.8231 16.2039 51.4799 16.834 51.4799C17.8031 51.4799 18.01 52.1971 18.01 52.562V52.6601C15.7746 52.6462 14.2757 53.2314 14.2757 55.0139C14.2757 56.1086 15.038 57.1191 16.317 57.1191C17.0665 57.1191 17.7124 56.8244 18.126 56.277H18.1649L18.1507 56.9647H19.6133L19.9509 56.9721ZM17.9872 54.5462C17.9872 54.672 17.9738 54.7971 17.9474 54.9086C17.8145 55.3404 17.4024 55.6889 16.8969 55.6889C16.4451 55.6889 16.0994 55.4242 16.0994 54.8809C16.0994 54.059 16.9235 53.7944 17.9872 53.8085V54.5462ZM47.8157 56.9721V52.9088C47.8157 51.2948 47.1539 49.9474 45.0479 49.9474C44.0148 49.9474 43.214 50.2189 42.7429 50.4676V52.1004C43.1706 51.8231 44.0687 51.4799 44.6988 51.4799C45.668 51.4799 45.8749 52.1971 45.8749 52.562V52.6601C43.6395 52.6462 42.1405 53.2314 42.1405 55.0139C42.1405 56.1086 42.9028 57.1191 44.1819 57.1191C44.9314 57.1191 45.5773 56.8244 45.9909 56.277H46.0297L46.0156 56.9647H47.4781L47.8157 56.9721ZM45.8521 54.5462C45.8521 54.672 45.8387 54.7971 45.8123 54.9086C45.6793 55.3404 45.2672 55.6889 44.7618 55.6889C44.3099 55.6889 43.9642 55.4242 43.9642 54.8809C43.9642 54.059 44.7884 53.7944 45.8521 53.8085V54.5462Z" fill="#1A1A1A"/>
</svg>
