<svg width="144" height="41" viewBox="0 0 144 41" fill="none" xmlns="http://www.w3.org/2000/svg">
<path d="M51.5646 34.7605C46.7453 38.3456 39.74 40.2566 33.7121 40.2612C25.2631 40.2679 17.6588 37.1399 11.8945 31.9143C11.4415 31.5056 11.847 30.9445 12.3906 31.2646C18.6048 34.8875 26.2828 37.0727 34.2184 37.0665C39.569 37.0624 45.4552 35.9377 50.8642 33.6291C51.6815 33.28 52.367 34.1715 51.5646 34.7605Z" fill="#F68D11"/>
<path d="M53.5793 32.4532C52.9573 31.6656 49.4929 32.0834 47.9382 32.2735C47.4622 32.3297 47.3901 31.915 47.816 31.6178C50.5816 29.6641 55.1091 30.2225 55.6363 30.8767C56.1641 31.5319 55.5005 36.0941 52.9107 38.2776C52.5112 38.6113 52.1357 38.426 52.3103 37.9931C52.8912 36.5278 54.1979 33.2497 53.5793 32.4532Z" fill="#F68D11"/>
<path d="M48.0345 17.8351L48.0331 15.94C48.0328 15.6535 48.2511 15.4574 48.5095 15.4573L56.9661 15.4507C57.2364 15.4504 57.4528 15.6511 57.4529 15.9325L57.4542 17.5535C57.4545 17.8279 57.2249 18.1819 56.8161 18.7476L52.4454 25.0343C54.0743 24.9934 55.7886 25.2385 57.2653 26.0756C57.6023 26.2592 57.6953 26.541 57.7158 26.8151L57.7174 28.8345C57.7175 29.1151 57.4153 29.4331 57.0951 29.2665C54.4952 27.9005 51.0386 27.75 48.1607 29.2902C47.8683 29.4478 47.5609 29.1351 47.5607 28.8529L47.5592 26.928C47.5589 26.6206 47.5633 26.0989 47.8716 25.6273L52.9405 18.3091L48.5227 18.3126C48.2532 18.3129 48.0348 18.121 48.0345 17.8351Z" fill="black"/>
<path d="M17.203 29.6969L14.6287 29.6989C14.3861 29.6862 14.1888 29.5016 14.1672 29.267L14.1613 16.0017C14.161 15.7373 14.3781 15.5236 14.6551 15.5234L17.0507 15.5216C17.3044 15.5336 17.5063 15.7227 17.5177 15.9643L17.5192 17.6955H17.57C18.1915 16.0198 19.369 15.2384 20.9509 15.2371C22.5623 15.236 23.5717 16.0158 24.2917 17.6903C24.9142 16.0147 26.332 15.2329 27.8432 15.2319C28.9263 15.2311 30.1047 15.6733 30.8242 16.6821C31.6373 17.7993 31.4765 19.4141 31.4777 20.8362L31.4768 29.2085C31.477 29.4768 31.2616 29.6861 30.9832 29.6864L28.4126 29.6885C28.1563 29.6713 27.9541 29.4674 27.9539 29.2112L27.9485 22.1836C27.948 21.6215 27.9927 20.228 27.8734 19.6964C27.6784 18.8052 27.1052 18.5536 26.3585 18.5542C25.7348 18.5548 25.0834 18.9759 24.8218 19.644C24.5586 20.3126 24.5871 21.4275 24.5875 22.1865L24.5932 29.2141C24.5933 29.4823 24.3671 29.6916 24.0936 29.6918L21.5246 29.6941C21.2645 29.6769 21.0618 29.473 21.0616 29.2167L21.0524 22.1892C21.0513 20.7059 21.2907 18.5305 19.466 18.5319C17.6214 18.5332 17.6906 20.6515 17.6918 22.1916L17.6972 29.2195C17.6971 29.4874 17.4787 29.6967 17.203 29.6969Z" fill="black"/>
<path d="M64.7328 15.2022C68.5479 15.1991 70.617 18.4919 70.6202 22.6747C70.6233 26.7249 68.3468 29.9356 64.7441 29.9385C61.0026 29.9414 58.9565 26.6511 58.9532 22.5493C58.9502 18.415 61.0106 15.205 64.7328 15.2022ZM64.7578 17.9066C62.8593 17.9081 62.7447 20.5045 62.7459 22.1279C62.7472 23.7425 62.7277 27.2099 64.7423 27.2087C66.7329 27.2068 66.8275 24.412 66.8263 22.7087C66.8255 21.5902 66.7781 20.2513 66.4427 19.1897C66.1496 18.2706 65.5774 17.9059 64.7578 17.9066Z" fill="black"/>
<path d="M75.5792 29.6517L73.0157 29.6537C72.7568 29.6366 72.5532 29.4328 72.553 29.1766L72.5384 15.9087C72.5609 15.6694 72.7734 15.4784 73.0324 15.4783L75.4172 15.4764C75.6416 15.4883 75.8271 15.638 75.8763 15.8447L75.878 17.8743H75.9244C76.6451 16.0571 77.6494 15.1932 79.4296 15.1919C80.5797 15.191 81.7142 15.6065 82.4319 16.7467C83.1069 17.8129 83.1084 19.5985 83.1094 20.882L83.1159 29.2292C83.0876 29.4665 82.8744 29.6459 82.6196 29.6465L80.0409 29.6485C79.8016 29.6356 79.6153 29.4555 79.5855 29.2322L79.5797 22.029C79.5787 20.5759 79.7467 18.4549 77.9676 18.4562C77.3422 18.4566 76.766 18.8781 76.4805 19.5178C76.1212 20.3286 76.0735 21.1386 76.0743 22.0316L76.0799 29.1736C76.0728 29.4418 75.8533 29.6514 75.5792 29.6517Z" fill="black"/>
<path d="M45.8815 27.2426C45.4089 26.592 44.9106 26.0628 44.9098 24.8475L44.9062 20.8231C44.9047 19.1163 45.0293 17.5503 43.7753 16.374C42.7867 15.4257 41.147 15.0909 39.8959 15.0918C37.4505 15.094 34.7176 16.0174 34.1485 19.0484C34.0835 19.3778 34.3224 19.5459 34.5347 19.5967L37.0252 19.8621C37.2567 19.8496 37.4306 19.6203 37.4705 19.3853C37.6881 18.3425 38.5557 17.8363 39.5392 17.8354C40.0655 17.8347 40.6657 18.0307 40.9819 18.5039C41.3476 19.0352 41.296 19.7655 41.2967 20.3765V20.7117C39.8052 20.8821 37.8575 20.9941 36.4612 21.6139C34.8503 22.3161 33.7179 23.7429 33.7193 25.8386C33.7216 28.5271 35.4047 29.866 37.5713 29.8646C39.4034 29.8631 40.4016 29.4284 41.8142 27.981C42.2793 28.6605 42.4378 28.9906 43.2901 29.7017C43.4819 29.8093 43.7288 29.7991 43.8961 29.6405L43.9013 29.6471C44.4181 29.1911 45.3484 28.3717 45.8771 27.9279C46.0835 27.7583 46.0415 27.4784 45.8815 27.2426ZM40.8189 26.0878C40.4098 26.8144 39.7661 27.2617 39.0435 27.2626C38.0527 27.2633 37.4761 26.5101 37.4754 25.3854C37.4731 23.1917 39.4357 22.7827 41.2988 22.7811V23.3434C41.2996 24.3537 41.324 25.191 40.8189 26.0878Z" fill="black"/>
<path d="M12.1616 27.2687C11.6875 26.6185 11.1898 26.0888 11.1892 24.8735L11.1862 20.8491C11.1847 19.1423 11.3019 17.5763 10.0471 16.4002C9.06582 15.4525 7.42689 15.1172 6.17509 15.1187C3.7275 15.1201 0.997441 16.0434 0.425314 19.0753C0.366287 19.4047 0.600808 19.5728 0.807258 19.6236L3.3051 19.8881C3.5366 19.8755 3.70533 19.6463 3.74967 19.412C3.96044 18.3685 4.83562 17.8623 5.81834 17.8615C6.34627 17.8615 6.94776 18.0576 7.26046 18.53C7.6224 19.0613 7.57748 19.7916 7.57748 20.4033L7.5782 20.7386C6.08454 20.9081 4.1368 21.0209 2.74031 21.64C1.13176 22.3423 -0.00140779 23.769 3.18878e-05 25.8656C0.0021914 28.5531 1.68906 29.8927 3.85073 29.8914C5.68503 29.89 6.68099 29.4552 8.09202 28.0078C8.5602 28.6865 8.71065 29.0175 9.56956 29.7285C9.76276 29.8362 10.0097 29.8258 10.1762 29.6666L10.1829 29.6733C10.6924 29.2171 11.6302 28.3977 12.1564 27.9547C12.3643 27.7852 12.3237 27.5044 12.1616 27.2687ZM7.10181 26.1147C6.69107 26.8413 6.04091 27.2878 5.31992 27.2886C4.33288 27.2893 3.75557 26.5368 3.75413 25.4116C3.75269 23.2177 5.71439 22.8094 7.57964 22.808L7.58036 23.3702C7.58108 24.3806 7.60239 25.2177 7.10181 26.1147Z" fill="black"/>
<path d="M99.4861 11.8742L87.2022 11.8836L87.2005 9.72483L99.4841 9.71533L99.4861 11.8742Z" fill="#F68D11"/>
<path d="M99.4832 8.63562L87.1995 8.64512L87.1981 6.4862L99.4822 6.47656L99.4832 8.63562Z" fill="#F68D11"/>
<path d="M99.4813 5.39719L87.1972 5.40669L87.1955 3.24792L99.4793 3.23828L99.4813 5.39719Z" fill="#F68D11"/>
<path d="M99.4782 2.15891L87.1946 2.16841L87.1929 0.0093544L99.4773 0L99.4782 2.15891Z" fill="#F68D11"/>
<path d="M112.834 11.8634L100.551 11.873L100.549 9.71394L112.833 9.70459L112.834 11.8634Z" fill="#F68D11"/>
<path d="M112.832 8.62522L100.548 8.63486L100.547 6.47581L112.83 6.46631L112.832 8.62522Z" fill="#F68D11"/>
<path d="M126.199 11.8534L113.914 11.8629L113.912 9.70383L126.197 9.69434L126.199 11.8534Z" fill="#F68D11"/>
<path d="M126.196 8.61497L113.911 8.62461L113.91 6.46555L126.194 6.45605L126.196 8.61497Z" fill="#F68D11"/>
<path d="M126.194 5.3762L113.91 5.38555L113.908 3.22678L126.192 3.21729L126.194 5.3762Z" fill="#F68D11"/>
<path d="M118.225 26.8899C118.254 26.8329 118.343 26.7744 118.401 26.7739C118.458 26.7739 118.546 26.8034 118.634 26.8326C119.919 27.4663 121.205 27.8122 122.198 27.8115C123.601 27.8104 124.534 26.9722 124.533 25.7315C124.532 24.7504 124.034 24.1741 122.662 23.5415C120.704 22.6475 120.09 22.3309 119.388 21.7534C118.483 21.0317 118.044 20.1383 118.043 19.0128C118.041 16.6756 119.88 14.9999 122.48 14.998C123.999 14.9969 126.248 15.7174 126.248 16.2082C126.248 16.265 126.248 16.265 126.191 16.4094L125.666 17.4782C125.607 17.5651 125.49 17.6511 125.403 17.6513C125.345 17.6513 125.285 17.6226 125.169 17.5937C124.058 17.0749 123.212 16.8454 122.423 16.8461C121.021 16.8473 120.204 17.5693 120.205 18.7802C120.205 19.3287 120.41 19.847 120.79 20.1944C121.2 20.5686 121.2 20.5686 123.857 21.8363C126.02 22.873 126.779 23.8245 126.78 25.5566C126.782 28.0098 124.915 29.6563 122.141 29.6586C120.681 29.6599 119.015 29.2277 117.819 28.5354C117.672 28.4487 117.642 28.3919 117.642 28.2766C117.642 28.2192 117.642 28.2192 117.672 28.1598L118.225 26.8899Z" fill="black"/>
<path d="M129.24 15.9905C129.239 15.6984 129.259 15.6399 129.551 15.6396H131.098C131.361 15.6394 131.42 15.6968 131.42 15.9889V29.145C131.42 29.4383 131.195 29.6506 130.932 29.6506L129.698 29.6516C129.435 29.6517 129.24 29.4236 129.24 29.1298V15.9905" fill="black"/>
<path d="M143.329 18.1749C143.241 18.3208 143.183 18.3793 143.096 18.3797C143.036 18.3797 142.95 18.3496 142.862 18.2636C141.43 17.2135 140.846 16.9503 139.852 16.951C137.516 16.9528 136.321 18.7934 136.323 22.3829C136.327 26.033 137.408 27.8427 139.569 27.8412C140.737 27.8404 141.35 27.5759 143.014 26.4069C143.102 26.3486 143.159 26.3187 143.218 26.3187C143.307 26.3187 143.364 26.3781 143.424 26.4961L143.861 27.6041C143.89 27.6907 143.95 27.8657 143.95 27.8949C143.95 28.0416 143.803 28.2157 143.483 28.451C142.288 29.3267 140.827 29.8239 139.395 29.8252C135.921 29.8278 133.875 27.1738 133.871 22.736C133.868 17.9484 136.113 14.9981 139.793 14.9951C141.048 14.9943 142.277 15.3729 143.356 16.1323C143.825 16.4519 144 16.6558 144 16.861L143.971 17.0362L143.329 18.1749Z" fill="black"/>
<path d="M103.055 19.6925C103.053 18.0389 103.051 15.2315 99.2965 15.2344C97.8311 15.2355 96.5547 16.2327 95.9167 17.4674C95.4619 15.867 94.4769 15.2383 92.8255 15.2394C91.4717 15.2403 90.0211 15.9486 89.4088 17.1822L89.4081 16.0436C89.4078 15.789 89.2066 15.5854 88.9464 15.5711L87.649 15.5721C87.3914 15.5721 87.1788 15.7606 87.1572 16.0005V29.1908C87.1573 29.4463 87.3744 29.6487 87.634 29.6654L88.9322 29.6642C89.1903 29.6641 89.4029 29.4743 89.4238 29.2349L89.4166 19.9654C89.4149 17.76 91.0427 17.1299 92.0807 17.1292C93.6501 17.1278 93.9373 18.4074 93.9871 19.4512V29.2846C93.9871 29.5359 94.2467 29.6642 94.5083 29.6796L95.764 29.6786C96.0211 29.6782 96.2227 29.4835 96.244 29.2846V19.8976C96.2745 17.7489 97.8695 17.1248 98.8985 17.124C100.501 17.1227 100.767 18.4582 100.809 19.5144L100.817 29.2729C100.817 29.4619 100.987 29.6113 101.206 29.6507L101.203 29.6661L102.571 29.6649C102.829 29.6648 103.042 29.5079 103.062 29.3079L103.06 26.662L103.055 19.6925Z" fill="black"/>
<path d="M105.997 27.578C106.27 28.3112 107.329 29.8088 109.466 29.807C111.468 29.8051 112.633 29.0976 113.234 27.8629L113.235 29.0012C113.235 29.2561 113.433 29.4609 113.688 29.4751L114.965 29.4741C115.219 29.4741 115.417 29.2849 115.439 29.0454V15.8555C115.439 15.599 115.236 15.3965 114.979 15.3804L113.702 15.3814C113.45 15.3817 113.256 15.5707 113.235 15.8107V25.0796C113.236 27.2847 111.171 27.9102 109.77 27.9167C108.226 27.9235 107.945 26.6385 107.895 25.5937L107.887 15.7612C107.841 15.5488 107.638 15.3811 107.383 15.3672L106.146 15.3681C105.894 15.3683 105.688 15.5261 105.666 15.7248V25.1485C105.666 25.1488 105.724 26.8476 105.997 27.578Z" fill="black"/>
<path d="M131.093 9.77197L129.546 9.77298C129.255 9.77327 129.225 9.82565 129.226 10.0883V10.3149L129.226 11.4328V11.6477C129.226 11.9102 129.285 11.9628 129.548 11.9625L131.096 11.9615C131.387 11.9613 131.417 11.9086 131.417 11.6461L131.416 11.4189L131.415 10.3026V10.0867C131.416 9.82407 131.357 9.77169 131.093 9.77197Z" fill="black"/>
</svg>
