<svg width="118" height="27" viewBox="0 0 118 27" fill="none" xmlns="http://www.w3.org/2000/svg">
<path d="M18.6152 14.3104C18.5778 12.1155 19.5639 10.4069 21.5713 9.18391C20.4392 7.60121 18.7696 6.71163 16.5617 6.51275C15.7764 6.44185 14.7723 6.62032 13.5509 7.05266C12.2371 7.52096 11.4974 7.75373 11.3334 7.75373C10.9866 7.75373 10.3207 7.55693 9.33387 7.16022C8.34922 6.76455 7.50919 6.56671 6.81558 6.56671C5.64781 6.58504 4.56135 6.89529 3.55799 7.49745C2.55427 8.1003 1.75165 8.92381 1.14978 9.96592C0.382421 11.2615 0 12.8086 0 14.6068C0 16.2255 0.282049 17.8438 0.847585 19.4635C1.37679 21.0106 2.05313 22.3685 2.87337 23.5365C3.6026 24.598 4.24368 25.3713 4.78943 25.8576C5.57514 26.6126 6.37704 26.973 7.19944 26.9364C7.72828 26.9177 8.42117 26.7292 9.27919 26.3685C10.0814 26.0285 10.8851 25.8573 11.6885 25.8573C12.4364 25.8573 13.2113 26.0274 14.0154 26.3685C14.909 26.7292 15.6397 26.9087 16.2052 26.9087C17.0449 26.8734 17.8291 26.5224 18.5602 25.8576C18.8145 25.6408 19.0933 25.3443 19.3941 24.9667C19.7413 24.5267 20.0747 24.0769 20.3938 23.6178C20.6598 23.2218 20.9109 22.8169 21.1468 22.4038C21.3999 21.9588 21.6238 21.4992 21.8174 21.0275C21.9077 20.8297 21.9897 20.6277 22.0635 20.4209C22.1361 20.2141 22.2092 20.0034 22.2822 19.7872C21.6069 19.5002 20.9954 19.0938 20.4482 18.5719C19.2451 17.4225 18.6336 16.001 18.6152 14.3104ZM38.4655 19.1201H38.3327L32.7734 6.90601H28.4078V26.6126H32.2126V13.8497H32.3892L37.0351 23.9844H39.7034L44.3345 13.8497H44.5119V26.6126H48.3606V6.90601H44.0248L38.4655 19.1201ZM15.1652 4.32789C16.1329 3.15851 16.6168 1.89954 16.6168 0.550299V0.280867C16.6168 0.190249 16.6074 0.100668 16.5894 0.0107422C15.9138 0.0467127 15.1979 0.253889 14.4399 0.630887C13.683 1.00927 13.0581 1.48657 12.5645 2.06106C11.5795 3.19517 11.0862 4.40848 11.0862 5.70376V5.95936C11.0862 6.04099 11.0956 6.12607 11.1136 6.21669C12.6289 6.36022 13.9794 5.7304 15.1652 4.32789ZM92.8293 6.90601H97.1057V26.613H92.8293V6.90601ZM110.022 10.0386C112.558 10.0386 113.899 11.9156 113.899 13.9369H118V13.518C118 9.70686 114.977 6.53108 109.992 6.53108C104.653 6.53108 101.468 9.9092 101.468 15.67V17.8936C101.468 23.6527 104.624 26.989 109.977 26.989C115.094 26.989 118 23.7682 118 20.1885V19.7554H113.899C113.899 21.7919 112.587 23.4808 110.052 23.4808C107.456 23.4808 105.804 21.7047 105.804 17.9071V15.6852C105.804 11.9007 107.471 10.0386 110.022 10.0386ZM64.7165 19.3504C64.7165 21.9932 63.1091 23.4507 60.7498 23.4507C58.3755 23.4507 56.7684 22.007 56.7684 19.3504V6.90601H52.5208V19.928C52.5208 24.1303 55.6172 26.9886 60.7491 26.9886C65.8667 26.9886 68.9778 24.1303 68.9778 19.928V6.90601H64.7165V19.3504ZM83.1267 15.1353L80.0745 14.4719C78.2757 14.1098 77.3317 13.3451 77.3317 12.204C77.3317 10.6888 78.6142 9.73557 80.68 9.73557C83.0097 9.73557 84.1746 11.0205 84.2775 12.4067H88.2593C88.215 8.92693 85.1924 6.50169 80.694 6.50169C76.4327 6.50169 73.07 8.65334 73.07 12.5222C73.07 15.8717 75.43 17.4298 78.2613 18.0233L81.284 18.7012C83.3191 19.1488 84.3513 19.799 84.3513 21.1406C84.3513 22.6721 83.0828 23.7118 80.7091 23.7118C78.1577 23.7118 76.8155 22.4121 76.6982 20.9535H72.598C72.6581 23.7402 74.5749 26.9886 80.5033 26.9886C85.4874 26.9886 88.5701 24.6066 88.5701 20.736C88.5687 17.1555 86.0763 15.7551 83.1267 15.1353Z" fill="#231F20"/>
</svg>
