<svg width="123" height="20" viewBox="0 0 123 20" fill="none" xmlns="http://www.w3.org/2000/svg">
<path d="M13.2657 7.11468L11.5229 8.61143C10.4977 7.44274 9.18553 6.86864 7.58626 6.86864C6.15102 6.86864 4.94132 7.36072 3.97766 8.34489C3.014 9.30855 2.54242 10.5183 2.54242 11.9945C2.54242 13.4502 3.014 14.6599 3.99816 15.6236C4.96182 16.5873 6.17153 17.0588 7.62727 17.0588C9.24704 17.0588 10.5798 16.4642 11.5844 15.2545L13.3067 16.7513C11.9125 18.3916 9.86214 19.3757 7.62727 19.3757C5.51542 19.3757 3.69061 18.6786 2.21437 17.2844C0.758627 15.8696 0 14.1063 0 11.9945C0 9.88264 0.738122 8.09885 2.19386 6.68411C3.67011 5.26938 5.47441 4.55176 7.58626 4.55176C9.88264 4.55176 11.769 5.39239 13.2657 7.11468Z" fill="#6515DD"/>
<path d="M14.4959 19.1087L14.4754 4.77686H16.9358L16.9563 19.1087H14.4959Z" fill="#6515DD"/>
<path d="M18.8837 8.73437H21.3646L21.3851 14.7829C21.3851 16.3411 22.2667 17.0998 23.661 17.0998C25.0347 17.0998 25.9163 16.3206 25.9163 14.7419L25.8958 8.71387H28.3767L28.3972 14.9059C28.3972 16.3411 27.9462 17.4483 27.044 18.2274C26.1419 18.9861 25.0142 19.3551 23.6405 19.3551C22.2667 19.3551 21.139 18.9861 20.2369 18.2274C19.3552 17.4688 18.9042 16.4026 18.8837 14.9879C18.9042 14.9879 18.8837 8.73437 18.8837 8.73437Z" fill="#6515DD"/>
<path d="M37.9928 16.1362C38.5874 15.5416 38.8744 14.783 38.8744 13.8808C38.8744 12.9787 38.5874 12.2201 37.9928 11.6255C37.4187 11.0309 36.7011 10.7233 35.8194 10.7233C34.9378 10.7233 34.1792 11.0309 33.5641 11.6255C32.9695 12.2201 32.6619 12.9787 32.6619 13.8808C32.6619 14.783 32.9695 15.5416 33.5641 16.1362C34.1792 16.7308 34.9378 17.0384 35.8194 17.0384C36.6806 17.0384 37.3982 16.7308 37.9928 16.1362ZM30.3655 19.0682L30.345 4.73633H32.8054L32.8259 10.2107C33.1745 9.20607 34.4252 8.48845 36.127 8.46795C37.5827 8.46795 38.8129 8.98053 39.8176 10.0262C40.8223 11.0514 41.3144 12.3226 41.3349 13.8603C41.3349 15.3981 40.8428 16.6693 39.8381 17.7355C38.8539 18.7607 37.6237 19.2732 36.168 19.2938C34.4662 19.2938 33.2155 18.5761 32.8464 17.5715V19.0682H30.3655Z" fill="#6515DD"/>
<path d="M42.8521 19.0477L42.8316 4.71582H45.2715L45.292 10.1287C45.7636 9.14456 46.8913 8.48845 48.306 8.46794C50.6844 8.46794 52.0991 10.0467 52.0991 12.6096L52.1196 19.0272H49.6797L49.6592 12.9582C49.6592 11.5435 48.9006 10.6618 47.5679 10.6618C46.2352 10.6618 45.292 11.646 45.292 13.0812L45.3125 19.0477C45.292 19.0477 42.8521 19.0477 42.8521 19.0477Z" fill="#6515DD"/>
<path d="M61.4487 16.157C62.0638 15.5214 62.3714 14.7628 62.3714 13.8401C62.3714 12.9175 62.0638 12.1588 61.4487 11.5437C60.8336 10.9081 60.075 10.6006 59.1729 10.6006C58.2502 10.6006 57.4916 10.9081 56.8765 11.5437C56.2819 12.1588 55.9743 12.9175 55.9743 13.8401C55.9743 14.7628 56.2819 15.5214 56.8765 16.157C57.4916 16.7721 58.2502 17.0797 59.1729 17.0797C60.075 17.0797 60.8336 16.7721 61.4487 16.157ZM53.5139 13.8401C53.5139 12.3024 54.0675 10.9901 55.1542 9.92397C56.2409 8.8783 57.5736 8.34521 59.1524 8.32471C60.7311 8.32471 62.0638 8.85779 63.171 9.90347C64.2577 10.9491 64.8113 12.2614 64.8318 13.7991C64.8523 15.3369 64.2782 16.6491 63.1915 17.7153C62.1048 18.7814 60.7721 19.294 59.1934 19.3145C57.6146 19.3145 56.2819 18.7814 55.1747 17.7358C54.0675 16.7106 53.5139 15.3779 53.5139 13.8401Z" fill="#6515DD"/>
<path d="M66.2055 8.63183H68.6864L68.7069 14.6803C68.7069 16.2386 69.5886 16.9972 70.9828 16.9972C72.3565 16.9972 73.2382 16.2181 73.2382 14.6393L73.2177 8.61133H75.6986L75.7191 14.8034C75.7191 16.2386 75.268 17.3458 74.3659 18.1249C73.4637 18.8835 72.336 19.2526 70.9623 19.2731C69.5886 19.2731 68.4609 18.904 67.5587 18.1454C66.6771 17.3868 66.226 16.3206 66.2055 14.9059V8.63183Z" fill="#6515DD"/>
<path d="M78.2205 15.8085C78.6921 16.5466 79.6967 17.1002 80.9474 17.1002C82.2392 17.1002 82.7927 16.6081 82.7927 15.9725C82.7927 15.6239 82.5467 15.3369 82.1981 15.1523C81.9726 15.0088 81.542 14.8653 81.2345 14.7628C80.9269 14.6603 80.3118 14.4757 79.9633 14.3322C78.3025 13.7376 77.4209 12.897 77.4003 11.4207C77.4003 10.4571 77.7489 9.71893 78.446 9.16534C79.1636 8.61175 80.0248 8.32471 81.05 8.32471C82.5057 8.32471 83.6129 8.83729 84.4125 9.84196L83.0388 11.2977C82.5877 10.7236 81.9111 10.4366 81.0295 10.4366C80.2708 10.4366 79.7787 10.8056 79.7787 11.3592C79.7787 11.7078 79.9633 11.8923 80.2503 12.0768C80.4143 12.1793 80.8244 12.3434 81.091 12.4459C81.3985 12.5279 81.9726 12.7329 82.3827 12.8765C84.2895 13.5531 85.1711 14.4757 85.1711 15.952C85.1711 17.8588 83.7359 19.253 80.9269 19.253C78.8561 19.253 77.2978 18.4534 76.6417 17.1617L78.2205 15.8085Z" fill="#6515DD"/>
<path d="M93.9671 12.6504C93.9671 12.0353 93.7006 11.5022 93.188 11.0717C92.6754 10.6206 92.0808 10.3951 91.3632 10.3951C90.6046 10.3951 89.928 10.6206 89.3744 11.0512C88.8208 11.4817 88.5132 12.0148 88.4517 12.6504H93.9671ZM85.9298 13.7781C85.9298 12.1378 86.4424 10.8256 87.4471 9.80045C88.4722 8.79579 89.7639 8.30371 91.3427 8.2832C92.8395 8.2832 94.0697 8.77528 95.0333 9.77995C95.997 10.7846 96.4686 12.0148 96.4891 13.4911C96.4891 13.7986 96.4686 14.0857 96.4481 14.3522L88.3902 14.3727C88.4722 16.013 89.6819 17.0792 91.5272 17.0792C92.5934 17.0792 93.5161 16.6896 94.3157 15.89L95.792 17.3252C94.6233 18.5554 93.188 19.191 91.4452 19.191C89.8255 19.191 88.4927 18.6989 87.4676 17.7353C86.4629 16.7716 85.9503 15.4799 85.9298 13.8601V13.7781Z" fill="#6515DD"/>
<path d="M100.241 15.6235C99.257 15.6235 98.4574 16.4232 98.4574 17.4073C98.4574 18.3915 99.257 19.1911 100.241 19.1911C101.225 19.1911 102.025 18.3915 102.025 17.4073C102.025 16.4232 101.225 15.6235 100.241 15.6235Z" fill="#6515DD"/>
<path d="M109.283 9.10353L100.508 11.9125L100.487 5.16687L109.263 2.35791L109.283 9.10353ZM110.944 3.60861V0.0615234L98.8469 3.95717L98.8674 14.2294L110.964 10.3337L110.944 3.60861Z" fill="#6515DD"/>
<path d="M119.904 9.22653L110.944 12.097L110.923 5.35139L119.166 2.68594L117.279 6.68411L119.904 9.22653ZM122.159 0L109.283 4.12118V14.3934L123 9.98516L119.268 6.35606L122.159 0Z" fill="#6515DD"/>
</svg>
