<svg width="68" height="61" viewBox="0 0 68 61" fill="none" xmlns="http://www.w3.org/2000/svg">
<path d="M18.5581 5.23175C17.9182 4.54401 18.0653 3.49953 19.1245 3.39288C18.8376 2.61319 18.9149 2.22335 19.5916 1.69376C20.2389 1.18623 20.9192 0.715474 21.618 0.285177C22.3315 -0.156154 22.7728 -0.0825985 23.376 0.487453C23.9497 1.02808 24.5124 1.58342 25.0677 2.13876C25.1854 2.25645 25.281 2.28955 25.4465 2.24174C29.3339 1.19358 33.2875 0.925105 37.2816 1.38482C38.7269 1.55032 40.1502 1.89235 41.5808 2.16819C41.7647 2.20496 41.8751 2.17554 42.0075 2.04682C42.5812 1.48045 43.166 0.925105 43.7434 0.358732C44.1001 0.00934527 44.5157 -0.0642098 44.9681 0.104967C45.185 0.185877 45.402 0.292532 45.597 0.421253C46.1118 0.759607 46.6157 1.11267 47.1232 1.46206C47.263 1.56136 47.3954 1.67169 47.5204 1.78938C48.0794 2.32265 48.1567 2.68307 47.8624 3.38552C48.8407 3.68342 49.0908 4.28289 48.5502 5.092C48.8444 5.29427 49.1423 5.49287 49.4328 5.69883C51.2864 7.02282 52.8605 8.60057 53.9344 10.6344C54.5743 11.8444 54.9605 13.1389 55.0525 14.4997C55.3356 18.7217 53.9234 22.2855 50.7789 25.1247C48.3663 27.2983 45.5087 28.6554 42.4047 29.5233C40.3966 30.0823 38.3518 30.406 36.2739 30.5494C32.78 30.7885 29.3155 30.5862 25.9026 29.7697C23.2914 29.1445 20.8199 28.1736 18.5765 26.673C16.1529 25.0475 14.2 23.0026 13.115 20.248C12.1037 17.6809 11.9492 15.0366 12.6995 12.3813C13.2585 10.3953 14.4206 8.74768 15.9175 7.35749C16.7045 6.62562 17.5909 6.0004 18.4331 5.32737C18.4735 5.29427 18.5177 5.26485 18.5581 5.23175ZM44.8062 3.96661C45.0894 4.03648 45.3763 4.12475 45.6668 4.16521C45.8139 4.18727 46.0162 4.17624 46.1155 4.08797C46.4649 3.79007 46.8106 3.48114 47.1048 3.12808C47.4027 2.76766 47.3954 2.63158 47.0129 2.34104C46.3288 1.82248 45.619 1.33701 44.8982 0.873617C44.5635 0.65663 44.4532 0.700763 44.159 0.991305C43.4381 1.69376 42.7283 2.40356 42.0038 3.10601C40.6761 4.39323 39.5654 5.8349 38.8115 7.53403C37.7964 9.82894 36.7924 12.1275 35.7847 14.4261C35.3654 15.3787 34.9352 16.3275 34.5453 17.2948C34.2548 18.0156 34.0194 18.7622 34.0304 19.5603C34.0415 20.3436 34.4129 20.9174 35.1595 21.138C35.6229 21.2741 36.1157 21.3403 36.6012 21.3771C38.9513 21.572 41.2977 21.7963 43.6625 21.6603C45.6301 21.5463 47.5829 21.3366 49.5064 20.9027C49.8117 20.8328 50.1353 20.785 50.4479 20.7997C50.9518 20.8181 51.3342 21.0792 51.5659 21.5536C51.6174 21.5058 51.6469 21.4837 51.6689 21.4543C52.5295 20.4797 53.2099 19.3985 53.6806 18.1848C54.0447 17.2433 54.1257 16.2466 54.2654 15.261C54.2912 15.0771 54.1808 15.0587 54.0411 15.0366C52.4376 14.8049 50.8377 14.8748 49.2416 15.0918C46.5054 15.4669 43.8721 16.2135 41.3087 17.2359C40.8085 17.4345 40.3157 17.6515 39.8045 17.8685C39.8082 17.817 39.8008 17.7876 39.8118 17.7655C40.3598 16.6254 40.4518 15.3934 40.4922 14.1613C40.5217 13.275 40.4812 12.385 40.4555 11.4986C40.4187 10.1636 40.7239 8.89112 41.1689 7.64804C41.316 7.23981 41.4742 6.83157 41.6654 6.44541C41.8604 6.05189 42.173 5.87904 42.5481 5.9673C43.2432 6.1328 43.8868 5.96363 44.4973 5.67308C45.3579 5.26118 46.2589 5.02212 47.1931 4.87501C47.4395 4.83823 47.6859 4.75732 47.9066 4.63963C47.9985 4.59182 48.0316 4.40058 48.0427 4.26818C48.0463 4.23876 47.8404 4.13946 47.7484 4.15785C47.274 4.2645 46.7812 4.34174 46.3435 4.53666C45.9831 4.69848 45.6742 4.77939 45.3174 4.5955C45.2549 4.5624 45.1814 4.54769 45.1152 4.51827C44.7621 4.36748 44.4716 4.44104 44.2178 4.73526C44.0339 4.94857 43.8353 5.15084 43.6183 5.3237C43.3498 5.54068 43.0961 5.54436 42.8276 5.36783C42.9159 5.29427 43.0041 5.22808 43.0814 5.15452C43.5411 4.68009 44.0045 4.20934 44.4532 3.72387C44.6738 3.48482 44.6996 3.20899 44.5194 2.9258C44.4458 2.81179 44.387 2.69043 44.3245 2.56906C44.3465 2.55067 44.3649 2.53228 44.387 2.51757C44.6223 2.70514 44.8577 2.89638 45.1483 3.12808C45.2917 2.85593 45.4278 2.59848 45.5749 2.31897C45.5933 2.51389 45.6227 2.70146 45.6227 2.88535C45.6227 3.15015 45.825 3.14647 45.9684 3.16118C45.8654 3.29358 45.7698 3.4223 45.6668 3.55838C45.1225 3.22738 44.946 3.29358 44.8062 3.96661ZM15.5571 21.3182C15.9616 20.899 16.2742 20.7629 16.8222 20.796C17.065 20.8107 17.3077 20.8585 17.5431 20.9137C19.7644 21.4065 22.0152 21.6897 24.2844 21.686C26.1858 21.6823 28.0872 21.5279 29.9849 21.4139C30.588 21.3771 31.1986 21.3035 31.7796 21.1527C32.552 20.9578 32.9345 20.3804 32.9492 19.5823C32.9639 18.8689 32.7873 18.1922 32.5299 17.5449C32.107 16.4857 31.6399 15.4449 31.1875 14.3967C30.3085 12.3703 29.4296 10.3401 28.5395 8.31739C27.9732 7.03017 27.3774 5.73928 26.4212 4.69112C25.2443 3.40023 23.9865 2.1829 22.7691 0.928783C22.5889 0.744896 22.394 0.730185 22.177 0.833162C22.0483 0.895684 21.9159 0.961883 21.7945 1.04279C21.3422 1.34437 20.8898 1.64594 20.4485 1.96223C20.2205 2.12405 20.0145 2.3153 19.8086 2.50654C19.6578 2.64629 19.632 2.82283 19.7755 2.992C20.0182 3.27151 20.2462 3.56573 20.5147 3.8195C20.9928 4.26818 21.6107 4.29393 22.177 3.92247C22.0409 3.31932 21.938 3.27887 21.3348 3.53631C21.2098 3.39655 21.0994 3.27519 20.9928 3.15382C21.2797 3.20531 21.3679 3.04717 21.3642 2.78237C21.3642 2.63526 21.3937 2.48447 21.4084 2.34104C21.5518 2.59848 21.6952 2.85593 21.8387 3.10969C22.1329 2.88167 22.3646 2.70146 22.5963 2.52125C22.6147 2.53964 22.6331 2.5617 22.6515 2.58009C22.6184 2.64262 22.5926 2.70514 22.5558 2.76398C22.2579 3.24944 22.2543 3.42598 22.6331 3.8526C23.0082 4.27186 23.4128 4.6617 23.8099 5.0589C23.9203 5.16923 24.0564 5.2575 24.2219 5.3899C23.8725 5.54068 23.6297 5.51494 23.4238 5.36047C23.2031 5.1913 22.9972 4.99638 22.8059 4.7941C22.4234 4.39323 22.3094 4.3307 21.8093 4.55137C21.3422 4.761 20.9523 4.6948 20.5 4.47414C20.1065 4.28289 19.6357 4.24244 19.1944 4.15785C19.1135 4.14314 18.9406 4.22405 18.9333 4.27922C18.9185 4.38587 18.9627 4.5293 19.0325 4.61389C19.0987 4.69848 19.2275 4.74629 19.3378 4.77571C19.5217 4.8272 19.7093 4.8603 19.8968 4.88972C20.739 5.0258 21.5592 5.23175 22.3352 5.60321C23.0045 5.92685 23.6959 6.13648 24.4646 5.95995C24.825 5.87536 25.1082 6.06292 25.2774 6.37553C25.4355 6.66975 25.5606 6.98236 25.6782 7.29497C26.1895 8.63367 26.5609 9.99812 26.5205 11.4508C26.4947 12.3556 26.4616 13.264 26.4874 14.1687C26.5205 15.386 26.6234 16.596 27.153 17.7251C27.1714 17.7619 27.1714 17.806 27.1898 17.8795C27.1126 17.8501 27.0611 17.8391 27.0169 17.817C24.3947 16.5739 21.6511 15.7207 18.7935 15.2463C17.0061 14.9484 15.2077 14.8564 13.4019 15.1065C13.196 15.1359 13.1371 15.2095 13.1334 15.4154C13.093 16.6953 13.4791 17.8648 14.0161 18.9976C14.4243 19.8361 14.9392 20.5974 15.5571 21.3182ZM33.5082 20.6636C33.3721 20.8512 33.2654 21.0314 33.1294 21.1822C32.6329 21.7265 31.9819 21.9802 31.2721 22.0428C29.5583 22.1899 27.8408 22.3076 26.1196 22.4216C24.7331 22.5135 23.3466 22.4583 21.9637 22.3223C20.3051 22.1604 18.6501 21.9618 17.0208 21.5794C16.8222 21.5315 16.5832 21.5573 16.3846 21.6161C16.1382 21.686 16.0977 21.9177 16.2816 22.0759C17.0319 22.7158 17.7527 23.3998 18.5544 23.9699C20.3087 25.2203 22.2653 26.0773 24.3101 26.7503C26.914 27.6035 29.5877 28.0485 32.3166 28.1589C35.1742 28.2729 38.0024 28.0375 40.7938 27.3792C43.2542 26.7981 45.5933 25.9191 47.7742 24.6319C48.8849 23.9773 49.9146 23.2049 50.8488 22.3112C50.9775 22.1899 50.9996 22.1016 50.9113 21.9435C50.7164 21.5867 50.4957 21.469 50.025 21.5757C47.7337 22.0832 45.4167 22.3738 43.074 22.4473C40.6393 22.5209 38.2194 22.2965 35.7994 22.0611C34.8358 21.9582 33.99 21.6051 33.5082 20.6636ZM25.8916 2.94419C26.0056 3.06556 26.0754 3.14647 26.149 3.22002C27.1935 4.24979 28.032 5.43771 28.6352 6.7617C30.0695 9.90985 31.4486 13.0838 32.8425 16.2503C33.0889 16.8093 33.2802 17.3904 33.4971 17.9605C33.5082 17.9531 33.5302 17.9457 33.5339 17.931C33.9201 16.9638 34.2805 15.9892 34.6924 15.033C35.7148 12.6535 36.7556 10.2813 37.8001 7.90916C38.4364 6.46012 39.1903 5.07729 40.2348 3.87466C40.5253 3.54366 40.8343 3.22738 41.1616 2.86696C36.0532 1.66801 31 1.68272 25.8916 2.94419ZM54.1882 14.2606C54.1882 14.2275 54.1919 14.1908 54.1882 14.1577C54.0337 12.8337 53.5997 11.6016 52.912 10.4615C51.6616 8.38726 49.8999 6.84261 47.8477 5.59585C47.7926 5.56275 47.708 5.54436 47.6455 5.5554C46.7223 5.69515 45.8176 5.89007 44.957 6.28359C44.1847 6.63665 43.394 6.92352 42.515 6.71021C42.4562 6.6955 42.3385 6.78376 42.3017 6.85364C42.1914 7.07063 42.1068 7.30233 42.0185 7.53035C41.4705 8.94628 41.1358 10.3843 41.2278 11.9289C41.2977 13.0543 41.2057 14.1908 41.1653 15.3235C41.1506 15.7133 41.0733 16.1032 41.0255 16.5041C41.0807 16.493 41.1064 16.493 41.1322 16.4857C42.9048 15.7869 44.7216 15.2316 46.5789 14.8049C48.3258 14.4041 50.0912 14.1503 51.8822 14.1466C52.6472 14.1466 53.4048 14.2202 54.1882 14.2606ZM25.9541 16.4894C25.9578 16.4452 25.9614 16.4195 25.9578 16.3937C25.6893 14.8564 25.6599 13.3044 25.7592 11.7561C25.8695 10.0165 25.3472 8.42772 24.7 6.861C24.6522 6.73963 24.5896 6.67343 24.4352 6.71389C23.8909 6.85364 23.3539 6.77641 22.8317 6.5962C22.0483 6.32405 21.2723 6.01511 20.4779 5.7687C20.1028 5.65102 19.6909 5.47081 19.301 5.71354C17.7748 6.6624 16.403 7.79882 15.2849 9.21476C14.1742 10.6233 13.4387 12.1974 13.1812 13.9848C13.1629 14.1135 13.1665 14.2422 13.1592 14.3746C17.6534 13.7899 21.824 14.9226 25.9541 16.4894Z" fill="#2D3473"/>
<path d="M44.8061 3.96628C44.9458 3.29325 45.1224 3.22705 45.6703 3.55437C45.7733 3.4183 45.8689 3.29325 45.9719 3.15718C45.8285 3.14247 45.6299 3.14614 45.6262 2.88135C45.6262 2.69746 45.5968 2.50989 45.5784 2.31497C45.4313 2.59448 45.2952 2.85192 45.1518 3.12408C44.8612 2.89238 44.6259 2.70114 44.3905 2.51357C44.3684 2.53196 44.35 2.55035 44.328 2.56506C44.3942 2.68275 44.453 2.80779 44.5229 2.9218C44.7031 3.20867 44.6774 3.4845 44.4567 3.71987C44.008 4.20534 43.5446 4.67609 43.0849 5.15052C43.0113 5.22775 42.9194 5.29027 42.8311 5.36383C43.0996 5.54036 43.3534 5.53668 43.6218 5.31969C43.8388 5.14316 44.0374 4.94089 44.2213 4.73125C44.4751 4.43703 44.7656 4.36348 45.1187 4.51427C45.1849 4.54369 45.2584 4.5584 45.321 4.5915C45.6777 4.77907 45.9866 4.69448 46.3471 4.53266C46.7847 4.33774 47.2775 4.25682 47.752 4.15385C47.8439 4.13546 48.0499 4.23108 48.0462 4.26418C48.0351 4.3929 48.002 4.58414 47.9101 4.63563C47.6931 4.75332 47.443 4.83423 47.1966 4.87101C46.2625 5.01812 45.3577 5.25717 44.5008 5.66908C43.8903 5.95962 43.2467 6.1288 42.5516 5.9633C42.1728 5.87504 41.8602 6.04789 41.669 6.44141C41.4777 6.83125 41.3159 7.2358 41.1725 7.64403C40.7274 8.88711 40.4222 10.1596 40.459 11.4946C40.4847 12.381 40.5252 13.271 40.4958 14.1573C40.4553 15.3894 40.3633 16.6214 39.8154 17.7615C39.8043 17.7836 39.8117 17.813 39.808 17.8645C40.3192 17.6475 40.812 17.4305 41.3122 17.2319C43.8719 16.2132 46.5089 15.4629 49.2451 15.0878C50.8413 14.8708 52.4411 14.8009 54.0446 15.0326C54.1843 15.051 54.2947 15.0731 54.2689 15.257C54.1292 16.2426 54.0483 17.2393 53.6842 18.1808C53.2134 19.3945 52.5294 20.4757 51.6724 21.4503C51.6504 21.4761 51.621 21.4981 51.5695 21.5496C51.3378 21.0752 50.9553 20.8141 50.4514 20.7957C50.1388 20.7846 49.8189 20.8288 49.5099 20.8987C47.5865 21.3363 45.6299 21.5459 43.666 21.6563C41.3049 21.7923 38.9548 21.5643 36.6047 21.3731C36.1192 21.3326 35.6264 21.2701 35.163 21.134C34.4128 20.9134 34.045 20.3396 34.0339 19.5563C34.0229 18.7582 34.2546 18.0153 34.5488 17.2908C34.9387 16.3235 35.3726 15.3747 35.7882 14.4221C36.7959 12.1235 37.8 9.82494 38.815 7.53002C39.5653 5.8309 40.676 4.38555 42.0073 3.10201C42.7318 2.40324 43.4416 1.68975 44.1625 0.987303C44.4604 0.696761 44.567 0.656306 44.9017 0.869615C45.6225 1.33669 46.336 1.81848 47.0164 2.33704C47.3989 2.62758 47.4062 2.76366 47.1083 3.12408C46.8178 3.47714 46.4721 3.78607 46.119 4.08397C46.0197 4.16856 45.8175 4.17959 45.6703 4.1612C45.3761 4.12443 45.0929 4.03616 44.8061 3.96628ZM16.8221 20.792C17.0648 20.8067 17.3075 20.8545 17.5429 20.9097C19.7643 21.4025 22.015 21.6857 24.2842 21.682C26.1856 21.6783 28.087 21.5239 29.9847 21.4099C30.5879 21.3731 31.1984 21.2995 31.7795 21.1487C32.5518 20.9538 32.9343 20.3764 32.949 19.5783C32.9637 18.8649 32.7872 18.1881 32.5297 17.5409C32.1068 16.4817 31.6397 15.4409 31.1874 14.3927C30.3084 12.3663 29.4294 10.3361 28.5394 8.31339C27.973 7.02617 27.3772 5.73528 26.421 4.68712C25.2441 3.39623 23.9863 2.17889 22.769 0.924782C22.5888 0.740894 22.3939 0.726183 22.1769 0.82916C22.0481 0.891682 21.9158 0.957881 21.7944 1.03879C21.342 1.34037 20.8897 1.64194 20.4483 1.95823C20.2203 2.12005 20.0144 2.31129 19.8084 2.50254C19.6576 2.64229 19.6319 2.81882 19.7753 2.988C20.018 3.26751 20.2461 3.56173 20.5145 3.81549C20.9926 4.26418 21.6105 4.28992 22.1769 3.91847C22.0408 3.31532 21.9378 3.27487 21.3347 3.53231C21.2096 3.39255 21.0993 3.27119 20.9926 3.14982C21.2795 3.20131 21.3678 3.04317 21.3641 2.77837C21.3641 2.63126 21.3935 2.48047 21.4082 2.33704C21.5517 2.59448 21.6951 2.85192 21.8385 3.10569C22.1327 2.87767 22.3644 2.69746 22.5961 2.51725C22.6145 2.53564 22.6329 2.5577 22.6513 2.57609C22.6182 2.63861 22.5925 2.70114 22.5557 2.75998C22.2578 3.24544 22.2541 3.42198 22.6329 3.84859C23.008 4.26786 23.4126 4.6577 23.8098 5.0549C23.9201 5.16523 24.0562 5.2535 24.2217 5.38589C23.8723 5.53668 23.6296 5.51094 23.4236 5.35647C23.203 5.1873 22.997 4.99238 22.8058 4.7901C22.4233 4.38922 22.3093 4.3267 21.8091 4.54737C21.342 4.757 20.9522 4.6908 20.4998 4.47013C20.1063 4.27889 19.6355 4.23844 19.1942 4.15385C19.1133 4.13914 18.9404 4.22005 18.9331 4.27521C18.9184 4.38187 18.9625 4.5253 19.0324 4.60989C19.0986 4.69448 19.2273 4.74229 19.3376 4.77171C19.5215 4.8232 19.7091 4.8563 19.8967 4.88572C20.7389 5.0218 21.559 5.22775 22.335 5.5992C23.0044 5.92285 23.6958 6.13248 24.4644 5.95595C24.8249 5.87136 25.108 6.05892 25.2772 6.37153C25.4354 6.66575 25.5604 6.97836 25.6781 7.29097C26.1893 8.62967 26.5608 9.99412 26.5203 11.4468C26.4946 12.3516 26.4614 13.26 26.4872 14.1647C26.5203 15.382 26.6233 16.592 27.1529 17.7211C27.1713 17.7579 27.1713 17.802 27.1896 17.8755C27.1124 17.8461 27.0609 17.8351 27.0168 17.813C24.3946 16.5699 21.651 15.7167 18.7933 15.2423C17.006 14.9444 15.2075 14.8524 13.4018 15.1025C13.1958 15.1319 13.137 15.2055 13.1333 15.4114C13.0928 16.6913 13.479 17.8608 14.0159 18.9936C14.4168 19.8321 14.9317 20.5934 15.5496 21.3106C15.9615 20.8987 16.2741 20.7626 16.8221 20.792Z" fill="white"/>
<path d="M33.5081 20.6639C33.9898 21.6054 34.8394 21.9585 35.803 22.0541C38.2193 22.2895 40.6429 22.5138 43.0776 22.4403C45.4203 22.3704 47.7373 22.0762 50.0285 21.5686C50.4993 21.4657 50.7199 21.5797 50.9149 21.9364C50.9994 22.0946 50.9774 22.1791 50.8523 22.3042C49.9182 23.1979 48.8921 23.9702 47.7777 24.6249C45.5968 25.9121 43.2578 26.791 40.7974 27.3721C38.0096 28.0305 35.1778 28.2658 32.3201 28.1518C29.5876 28.0415 26.9138 27.5965 24.3137 26.7432C22.2688 26.0739 20.316 25.2133 18.558 23.9629C17.7562 23.3928 17.0354 22.7087 16.2851 22.0688C16.0976 21.9107 16.1417 21.679 16.3881 21.6091C16.5904 21.5503 16.8258 21.5245 17.0244 21.5723C18.6536 21.9548 20.3086 22.1534 21.9673 22.3152C23.3501 22.4513 24.7366 22.5028 26.1231 22.4145C27.8406 22.3042 29.5582 22.1828 31.2757 22.0357C31.9855 21.9769 32.6364 21.7231 33.1329 21.1751C33.2653 21.0317 33.372 20.8515 33.5081 20.6639ZM26.1489 3.22034C27.1934 4.25011 28.0319 5.43802 28.635 6.76201C30.0694 9.91017 31.4485 13.0841 32.8424 16.2506C33.0888 16.8096 33.28 17.3907 33.497 17.9608C33.5081 17.9534 33.5301 17.9461 33.5338 17.9313C33.92 16.9641 34.2804 15.9895 34.6923 15.0333C35.7147 12.6538 36.7555 10.2816 37.8 7.90947C38.4362 6.46044 39.1902 5.0776 40.2347 3.87498C40.5252 3.54398 40.8341 3.22769 41.1615 2.86727C36.0531 1.66832 30.9998 1.68304 25.8914 2.9445C26.0018 3.06219 26.0716 3.1431 26.1489 3.22034ZM54.1881 14.158C54.0336 12.834 53.5996 11.6019 52.9119 10.4618C51.6614 8.38758 49.8998 6.84292 47.8476 5.59616C47.7924 5.56306 47.7079 5.54468 47.6453 5.55571C46.7222 5.69546 45.8175 5.89038 44.9569 6.2839C44.1846 6.63697 43.3939 6.92383 42.5149 6.71052C42.456 6.69581 42.3383 6.78408 42.3016 6.85395C42.1912 7.07094 42.1066 7.30264 42.0184 7.53066C41.4704 8.9466 41.1357 10.3846 41.2277 11.9293C41.2975 13.0546 41.2056 14.1911 41.1651 15.3238C41.1504 15.7137 41.0732 16.1035 41.0254 16.5044C41.0805 16.4933 41.1063 16.4933 41.132 16.486C42.9047 15.7872 44.7215 15.2319 46.5788 14.8053C48.3257 14.4044 50.091 14.1506 51.8821 14.1469C52.6397 14.1433 53.3973 14.2168 54.1844 14.2573C54.1881 14.2278 54.1917 14.1911 54.1881 14.158ZM25.9576 16.394C25.6892 14.8567 25.6597 13.3047 25.759 11.7564C25.8694 10.0168 25.3471 8.42803 24.6998 6.86131C24.652 6.73994 24.5895 6.67375 24.435 6.7142C23.8907 6.85396 23.3538 6.77672 22.8315 6.59651C22.0482 6.32436 21.2722 6.01543 20.4778 5.76902C20.1027 5.65133 19.6907 5.47112 19.3009 5.71385C17.7746 6.66271 16.4028 7.79914 15.2848 9.21507C14.1741 10.6237 13.4386 12.1977 13.1811 13.9851C13.1627 14.1138 13.1664 14.2426 13.1591 14.375C17.6533 13.7939 21.8238 14.9229 25.954 16.4897C25.954 16.4455 25.9613 16.4198 25.9576 16.394Z" fill="#F4D147"/>
<path d="M13.115 41.8435C13.126 43.5169 13.1186 45.1903 13.1186 46.8637C13.1186 46.9372 13.1186 47.0071 13.1186 47.0954C12.3757 47.0954 11.6659 47.0954 10.9341 47.0954C10.9341 47.0181 10.9341 46.9446 10.9341 46.8747C10.9341 45.1094 10.9377 43.3441 10.9304 41.5787C10.9267 41.0344 10.8017 40.5159 10.3309 40.1812C9.76822 39.7803 9.143 39.7693 8.53617 40.0561C7.92199 40.3467 7.65351 40.8836 7.64983 41.5493C7.64248 42.9395 7.64983 44.3334 7.64983 45.7236C7.64983 46.1759 7.64983 46.6283 7.64983 47.0917C6.91428 47.0917 6.19344 47.0917 5.45789 47.0917C5.45789 47.0181 5.45789 46.9519 5.45789 46.8857C5.45789 45.0947 5.46525 43.3073 5.45054 41.5162C5.44686 41.2588 5.39169 40.9903 5.29975 40.7476C5.09012 40.1996 4.65614 39.9385 4.08241 39.887C3.41306 39.8318 2.84669 40.0157 2.45685 40.6005C2.23986 40.9278 2.18102 41.3029 2.18102 41.6891C2.18102 43.4103 2.18102 45.1351 2.18102 46.8563C2.18102 46.9299 2.18102 47.0034 2.18102 47.088C1.4565 47.088 0.743015 47.088 0.0184976 47.088C0.0148198 47.0549 0.00746431 47.0255 0.00746431 46.9961C0.00746431 45.0947 -0.0182799 43.1969 0.0258531 41.2955C0.0515973 40.2069 0.478217 39.2581 1.31674 38.5299C2.09643 37.8532 3.0269 37.6031 4.04196 37.6435C5.0607 37.684 5.91026 38.0922 6.62374 38.9455C6.65316 38.8829 6.66787 38.8167 6.70833 38.7726C7.41446 38.015 8.28976 37.6362 9.32321 37.6362C10.3125 37.6362 11.2099 37.8973 11.9491 38.5887C12.5376 39.1404 12.8796 39.8318 13.0157 40.6152C13.0819 41.0234 13.1113 41.4353 13.115 41.8435ZM22.4234 51.1004C23.2214 51.1004 24.0048 51.1004 24.7918 51.1004C24.7918 50.3134 24.7918 49.5337 24.7918 48.754C23.9901 48.754 23.2067 48.754 22.4234 48.754C22.4234 49.5484 22.4234 50.3244 22.4234 51.1004ZM32.8498 47.1211C33.6589 47.3271 34.479 47.3675 35.3102 47.2498C36.7041 47.0512 37.7228 46.3267 38.3738 45.0836C38.5981 44.657 38.7415 44.2083 38.771 43.6934C38.6827 43.6934 38.6239 43.6934 38.5613 43.6934C37.8699 43.6934 37.1748 43.6971 36.4834 43.6898C36.2995 43.6861 36.1782 43.7082 36.1818 43.9325C36.1855 44.0318 36.1414 44.1348 36.1083 44.2341C35.9391 44.7269 35.6669 45.1241 35.1226 45.2491C34.9645 45.2859 34.7953 45.3006 34.6335 45.3153C33.7876 45.3889 33.0852 44.9696 32.8057 44.1679C32.4342 43.0976 32.4489 42.009 32.7836 40.9388C33.0116 40.2069 33.5265 39.7509 34.3209 39.6847C35.2881 39.6001 35.9759 39.9679 36.2076 40.9866C36.2186 41.0381 36.237 41.0896 36.2517 41.1301C37.1086 41.1301 37.9508 41.1301 38.8114 41.1301C38.7673 40.891 38.7342 40.6667 38.6864 40.446C38.4289 39.2213 37.7302 38.3828 36.5239 37.9819C35.564 37.6619 34.582 37.5921 33.5853 37.7355C32.1363 37.9451 31.0293 38.6807 30.4445 40.0378C29.7237 41.7148 29.709 43.4323 30.4556 45.1167C30.9226 46.1612 31.7354 46.8379 32.8498 47.1211ZM45.2696 40.5232C45.2622 40.1702 45.1445 39.8686 44.7841 39.7288C44.192 39.5008 43.5888 39.4824 42.982 39.6553C42.5112 39.7877 42.2979 40.1591 42.1802 40.6005C42.1618 40.663 42.1508 40.7292 42.1324 40.7991C41.3675 40.7991 40.6098 40.7991 39.8522 40.7991C39.8964 39.5817 40.4591 38.4674 41.7021 37.9782C42.3347 37.7318 42.993 37.6509 43.6624 37.6399C44.6002 37.6252 45.5013 37.7759 46.3545 38.1768C47.079 38.5152 47.4652 39.0926 47.5792 39.8649C47.6123 40.0892 47.6233 40.3173 47.6233 40.5416C47.627 41.6376 47.627 42.7372 47.6233 43.8332C47.6196 44.7857 47.3585 45.6353 46.6119 46.2789C46.1485 46.6798 45.6042 46.9225 45.0121 47.0623C43.872 47.3344 42.7172 47.3933 41.5697 47.1616C40.2972 46.9041 39.5507 45.9406 39.5433 44.6386C39.5396 43.8369 39.7161 43.105 40.3119 42.5276C40.757 42.0936 41.3049 41.8509 41.9007 41.7369C42.6069 41.6008 43.3277 41.5199 44.0375 41.3985C44.2949 41.3544 44.5524 41.2882 44.7951 41.1962C45.1004 41.0896 45.2769 40.8579 45.2696 40.5232ZM45.2144 42.5754C44.7731 42.8549 44.2618 42.9101 43.769 43.0204C43.3424 43.116 42.9084 43.2117 42.5076 43.3845C42.0515 43.5794 41.8566 44.087 41.9449 44.6276C42.0295 45.1535 42.309 45.4404 42.8386 45.5323C43.3829 45.6279 43.8794 45.4882 44.3575 45.2381C44.7878 45.0138 45.0783 44.6644 45.1555 44.1973C45.2401 43.6714 45.2512 43.1307 45.2916 42.5975C45.2659 42.5901 45.2401 42.5828 45.2144 42.5754ZM24.2696 46.8747C24.2696 46.9446 24.2696 47.0181 24.2696 47.0917C25.0787 47.0917 25.8584 47.0917 26.6565 47.0917C26.6565 47.0218 26.6565 46.9593 26.6565 46.9004C26.6565 45.5323 26.6565 44.1679 26.6601 42.7998C26.6601 42.4835 26.6748 42.1635 26.7006 41.8472C26.7705 41.005 27.2044 40.4276 27.9437 40.1996C28.3629 40.0709 28.7969 40.0488 29.2346 40.0892C29.3339 40.1003 29.4368 40.104 29.5435 40.1076C29.5435 39.2912 29.5435 38.4968 29.5435 37.6987C29.492 37.6914 29.4515 37.684 29.4074 37.6803C28.8043 37.6472 28.2085 37.7024 27.62 37.8385C26.2556 38.1584 25.2332 38.9124 24.6631 40.218C24.3468 40.9425 24.2475 41.7038 24.2586 42.4945C24.2843 43.9582 24.2696 45.4146 24.2696 46.8747ZM20.202 48.7687C20.0439 48.7871 19.8857 48.8055 19.7312 48.846C18.9111 49.0519 18.308 49.5264 18.3153 50.6187C18.33 53.0386 18.3263 57.382 18.3227 60.6295H20.5514C20.5514 56.812 20.5514 51.7919 20.5514 48.7687C20.4227 48.7687 20.3087 48.7577 20.202 48.7687ZM66.2658 45.7346C65.8208 46.3745 65.2066 46.7975 64.4674 47.0365C63.3972 47.3859 62.3123 47.3969 61.2236 47.1542C59.8592 46.8453 58.9361 45.9847 58.4396 44.7159C57.6378 42.6563 57.818 40.6924 59.2413 38.9308C59.8187 38.2173 60.6095 37.8568 61.4958 37.6987C61.8746 37.6325 62.2608 37.6141 62.6432 37.5737C63.3273 37.6031 64.0003 37.684 64.644 37.9378C65.6369 38.3239 66.3247 39.0448 66.7439 39.9899C67.634 41.9796 67.531 43.9141 66.2658 45.7346ZM64.8425 42.4651C64.7947 42.0973 64.769 41.7222 64.6918 41.3581C64.5777 40.7991 64.335 40.2989 63.8496 39.9605C62.7058 39.1625 61.139 39.6589 60.683 40.9756C60.363 41.8913 60.3667 42.8328 60.6242 43.7596C60.9 44.7563 61.5215 45.2602 62.555 45.319C63.342 45.3631 63.982 45.0689 64.3902 44.3628C64.7285 43.778 64.8094 43.1307 64.8425 42.4651ZM38.8666 51.7146C38.5025 51.7477 38.1384 51.7992 37.7817 51.8838C35.7442 52.3582 34.6372 53.8955 34.5232 55.7969C34.4717 56.6796 34.4753 58.82 34.4864 60.6295H36.8769C36.8769 59.1547 36.8769 57.485 36.8806 56.9076C36.8843 56.5545 36.8953 56.1978 36.9284 55.8447C37.0093 54.9547 37.4654 54.3736 38.2929 54.1897C38.679 54.1052 39.0946 54.1309 39.4955 54.1088C39.5764 54.1052 39.661 54.1199 39.7492 54.1235C39.7492 53.3071 39.7492 52.509 39.7492 51.7109C39.4403 51.7073 39.1498 51.6889 38.8666 51.7146ZM48.6862 53.9838C49.0466 54.8812 49.0392 55.8227 49.0282 56.7899C46.8105 56.7899 44.6076 56.7899 42.3862 56.7899C42.4083 57.3673 42.5296 57.8859 42.9011 58.3199C43.2762 58.7612 43.758 58.9782 44.3317 59.0076C44.762 59.0297 45.1886 59.0333 45.6005 58.8789C45.8617 58.7796 46.0639 58.6104 46.2405 58.4044C46.2846 58.3566 46.3545 58.3015 46.4133 58.3015C47.1967 58.2941 47.9837 58.2978 48.7671 58.2978C48.7892 58.2978 48.8112 58.3088 48.8443 58.3162C48.7303 58.7649 48.4839 59.1363 48.197 59.482C47.4578 60.372 46.4942 60.8281 45.3578 60.9568C44.2471 61.0819 43.1879 60.9421 42.1876 60.4199C40.9408 59.7689 40.2641 58.7354 40.0729 57.3636C39.9331 56.3412 39.9589 55.3262 40.2494 54.3258C40.7018 52.7554 42.0515 51.6006 43.6771 51.3947C44.4715 51.2954 45.2512 51.3211 46.0235 51.5344C47.3291 51.8912 48.1897 52.7444 48.6862 53.9838ZM46.5457 55.2158C46.5384 54.0831 45.6851 53.285 44.4899 53.285C43.2247 53.285 42.5701 54.1787 42.4597 55.2158C43.8205 55.2158 45.185 55.2158 46.5457 55.2158ZM57.259 35.0176C57.259 37.8679 57.2811 40.7181 57.2443 43.5647C57.2259 45.0064 56.4279 46.4701 54.7361 47.0145C53.3238 47.4668 51.9116 47.4006 50.5361 46.8269C49.6203 46.4444 49.0871 45.7125 48.7377 44.8188C48.4214 44.0134 48.3478 43.1712 48.3883 42.3106C48.4287 41.5236 48.5464 40.7512 48.859 40.023C49.3371 38.905 50.1095 38.0885 51.3231 37.7943C52.3051 37.5553 53.265 37.6031 54.1072 38.243C54.3757 38.449 54.5963 38.7174 54.8501 38.9639C54.8501 38.7763 54.8501 38.574 54.8501 38.3754C54.8501 37.7759 54.8574 37.1728 54.8501 36.5733C54.8354 35.5068 55.4165 35.0066 56.3506 34.8301C56.5786 34.7859 56.814 34.7933 57.0457 34.7786C57.1119 34.7749 57.1781 34.7859 57.2627 34.7896C57.259 34.8742 57.259 34.9477 57.259 35.0176ZM54.9236 42.432C54.9016 42.2518 54.8758 41.884 54.7986 41.5236C54.6552 40.8542 54.361 40.2805 53.7173 39.9458C52.7758 39.4567 51.6652 39.8171 51.1907 40.766C50.9811 41.1889 50.8781 41.6376 50.845 42.1047C50.7899 42.8255 50.8524 43.5353 51.1282 44.212C51.393 44.8556 51.8601 45.2638 52.5699 45.3337C53.3349 45.4073 53.9895 45.2087 54.4308 44.5246C54.8096 43.9472 54.9163 43.2962 54.9236 42.432ZM22.9456 44.6497C22.8316 45.0983 22.5852 45.4698 22.2983 45.8155C21.5591 46.7055 20.5955 47.1616 19.4591 47.2903C18.3484 47.4153 17.2892 47.2756 16.2889 46.7533C15.0421 46.1024 14.3654 45.0689 14.1742 43.6971C14.0344 42.6747 14.0602 41.6596 14.3507 40.6593C14.8031 39.0889 16.1528 37.9341 17.7784 37.7281C18.5728 37.6288 19.3524 37.6546 20.1248 37.8679C21.434 38.2283 22.2946 39.0815 22.7911 40.3209C23.1516 41.2183 23.1442 42.1598 23.1332 43.1271C20.9155 43.1271 18.7125 43.1271 16.4911 43.1271C16.5132 43.7045 16.6346 44.223 17.006 44.657C17.3812 45.0983 17.8629 45.3153 18.4367 45.3448C18.867 45.3668 19.2936 45.3705 19.7055 45.216C19.9666 45.1167 20.1689 44.9476 20.3454 44.7416C20.3896 44.6938 20.4594 44.6386 20.5183 44.6386C21.3016 44.6313 22.0887 44.6349 22.872 44.6349C22.8904 44.6313 22.9125 44.6423 22.9456 44.6497ZM16.561 41.553C17.9255 41.553 19.2862 41.553 20.647 41.553C20.6397 40.4202 19.7864 39.6222 18.5911 39.6222C17.326 39.6222 16.6714 40.5159 16.561 41.553ZM32.8093 51.9316C32.1253 51.9316 31.7575 52.1964 31.5699 52.8474C31.1838 54.1824 30.4629 56.3265 30.0547 57.7425C29.4479 55.5983 28.7638 54.0757 28.157 51.9353H25.6377L28.5873 60.4088C28.6314 60.5375 28.7528 60.6221 28.8888 60.6221H31.1801C31.3162 60.6221 31.4375 60.5375 31.4817 60.4088L34.4717 51.9279C33.8979 51.9316 33.3536 51.9316 32.8093 51.9316ZM22.4197 60.6295H24.8029C24.8029 57.7241 24.8029 53.9617 24.8029 51.9463C24.0011 51.9463 23.2141 51.9463 22.4197 51.9463C22.4197 53.9691 22.4197 57.7241 22.4197 60.6295Z" fill="#26337E"/>
</svg>
