<svg width="134" height="26" viewBox="0 0 134 26" fill="none" xmlns="http://www.w3.org/2000/svg">
<path d="M31.3694 17.0046C31.3694 22.378 34.6792 25.594 39.597 25.594C42.0492 25.594 44.1128 24.9106 45.2652 23.115V25.594H49.7542V0H45.091V10.8808C44.0324 9.0852 42.076 8.2812 39.6238 8.2812C34.8266 8.2678 31.3694 11.5508 31.3694 17.0046ZM45.2384 17.0046C45.2384 20.0732 43.148 21.9894 40.6422 21.9894C38.0426 21.9894 36.046 20.0732 36.046 17.0046C36.046 13.8824 38.056 11.926 40.6422 11.926C43.148 11.926 45.2384 13.9092 45.2384 17.0046Z" fill="black"/>
<path d="M64.2664 18.9878C63.7304 20.971 62.377 21.9626 60.2464 21.9626C57.7674 21.9626 55.7306 20.4618 55.677 17.8086H67.4288C67.5762 17.152 67.6432 16.4552 67.6432 15.6914C67.6432 10.9344 64.4004 8.25439 59.6166 8.25439C54.5112 8.25439 51.0004 11.8858 51.0004 16.817C51.0004 22.311 54.873 25.6074 60.233 25.6074C64.2798 25.6074 67.0268 23.919 68.2328 20.5556L64.2664 18.9878ZM55.677 14.6998C56.1192 12.7836 57.7138 11.658 59.63 11.658C61.7204 11.658 63.1408 12.7836 63.1408 14.5524L63.114 14.6998H55.677Z" fill="black"/>
<path d="M81.5658 18.9878C81.0298 20.971 79.6764 21.9626 77.5458 21.9626C75.0668 21.9626 73.03 20.4618 72.9764 17.8086H84.7282C84.8756 17.152 84.9426 16.4552 84.9426 15.6914C84.9426 10.9344 81.6998 8.25439 76.916 8.25439C71.8106 8.25439 68.2998 11.8858 68.2998 16.817C68.2998 22.311 72.1724 25.6074 77.5324 25.6074C81.5792 25.6074 84.3262 23.919 85.5322 20.5556L81.5658 18.9878ZM72.9764 14.6998C73.4186 12.7836 75.0132 11.658 76.9294 11.658C79.0198 11.658 80.4402 12.7836 80.4402 14.5524L80.4134 14.6998H72.9764Z" fill="black"/>
<path d="M101.398 25.6206V21.3996H91.6024L101.13 12.1268V8.26758H86.0548V12.2876H95.2606L85.76 21.6006V25.6206H101.398Z" fill="black"/>
<path d="M115.026 18.9878C114.49 20.971 113.136 21.9626 111.006 21.9626C108.527 21.9626 106.49 20.4618 106.436 17.8086H118.188C118.335 17.152 118.402 16.4552 118.402 15.6914C118.402 10.9344 115.16 8.25439 110.376 8.25439C105.27 8.25439 101.76 11.8858 101.76 16.817C101.76 22.311 105.632 25.6074 110.992 25.6074C115.039 25.6074 117.786 23.919 118.992 20.5556L115.026 18.9878ZM106.436 14.6998C106.878 12.7836 108.473 11.658 110.389 11.658C112.48 11.658 113.9 12.7836 113.9 14.5524L113.873 14.6998H106.436Z" fill="black"/>
<path d="M26.5856 8.26758H20.837V11.631H26.5856V8.26758Z" fill="#40AB5D"/>
<path d="M26.5856 12.9307H20.837V16.2941H26.5856V12.9307Z" fill="url(#paint0_linear)"/>
<path d="M26.5856 17.5942H20.837V20.9576H26.5856V17.5942Z" fill="url(#paint1_linear)"/>
<path d="M5.7486 22.2573H0V25.6207H5.7486V22.2573Z" fill="url(#paint2_linear)"/>
<path d="M12.6898 22.2573H6.94116V25.6207H12.6898V22.2573Z" fill="url(#paint3_linear)"/>
<path d="M19.6444 22.2573H13.8958V25.6207H19.6444V22.2573Z" fill="url(#paint4_linear)"/>
<path d="M26.5856 22.2573H20.837V25.6207H26.5856V22.2573Z" fill="url(#paint5_linear)"/>
<path d="M19.6444 17.5942H13.8958V20.9576H19.6444V17.5942Z" fill="url(#paint6_linear)"/>
<path d="M12.6898 17.5942H6.94116V20.9576H12.6898V17.5942Z" fill="url(#paint7_linear)"/>
<path d="M12.6898 12.9307H6.94116V16.2941H12.6898V12.9307Z" fill="url(#paint8_linear)"/>
<path d="M129.457 14.2574C129.457 14.4316 129.457 14.7532 129.457 14.7532H134C134 14.7532 134 13.8956 134 13.4266C134 10.4518 132.137 8.29443 129.015 8.29443C127.005 8.29443 125.585 9.27263 124.848 10.894V8.29443H120.158V25.6206H124.848V14.4584C124.848 12.6896 125.799 11.7114 127.26 11.7114C128.6 11.7248 129.457 12.9844 129.457 14.2574Z" fill="black"/>
<defs>
<linearGradient id="paint0_linear" x1="23.7395" y1="16.3231" x2="23.6854" y2="12.8813" gradientUnits="userSpaceOnUse">
<stop stop-color="#358C7B"/>
<stop offset="0.5256" stop-color="#33A65E"/>
</linearGradient>
<linearGradient id="paint1_linear" x1="20.7525" y1="20.7849" x2="26.6728" y2="17.7684" gradientUnits="userSpaceOnUse">
<stop stop-color="#222B90"/>
<stop offset="1" stop-color="#367B99"/>
</linearGradient>
<linearGradient id="paint2_linear" x1="0.00105131" y1="23.9403" x2="5.74484" y2="23.9403" gradientUnits="userSpaceOnUse">
<stop stop-color="#FF9900"/>
<stop offset="1" stop-color="#FF8000"/>
</linearGradient>
<linearGradient id="paint3_linear" x1="6.94757" y1="23.9403" x2="12.6914" y2="23.9403" gradientUnits="userSpaceOnUse">
<stop stop-color="#FF8000"/>
<stop offset="1" stop-color="#CC1953"/>
</linearGradient>
<linearGradient id="paint4_linear" x1="13.8941" y1="23.9403" x2="19.6379" y2="23.9403" gradientUnits="userSpaceOnUse">
<stop stop-color="#CC1953"/>
<stop offset="1" stop-color="#241284"/>
</linearGradient>
<linearGradient id="paint5_linear" x1="20.8339" y1="23.9403" x2="26.5777" y2="23.9403" gradientUnits="userSpaceOnUse">
<stop stop-color="#222B90"/>
<stop offset="1" stop-color="#3559A6"/>
</linearGradient>
<linearGradient id="paint6_linear" x1="13.6674" y1="20.1828" x2="19.8646" y2="18.3706" gradientUnits="userSpaceOnUse">
<stop stop-color="#CC1953"/>
<stop offset="1" stop-color="#241284"/>
</linearGradient>
<linearGradient id="paint7_linear" x1="6.74312" y1="18.157" x2="12.8958" y2="20.3964" gradientUnits="userSpaceOnUse">
<stop offset="0.00266984" stop-color="#FFCC00"/>
<stop offset="0.9999" stop-color="#CE1938"/>
</linearGradient>
<linearGradient id="paint8_linear" x1="7.43034" y1="12.408" x2="12.2086" y2="16.8172" gradientUnits="userSpaceOnUse">
<stop offset="0.00266984" stop-color="#FFD100"/>
<stop offset="1" stop-color="#FD5A22"/>
</linearGradient>
</defs>
</svg>
