<svg width="40" height="40" viewBox="0 0 40 40" fill="none" xmlns="http://www.w3.org/2000/svg">
<path d="M13.336 20C13.336 16.3182 16.3198 13.3328 20.0016 13.3328C23.6833 13.3328 26.6688 16.3182 26.6688 20C26.6688 23.6818 23.6833 26.6672 20.0016 26.6672C16.3198 26.6672 13.336 23.6818 13.336 20ZM9.73181 20C9.73181 25.672 14.3296 30.2698 20.0016 30.2698C25.6736 30.2698 30.2713 25.672 30.2713 20C30.2713 14.328 25.6736 9.73024 20.0016 9.73024C14.3296 9.73024 9.73181 14.328 9.73181 20ZM28.2779 9.32304C28.2777 9.79772 28.4183 10.2618 28.6818 10.6566C28.9454 11.0514 29.3201 11.3591 29.7586 11.5409C30.197 11.7228 30.6796 11.7705 31.1452 11.6781C31.6108 11.5857 32.0385 11.3572 32.3743 11.0217C32.71 10.6862 32.9388 10.2587 33.0316 9.79316C33.1244 9.32764 33.077 8.84506 32.8956 8.40645C32.7141 7.96783 32.4066 7.59288 32.0121 7.32901C31.6175 7.06513 31.1535 6.92419 30.6788 6.924H30.6779C30.0416 6.9243 29.4315 7.17712 28.9815 7.62693C28.5315 8.07675 28.2784 8.68678 28.2779 9.32304ZM11.9216 36.2795C9.97165 36.1907 8.91181 35.8659 8.20749 35.5915C7.27373 35.228 6.60749 34.795 5.90701 34.0955C5.20653 33.396 4.77293 32.7304 4.41101 31.7966C4.13645 31.0926 3.81165 30.0325 3.72301 28.0826C3.62605 25.9744 3.60669 25.3411 3.60669 20.0002C3.60669 14.6592 3.62765 14.0277 3.72301 11.9178C3.81181 9.96784 4.13901 8.90976 4.41101 8.20368C4.77453 7.26992 5.20749 6.60368 5.90701 5.9032C6.60653 5.20272 7.27213 4.76912 8.20749 4.4072C8.91149 4.13264 9.97165 3.80784 11.9216 3.7192C14.0297 3.62224 14.663 3.60288 20.0016 3.60288C25.3401 3.60288 25.9741 3.62384 28.084 3.7192C30.0339 3.808 31.092 4.1352 31.798 4.4072C32.7318 4.76912 33.3981 5.20368 34.0985 5.9032C34.799 6.60272 35.231 7.26992 35.5945 8.20368C35.8691 8.90768 36.1939 9.96784 36.2825 11.9178C36.3795 14.0277 36.3988 14.6592 36.3988 20.0002C36.3988 25.3411 36.3795 25.9726 36.2825 28.0826C36.1937 30.0325 35.8673 31.0923 35.5945 31.7966C35.231 32.7304 34.798 33.3966 34.0985 34.0955C33.399 34.7944 32.7318 35.228 31.798 35.5915C31.094 35.8661 30.0339 36.1909 28.084 36.2795C25.9758 36.3765 25.3425 36.3958 20.0016 36.3958C14.6606 36.3958 14.0291 36.3765 11.9216 36.2795ZM11.756 0.12112C9.62685 0.21808 8.17197 0.55568 6.90141 1.05008C5.58557 1.56064 4.47165 2.2456 3.35853 3.35696C2.24541 4.46832 1.56221 5.584 1.05165 6.89984C0.557252 8.1712 0.219652 9.62528 0.122692 11.7544C0.0241317 13.8869 0.00157166 14.5686 0.00157166 20C0.00157166 25.4314 0.0241317 26.1131 0.122692 28.2456C0.219652 30.3749 0.557252 31.8288 1.05165 33.1002C1.56221 34.4152 2.24557 35.5322 3.35853 36.643C4.47149 37.7539 5.58557 38.4379 6.90141 38.9499C8.17437 39.4443 9.62685 39.7819 11.756 39.8789C13.8896 39.9758 14.5702 40 20.0016 40C25.4329 40 26.1147 39.9774 28.2472 39.8789C30.3764 39.7819 31.8304 39.4443 33.1017 38.9499C34.4168 38.4379 35.5315 37.7544 36.6446 36.643C37.7577 35.5317 38.4395 34.4152 38.9515 33.1002C39.4459 31.8288 39.7851 30.3747 39.8804 28.2456C39.9774 26.1115 40 25.4314 40 20C40 14.5686 39.9774 13.8869 39.8804 11.7544C39.7835 9.62512 39.4459 8.1704 38.9515 6.89984C38.4395 5.5848 37.756 4.47008 36.6446 3.35696C35.5332 2.24384 34.4168 1.56064 33.1033 1.05008C31.8304 0.55568 30.3763 0.21648 28.2488 0.12112C26.1163 0.02416 25.4345 0 20.0032 0C14.5718 0 13.8896 0.02256 11.756 0.12112Z" fill="url(#paint0_radial)"/>
<path d="M13.336 20C13.336 16.3182 16.3198 13.3328 20.0016 13.3328C23.6833 13.3328 26.6688 16.3182 26.6688 20C26.6688 23.6818 23.6833 26.6672 20.0016 26.6672C16.3198 26.6672 13.336 23.6818 13.336 20ZM9.73181 20C9.73181 25.672 14.3296 30.2698 20.0016 30.2698C25.6736 30.2698 30.2713 25.672 30.2713 20C30.2713 14.328 25.6736 9.73024 20.0016 9.73024C14.3296 9.73024 9.73181 14.328 9.73181 20ZM28.2779 9.32304C28.2777 9.79772 28.4183 10.2618 28.6818 10.6566C28.9454 11.0514 29.3201 11.3591 29.7586 11.5409C30.197 11.7228 30.6796 11.7705 31.1452 11.6781C31.6108 11.5857 32.0385 11.3572 32.3743 11.0217C32.71 10.6862 32.9388 10.2587 33.0316 9.79316C33.1244 9.32764 33.077 8.84506 32.8956 8.40645C32.7141 7.96783 32.4066 7.59288 32.0121 7.32901C31.6175 7.06513 31.1535 6.92419 30.6788 6.924H30.6779C30.0416 6.9243 29.4315 7.17712 28.9815 7.62693C28.5315 8.07675 28.2784 8.68678 28.2779 9.32304ZM11.9216 36.2795C9.97165 36.1907 8.91181 35.8659 8.20749 35.5915C7.27373 35.228 6.60749 34.795 5.90701 34.0955C5.20653 33.396 4.77293 32.7304 4.41101 31.7966C4.13645 31.0926 3.81165 30.0325 3.72301 28.0826C3.62605 25.9744 3.60669 25.3411 3.60669 20.0002C3.60669 14.6592 3.62765 14.0277 3.72301 11.9178C3.81181 9.96784 4.13901 8.90976 4.41101 8.20368C4.77453 7.26992 5.20749 6.60368 5.90701 5.9032C6.60653 5.20272 7.27213 4.76912 8.20749 4.4072C8.91149 4.13264 9.97165 3.80784 11.9216 3.7192C14.0297 3.62224 14.663 3.60288 20.0016 3.60288C25.3401 3.60288 25.9741 3.62384 28.084 3.7192C30.0339 3.808 31.092 4.1352 31.798 4.4072C32.7318 4.76912 33.3981 5.20368 34.0985 5.9032C34.799 6.60272 35.231 7.26992 35.5945 8.20368C35.8691 8.90768 36.1939 9.96784 36.2825 11.9178C36.3795 14.0277 36.3988 14.6592 36.3988 20.0002C36.3988 25.3411 36.3795 25.9726 36.2825 28.0826C36.1937 30.0325 35.8673 31.0923 35.5945 31.7966C35.231 32.7304 34.798 33.3966 34.0985 34.0955C33.399 34.7944 32.7318 35.228 31.798 35.5915C31.094 35.8661 30.0339 36.1909 28.084 36.2795C25.9758 36.3765 25.3425 36.3958 20.0016 36.3958C14.6606 36.3958 14.0291 36.3765 11.9216 36.2795ZM11.756 0.12112C9.62685 0.21808 8.17197 0.55568 6.90141 1.05008C5.58557 1.56064 4.47165 2.2456 3.35853 3.35696C2.24541 4.46832 1.56221 5.584 1.05165 6.89984C0.557252 8.1712 0.219652 9.62528 0.122692 11.7544C0.0241317 13.8869 0.00157166 14.5686 0.00157166 20C0.00157166 25.4314 0.0241317 26.1131 0.122692 28.2456C0.219652 30.3749 0.557252 31.8288 1.05165 33.1002C1.56221 34.4152 2.24557 35.5322 3.35853 36.643C4.47149 37.7539 5.58557 38.4379 6.90141 38.9499C8.17437 39.4443 9.62685 39.7819 11.756 39.8789C13.8896 39.9758 14.5702 40 20.0016 40C25.4329 40 26.1147 39.9774 28.2472 39.8789C30.3764 39.7819 31.8304 39.4443 33.1017 38.9499C34.4168 38.4379 35.5315 37.7544 36.6446 36.643C37.7577 35.5317 38.4395 34.4152 38.9515 33.1002C39.4459 31.8288 39.7851 30.3747 39.8804 28.2456C39.9774 26.1115 40 25.4314 40 20C40 14.5686 39.9774 13.8869 39.8804 11.7544C39.7835 9.62512 39.4459 8.1704 38.9515 6.89984C38.4395 5.5848 37.756 4.47008 36.6446 3.35696C35.5332 2.24384 34.4168 1.56064 33.1033 1.05008C31.8304 0.55568 30.3763 0.21648 28.2488 0.12112C26.1163 0.02416 25.4345 0 20.0032 0C14.5718 0 13.8896 0.02256 11.756 0.12112Z" fill="url(#paint1_radial)"/>
<defs>
<radialGradient id="paint0_radial" cx="0" cy="0" r="1" gradientUnits="userSpaceOnUse" gradientTransform="translate(5.31581 40.189) scale(52.2166)">
<stop offset="0.09" stop-color="#FA8F21"/>
<stop offset="0.78" stop-color="#D82D7E"/>
</radialGradient>
<radialGradient id="paint1_radial" cx="0" cy="0" r="1" gradientUnits="userSpaceOnUse" gradientTransform="translate(24.2598 41.981) scale(41.1539)">
<stop offset="0.64" stop-color="#8C3AAA" stop-opacity="0"/>
<stop offset="1" stop-color="#8C3AAA"/>
</radialGradient>
</defs>
</svg>
