<svg width="51" height="74" viewBox="0 0 51 74" fill="none" xmlns="http://www.w3.org/2000/svg">
<path d="M0.326204 68.188C0.088995 68.0278 0.014867 67.7073 0.177948 67.4597C0.34103 67.2266 0.667193 67.1538 0.919228 67.314C1.06748 67.416 1.23057 67.5179 1.40847 67.6199C2.62417 68.3483 3.76574 68.7124 4.69975 68.7124C5.54481 68.7124 6.24161 68.392 6.67156 67.7656C6.70121 67.7219 6.73086 67.6927 6.73086 67.6636C6.84946 67.4597 6.95324 67.2557 7.01254 67.0518C7.13115 66.6294 7.11632 66.1924 6.93842 65.799C6.76051 65.3766 6.38987 64.9833 5.8265 64.6483C5.45586 64.4297 4.98144 64.2258 4.41807 64.0656C2.97998 63.6723 1.92737 63.1042 1.34917 62.3612C0.726495 61.5309 0.682018 60.5404 1.34917 59.3313C1.79394 58.5301 2.6983 58.0349 3.85469 57.9475C4.84801 57.8746 6.04888 58.1077 7.26458 58.7195C7.53144 58.8506 7.63522 59.1711 7.50179 59.4187C7.36836 59.6809 7.04219 59.7829 6.79016 59.6518C5.75237 59.1274 4.75905 58.938 3.94365 58.9963C3.15789 59.0545 2.55004 59.3604 2.29801 59.8412C1.85324 60.6423 1.85324 61.2687 2.22388 61.7494C2.639 62.303 3.51371 62.74 4.71458 63.075C5.3669 63.2498 5.91545 63.4975 6.37504 63.7742C7.13115 64.2258 7.63522 64.7939 7.90208 65.4057C8.18376 66.0321 8.21342 66.7168 8.02068 67.3577C7.93173 67.649 7.7983 67.9549 7.62039 68.2317C7.57592 68.29 7.54626 68.3483 7.53144 68.3774C6.89394 69.3097 5.8858 69.7758 4.6701 69.7758C3.54336 69.7758 2.22388 69.3679 0.830274 68.5376C0.696844 68.4211 0.518937 68.3191 0.326204 68.188Z" fill="#EA501F"/>
<path d="M9.7998 58.4425C9.7998 58.1658 10.037 57.9473 10.3335 57.9473C10.63 57.9473 10.8672 58.1658 10.8672 58.4425V69.2658C10.8672 69.5425 10.63 69.761 10.3335 69.761C10.037 69.761 9.7998 69.5425 9.7998 69.2658V58.4425Z" fill="#EA501F"/>
<path d="M10.8968 65.1872C10.7041 65.4057 10.3779 65.4494 10.1407 65.26C9.91833 65.0706 9.87385 64.7502 10.0666 64.5171C10.882 63.5411 11.8012 62.9439 12.7055 62.6817C13.3579 62.4923 13.9954 62.4777 14.5439 62.6234C15.1221 62.7836 15.6262 63.1041 15.982 63.5994C16.323 64.0655 16.5157 64.6628 16.5157 65.3765V69.2513C16.5157 69.5427 16.2785 69.7757 15.982 69.7757C15.6855 69.7757 15.4483 69.5427 15.4483 69.2513V65.3765C15.4483 64.8813 15.3297 64.488 15.1221 64.1966C14.9145 63.9198 14.6329 63.7305 14.277 63.6285C13.9064 63.5265 13.4765 63.5411 13.0169 63.6722C12.3052 63.8907 11.564 64.386 10.8968 65.1872Z" fill="#EA501F"/>
<path d="M21.7492 62.5215C22.7722 62.5215 23.6913 62.9294 24.3585 63.5849C25.0256 64.2404 25.4408 65.1435 25.4408 66.1487C25.4408 67.1538 25.0256 68.0569 24.3585 68.7124C23.6913 69.368 22.7722 69.7758 21.7492 69.7758C20.7262 69.7758 19.807 69.368 19.1399 68.7124C18.4727 68.0569 18.0576 67.1538 18.0576 66.1487C18.0576 65.1435 18.4727 64.2404 19.1399 63.5849C19.807 62.9294 20.741 62.5215 21.7492 62.5215ZM23.6172 64.3132C23.1428 63.8471 22.4756 63.5557 21.7492 63.5557C21.0227 63.5557 20.3704 63.8471 19.8812 64.3132C19.4067 64.7794 19.1102 65.4349 19.1102 66.1487C19.1102 66.8624 19.4067 67.5179 19.8812 67.9841C20.3556 68.4502 21.0227 68.7416 21.7492 68.7416C22.4756 68.7416 23.128 68.4502 23.6172 67.9841C24.0916 67.5179 24.3881 66.8624 24.3881 66.1487C24.3881 65.4349 24.0916 64.7794 23.6172 64.3132Z" fill="#EA501F"/>
<path d="M26.9529 63.0459C26.9529 62.7546 27.1901 62.5215 27.4866 62.5215C27.7831 62.5215 28.0203 62.7546 28.0203 63.0459V63.7014C28.0648 63.6577 28.0945 63.614 28.1389 63.5849C28.8061 62.9294 29.7253 62.5215 30.7482 62.5215C31.7712 62.5215 32.6904 62.9294 33.3575 63.5849C34.0247 64.2404 34.4398 65.1435 34.4398 66.1487C34.4398 67.1538 34.0247 68.0569 33.3575 68.7124C32.6904 69.368 31.7712 69.7758 30.7482 69.7758C29.7253 69.7758 28.8061 69.368 28.1389 68.7124C28.0945 68.6687 28.0648 68.625 28.0203 68.5959V73.3593C28.0203 73.6506 27.7831 73.8837 27.4866 73.8837C27.1901 73.8837 26.9529 73.6506 26.9529 73.3593V63.0459ZM32.6014 64.3132C32.127 63.8471 31.4599 63.5557 30.7334 63.5557C30.007 63.5557 29.3546 63.8471 28.8654 64.3132C28.391 64.7794 28.0944 65.4349 28.0944 66.1487C28.0944 66.8624 28.391 67.5179 28.8654 67.9841C29.3398 68.4502 30.007 68.7416 30.7334 68.7416C31.4599 68.7416 32.1122 68.4502 32.6014 67.9841C33.0758 67.5179 33.3724 66.8624 33.3724 66.1487C33.3724 65.4349 33.0758 64.7794 32.6014 64.3132Z" fill="#EA501F"/>
<path d="M39.4508 62.5215C40.3551 62.5215 41.1854 62.8711 41.7932 63.4829C42.2973 63.9782 42.5048 64.4735 42.6828 64.9979C43.1423 66.4691 42.2676 66.4109 42.0008 66.4109H37.0935C37.138 66.7605 37.2269 67.0809 37.3307 67.3723C37.5235 67.8239 37.8051 68.1589 38.161 68.392C38.5316 68.625 39.006 68.7416 39.5546 68.7416C40.1476 68.7416 40.8444 68.5813 41.6153 68.2609C41.8822 68.1443 42.1935 68.2754 42.3121 68.5376C42.4307 68.7998 42.2973 69.1057 42.0304 69.2223C41.1409 69.5865 40.3107 69.7613 39.5694 69.7758C38.8133 69.7904 38.1461 69.6156 37.5976 69.266C37.049 68.9164 36.5746 68.4357 36.3522 67.7656C35.8482 66.2943 35.8333 64.8376 37.1083 63.4829C37.7014 62.8565 38.5464 62.5215 39.4508 62.5215ZM41.0519 64.2258C40.622 63.8179 40.0586 63.5703 39.4508 63.5703C38.8429 63.5703 38.2796 63.8179 37.8496 64.2258C37.5383 64.5317 37.2862 64.9105 37.1528 65.3475H41.7636C41.6005 64.9105 41.3633 64.5317 41.0519 64.2258Z" fill="#EA501F"/>
<path d="M47.5455 62.5215C48.4499 62.5215 49.2801 62.8711 49.8879 63.4829C50.392 63.9782 50.5996 64.4735 50.7775 64.9979C51.2371 66.4691 50.3624 66.4109 50.0955 66.4109H45.1882C45.2327 66.7605 45.3217 67.0809 45.4254 67.3723C45.6182 67.8239 45.8999 68.1589 46.2557 68.392C46.6263 68.625 47.1007 68.7416 47.6493 68.7416C48.2423 68.7416 48.9391 68.5813 49.71 68.2609C49.9769 68.1443 50.2882 68.2754 50.4068 68.5376C50.5254 68.7998 50.392 69.1057 50.1252 69.2223C49.2356 69.5865 48.4054 69.7613 47.6641 69.7758C46.908 69.7904 46.2409 69.6156 45.6923 69.266C45.1438 68.9164 44.6693 68.4357 44.447 67.7656C43.9429 66.2943 43.9281 64.8376 45.2031 63.4829C45.7961 62.8565 46.6411 62.5215 47.5455 62.5215ZM49.1467 64.2258C48.7167 63.8179 48.1534 63.5703 47.5455 63.5703C46.9377 63.5703 46.3743 63.8179 45.9443 64.2258C45.633 64.5317 45.381 64.9105 45.2475 65.3475H49.8583C49.6952 64.9105 49.458 64.5317 49.1467 64.2258Z" fill="#EA501F"/>
<path d="M4.07691 15.1638H15.2406C15.5816 11.4493 16.6342 8.11345 18.1464 5.53511C20.1478 2.12645 22.9944 0.0288086 26.2115 0.0288086C29.4287 0.0288086 32.2603 2.14101 34.2766 5.53511C35.7888 8.09889 36.8414 11.4493 37.1824 15.1638H48.3313C49.6507 15.1638 50.8368 16.2272 50.733 17.5237L48.4944 48.2162C48.2127 52.0619 45.7516 54.2615 42.1787 54.2615H10.2444C6.2711 54.2615 4.16587 51.5375 3.92866 48.2162L1.67517 17.5383C1.58622 16.2418 2.75744 15.1638 4.07691 15.1638ZM18.0278 15.1638H34.3656C34.0394 11.9446 33.135 9.08944 31.8452 6.9044C30.3627 4.35519 28.3464 2.76739 26.2115 2.76739C24.0618 2.76739 22.0603 4.35519 20.5481 6.91897C19.2583 9.08944 18.3688 11.9591 18.0278 15.1638Z" fill="#EA501F"/>
<path d="M18.1021 43.4969C17.5832 43.1473 17.4498 42.4626 17.8056 41.9528C18.1614 41.4429 18.8582 41.3118 19.3771 41.6614C19.7033 41.8799 20.0442 42.0984 20.4149 42.3169C23.0242 43.8756 25.4259 44.6476 27.4274 44.6476C29.2361 44.6476 30.7038 43.9776 31.6379 42.6228C31.6972 42.5209 31.7565 42.4626 31.7713 42.4189C32.0381 41.9965 32.2309 41.5449 32.3643 41.1079C32.6312 40.2047 32.5867 39.2724 32.2161 38.4276C31.8158 37.539 31.0448 36.6795 29.844 35.9658C29.0434 35.485 28.0501 35.0626 26.8492 34.7421C23.7951 33.8973 21.5416 32.7028 20.3259 31.1004C18.9916 29.3378 18.8879 27.211 20.3111 24.6327C21.2599 22.9284 23.2021 21.865 25.6631 21.6756C27.7832 21.5154 30.3332 22.0106 32.9277 23.3071C33.4911 23.5839 33.7134 24.2539 33.4169 24.8075C33.1204 25.361 32.4533 25.5795 31.8899 25.2882C29.6809 24.1811 27.5756 23.7587 25.8262 23.8898C24.1509 24.0209 22.8759 24.6618 22.3126 25.6815C21.3637 27.3858 21.3785 28.726 22.1495 29.7457C23.039 30.9256 24.8922 31.8433 27.4719 32.5571C28.8655 32.9504 30.0515 33.4457 31.03 34.0284C32.646 34.9898 33.7283 36.1988 34.3065 37.5098C34.8995 38.8646 34.9736 40.2921 34.5733 41.6906C34.3954 42.3169 34.1137 42.9433 33.7283 43.5551C33.6393 43.6862 33.58 43.7882 33.5355 43.861C32.1567 45.8567 30.0367 46.8472 27.457 46.8618C25.0405 46.8618 22.2236 45.9878 19.2585 44.2106C18.8879 44.0067 18.5024 43.7736 18.1021 43.4969Z" fill="white"/>
</svg>
