<svg width="142" height="32" viewBox="0 0 142 32" fill="none" xmlns="http://www.w3.org/2000/svg">
<g clip-path="url(#clip0)">
<path fill-rule="evenodd" clip-rule="evenodd" d="M44.3435 5.03408C43.8249 3.07705 42.2903 1.53337 40.3379 1.00427C36.8077 0.0546875 22.6437 0.0546875 22.6437 0.0546875C22.6437 0.0546875 8.48697 0.0546875 4.94955 1.00427C3.00444 1.52607 1.46984 3.06993 0.943913 5.03408C3.04288e-05 8.58554 3.05176e-05 16.0001 3.05176e-05 16.0001C3.05176e-05 16.0001 3.04288e-05 23.4149 0.943913 26.9664C1.46258 28.9234 2.99718 30.4671 4.94955 30.9962C8.48697 31.9457 22.6437 31.9457 22.6437 31.9457C22.6437 31.9457 36.8077 31.9457 40.3379 30.9962C42.2832 30.4744 43.8176 28.9305 44.3435 26.9664C45.2874 23.4149 45.2874 16.0003 45.2874 16.0003C45.2874 16.0003 45.2874 8.58554 44.3435 5.03408V5.03408Z" fill="#FF0000"/>
<path fill-rule="evenodd" clip-rule="evenodd" d="M18.1194 22.8352L29.8842 16.0003L18.1194 9.16553V22.8352Z" fill="white"/>
<path fill-rule="evenodd" clip-rule="evenodd" d="M65.7337 29.0685C64.8403 28.4598 64.1991 27.5175 63.8245 26.2347C63.4498 24.9518 63.2552 23.2485 63.2552 21.1175V18.2184C63.2552 16.0658 63.4714 14.3408 63.9036 13.036C64.3359 11.7315 65.0132 10.7821 65.9281 10.1876C66.8431 9.59331 68.0463 9.28896 69.5375 9.28896C71.0073 9.28896 72.1817 9.59331 73.0677 10.2022C73.9538 10.8109 74.6023 11.7605 75.013 13.0506C75.4236 14.3408 75.6255 16.0658 75.6255 18.2111V21.1104C75.6255 23.2412 75.4236 24.9518 75.0273 26.2418C74.6311 27.5319 73.9829 28.4815 73.0822 29.0758C72.1888 29.6701 70.9712 29.9748 69.4366 29.9748C67.8661 29.9817 66.6269 29.6774 65.7337 29.0685V29.0685ZM70.7551 25.9375C71.0001 25.2851 71.1298 24.2196 71.1298 22.7484V16.5224C71.1298 15.0872 71.0073 14.0436 70.7551 13.3768C70.5103 12.7172 70.0707 12.3838 69.4439 12.3838C68.8388 12.3838 68.4136 12.7172 68.1615 13.3768C67.9165 14.0363 67.787 15.0872 67.787 16.5224V22.7484C67.787 24.2269 67.9022 25.2925 68.1399 25.9375C68.3777 26.5898 68.81 26.9159 69.4368 26.9159C70.0707 26.9159 70.503 26.5898 70.7551 25.9375V25.9375ZM134.515 21.1682V22.1759C134.515 23.4587 134.551 24.4154 134.63 25.0604C134.702 25.6983 134.86 26.1694 135.098 26.4595C135.336 26.7492 135.703 26.9015 136.2 26.9015C136.87 26.9015 137.331 26.6406 137.576 26.1186C137.821 25.5968 137.958 24.727 137.98 23.5094L141.834 23.7342C141.856 23.908 141.863 24.1472 141.863 24.4515C141.863 26.2999 141.359 27.6769 140.357 28.5901C139.356 29.5034 137.937 29.96 136.1 29.96C133.895 29.96 132.353 29.2642 131.467 27.8726C130.581 26.481 130.142 24.3356 130.142 21.422V17.9357C130.142 14.9351 130.603 12.7533 131.517 11.3692C132.432 9.99206 134.003 9.30338 136.229 9.30338C137.764 9.30338 138.938 9.58619 139.759 10.1514C140.581 10.7167 141.157 11.5936 141.496 12.7897C141.827 13.9855 142 15.6382 142 17.74V21.1611H134.515V21.1682ZM135.084 12.7606C134.86 13.0434 134.709 13.5072 134.63 14.1451C134.55 14.7828 134.515 15.7615 134.515 17.0586V18.4939H137.785V17.0586C137.785 15.7757 137.742 14.8046 137.656 14.1451C137.569 13.4855 137.411 13.0144 137.187 12.7462C136.964 12.478 136.611 12.3403 136.135 12.3403C135.66 12.333 135.307 12.478 135.084 12.7606ZM54.8549 20.7914L49.7687 2.31639H54.2064L55.986 10.6879C56.4399 12.7535 56.7713 14.5075 56.9874 15.9643H57.117C57.2684 14.9205 57.5998 13.1738 58.1186 10.7167L59.9628 2.30908H64.4007L59.2569 20.7914V29.6556H54.8549V20.7914ZM90.0559 9.6804V29.6483H86.5616L86.1725 27.2058H86.0789C85.1279 29.0541 83.7015 29.9746 81.8067 29.9746C80.4884 29.9746 79.5157 29.5397 78.889 28.6699C78.2622 27.8001 77.9524 26.4449 77.9524 24.5967V9.6804H82.4192V24.3429C82.4192 25.2344 82.5128 25.8723 82.7074 26.2491C82.9019 26.626 83.226 26.8217 83.6799 26.8217C84.069 26.8217 84.4436 26.7056 84.7966 26.4666C85.1495 26.2274 85.4161 25.9229 85.5891 25.5534V9.68021L90.0559 9.6804ZM112.98 9.6804V29.6483H109.486L109.097 27.2058H109.003C108.053 29.0541 106.626 29.9746 104.731 29.9746C103.413 29.9746 102.44 29.5397 101.814 28.6699C101.187 27.8001 100.877 26.4449 100.877 24.5967V9.6804H105.344V24.3429C105.344 25.2344 105.437 25.8723 105.632 26.2491C105.826 26.626 106.151 26.8217 106.604 26.8217C106.994 26.8217 107.368 26.7056 107.721 26.4666C108.074 26.2274 108.341 25.9229 108.514 25.5534V9.68021L112.98 9.6804Z" fill="#282828"/>
<path fill-rule="evenodd" clip-rule="evenodd" d="M102.202 5.93287H97.7646V29.648H93.3914V5.93287H88.9535V2.31623H102.195V5.93287H102.202ZM127.771 12.8762C127.497 11.6152 127.065 10.7019 126.46 10.1367C125.855 9.57124 125.026 9.28862 123.967 9.28862C123.146 9.28862 122.382 9.52049 121.669 9.99172C120.956 10.4555 120.408 11.0717 120.019 11.8326H119.983V1.30859H115.675V29.6553H119.364L119.817 27.7636H119.911C120.257 28.4377 120.776 28.9668 121.467 29.3581C122.159 29.7495 122.923 29.9452 123.766 29.9452C125.279 29.9452 126.388 29.2421 127.101 27.8432C127.814 26.4445 128.168 24.2556 128.168 21.2767V18.1165C128.175 15.8842 128.038 14.1375 127.771 12.8764V12.8762ZM123.672 21.0229C123.672 22.4799 123.614 23.6177 123.492 24.444C123.376 25.2704 123.175 25.8574 122.894 26.2054C122.613 26.5532 122.238 26.7272 121.763 26.7272C121.395 26.7272 121.057 26.6403 120.74 26.4663C120.43 26.2923 120.171 26.0314 119.976 25.6834V14.3405C120.127 13.7968 120.387 13.3548 120.754 13.007C121.122 12.659 121.518 12.485 121.95 12.485C122.404 12.485 122.757 12.6661 123.002 13.0212C123.247 13.3765 123.42 13.9852 123.521 14.826C123.614 15.674 123.665 16.8772 123.665 18.4426V21.0229H123.672Z" fill="#282828"/>
</g>
<defs>
<clipPath id="clip0">
<rect width="142" height="32" fill="white"/>
</clipPath>
</defs>
</svg>
