<svg width="84" height="49" viewBox="0 0 84 49" fill="none" xmlns="http://www.w3.org/2000/svg">
<g clip-path="url(#clip0)">
<path d="M0.955719 22.3267C0.780461 22.3267 0.641357 22.4654 0.618697 22.6632L0.00448608 27.4379L0.618697 32.1303C0.641357 32.328 0.780376 32.4658 0.955719 32.4658C1.12546 32.4658 1.26372 32.329 1.29079 32.132V32.1311V32.132L2.01881 27.4378L1.29079 22.6623C1.26456 22.4653 1.12461 22.3267 0.955719 22.3267ZM4.40988 19.718C4.38094 19.5128 4.23734 19.3714 4.0603 19.3714C3.88232 19.3714 3.73507 19.5175 3.71071 19.718C3.71071 19.7198 2.88509 27.4379 2.88509 27.4379L3.71071 34.9867C3.73422 35.1892 3.88147 35.3353 4.0603 35.3353C4.2364 35.3353 4.38009 35.1929 4.40895 34.9886L5.3483 27.4379L4.40988 19.718ZM17.4209 12.5972C17.0822 12.5972 16.8021 12.8809 16.7859 13.2415L16.1283 27.4443L16.7859 36.6229C16.8031 36.9815 17.0822 37.2644 17.4209 37.2644C17.7579 37.2644 18.037 36.9806 18.0569 36.6211V36.6239L18.8002 27.4443L18.0569 13.2415C18.0369 12.8809 17.7578 12.5972 17.4209 12.5972ZM10.6868 17.5336C10.4267 17.5336 10.2145 17.7462 10.1936 18.03L9.45291 27.4406L10.1936 36.5452C10.2134 36.8271 10.4266 37.0397 10.6868 37.0397C10.9443 37.0397 11.1565 36.8271 11.1792 36.5452L12.021 27.4406L11.1792 18.028C11.1565 17.7462 10.9443 17.5336 10.6868 17.5336ZM24.2643 37.2636C24.6843 37.2636 25.0258 36.9168 25.0429 36.4731L25.6879 27.4489L25.0439 8.53979C25.0267 8.09604 24.6852 7.74939 24.2653 7.74939C23.8416 7.74939 23.4993 8.09699 23.4856 8.54074L22.9139 27.4479L23.4856 36.4759C23.4992 36.916 23.8415 37.2636 24.2643 37.2636ZM38.2744 37.3061C38.8525 37.3061 39.3295 36.8189 39.3403 36.2199V36.2263V36.2199L39.7902 27.4545L39.3402 5.61586C39.3303 5.01777 38.8524 4.52972 38.2743 4.52972C37.6953 4.52972 37.2175 5.0169 37.2084 5.61681L36.8065 27.4471C36.8065 27.461 37.2084 36.2254 37.2084 36.2254C37.2176 36.8189 37.6962 37.3061 38.2744 37.3061ZM31.216 37.2719C31.7192 37.2719 32.1247 36.8586 32.1383 36.3318V36.3382L32.6856 27.4508L32.1374 8.4049C32.1238 7.87794 31.7183 7.46572 31.2151 7.46572C30.7083 7.46572 30.3028 7.87803 30.2919 8.4049L29.8051 27.4518L30.2929 36.3373C30.3037 36.8586 30.7092 37.2719 31.216 37.2719ZM14.0408 37.1887C14.3398 37.1887 14.5819 36.9437 14.6045 36.6211L15.3976 27.4406L14.6045 18.7076C14.5828 18.385 14.3408 18.1418 14.0408 18.1418C13.7374 18.1418 13.4952 18.3868 13.4763 18.7113L12.778 27.4406L13.4763 36.6202C13.4962 36.9437 13.7373 37.1887 14.0408 37.1887ZM7.36008 36.6858C7.57862 36.6858 7.75566 36.5092 7.78095 36.2651L8.67159 27.4387L7.7818 18.2796C7.75557 18.0346 7.57853 17.858 7.35999 17.858C7.13865 17.858 6.96161 18.0355 6.93903 18.2796L6.15499 27.4387L6.93903 36.2633C6.96076 36.5083 7.1378 36.6858 7.36008 36.6858ZM34.7317 8.08779C34.1852 8.08779 33.747 8.53249 33.7363 9.10192L33.2919 27.4526L33.7363 36.2827C33.7471 36.8447 34.1843 37.2894 34.7317 37.2894C35.2773 37.2894 35.7127 36.8457 35.7253 36.2763V36.2836L36.2239 27.4536L35.7253 9.10001C35.7126 8.53249 35.2772 8.08779 34.7317 8.08779ZM20.8299 37.2821C21.2075 37.2821 21.5192 36.9668 21.5373 36.5646L22.231 27.447L21.5373 9.99576C21.5182 9.59266 21.2075 9.27841 20.8299 9.27841C20.4488 9.27841 20.1381 9.59361 20.1218 9.99576L19.5076 27.447L20.1227 36.5684C20.138 36.9668 20.4487 37.2821 20.8299 37.2821ZM28.5766 36.4214V36.4167L29.1727 27.4499L28.5766 7.90382C28.5621 7.41856 28.1882 7.03769 27.7265 7.03769C27.2622 7.03769 26.8883 7.4176 26.8757 7.90382L26.3464 27.4489L26.8766 36.4204C26.8892 36.9011 27.2632 37.281 27.7266 37.281C28.1891 37.281 28.5612 36.9011 28.5767 36.4177V36.4214H28.5766ZM73.6672 16.183C72.2517 16.183 70.9013 16.476 69.671 17.0038C68.8489 7.47493 61.0409 0 51.5166 0C49.1861 0 46.9143 0.469631 44.9081 1.26367C44.1286 1.57244 43.9208 1.89042 43.9136 2.50702V36.0636C43.9218 36.7106 44.4122 37.2496 45.0293 37.3134C45.0555 37.3162 73.4821 37.331 73.6664 37.331C79.3716 37.331 83.9974 32.5969 83.9974 26.7574C83.9973 20.9178 79.3724 16.183 73.6672 16.183ZM41.8017 2.47749C41.1811 2.47749 40.6717 2.99888 40.6626 3.63945L40.1965 27.4572L40.6636 36.1015C40.6717 36.7329 41.1812 37.2534 41.8017 37.2534C42.4204 37.2534 42.9299 36.733 42.9389 36.0923V36.1025L43.4456 27.4572L42.9389 3.63762C42.9299 2.99888 42.4204 2.47749 41.8017 2.47749ZM8.34738 44.0525C7.12524 43.7585 6.79458 43.6014 6.79458 43.1058C6.79458 42.7565 7.07007 42.395 7.8957 42.395C8.60114 42.395 9.15221 42.688 9.64726 43.2066L10.7592 42.1029C10.0322 41.3255 9.15136 40.8632 7.9518 40.8632C6.43066 40.8632 5.19765 41.7424 5.19765 43.1743C5.19765 44.7291 6.18954 45.1914 7.60951 45.5288C9.06284 45.8662 9.32755 46.0927 9.32755 46.6002C9.32755 47.1974 8.89666 47.4571 7.9843 47.4571C7.24635 47.4571 6.55261 47.1983 6.0125 46.554L4.90035 47.569C5.48384 48.4482 6.60846 49.0001 7.89561 49.0001C10.0003 49.0001 10.9252 47.986 10.9252 46.4875C10.9253 44.7736 9.57037 44.3456 8.34738 44.0525ZM15.4417 40.8632C13.3389 40.8632 12.095 42.531 12.095 44.9317C12.095 47.3324 13.3388 48.9991 15.4417 48.9991C17.5447 48.9991 18.7902 47.3324 18.7902 44.9317C18.7902 42.531 17.5447 40.8632 15.4417 40.8632ZM15.4417 47.4341C14.198 47.4341 13.6794 46.3405 13.6794 44.9325C13.6794 43.5237 14.1979 42.4301 15.4417 42.4301C16.6874 42.4301 17.2041 43.5237 17.2041 44.9325C17.2041 46.3405 16.6874 47.4341 15.4417 47.4341ZM25.0131 45.4169C25.0131 46.6788 24.4061 47.4571 23.427 47.4571C22.4469 47.4571 21.8525 46.6565 21.8525 45.3948V40.9862H20.3097V45.417C20.3097 47.7151 21.5662 49.0001 23.4269 49.0001C25.3871 49.0001 26.555 47.6809 26.555 45.3949V40.9862H25.0131V45.4169ZM33.206 44.3234C33.206 44.7634 33.2276 45.7544 33.2276 46.0475C33.1283 45.8441 32.8754 45.4503 32.6884 45.1563L29.9559 40.9853H28.4808V48.8763H30.0011V45.4041C30.0011 44.9641 29.9794 43.973 29.9794 43.68C30.0778 43.8824 30.3325 44.2772 30.5186 44.5712L33.3495 48.8762H34.7261V40.9853H33.2059V44.3234H33.206ZM39.1199 40.9862H36.7081V48.8771H39.0087C40.9914 48.8771 42.9525 47.704 42.9525 44.9317C42.9525 42.0456 41.3221 40.9862 39.1199 40.9862ZM39.0087 47.3443H38.25V42.5198H39.0648C40.6952 42.5198 41.3673 43.3194 41.3673 44.9317C41.3672 46.3747 40.6284 47.3443 39.0087 47.3443ZM47.721 42.4292C48.4148 42.4292 48.8555 42.7454 49.131 43.2862L50.5627 42.6104C50.0776 41.5852 49.196 40.8632 47.7426 40.8632C45.7291 40.8632 44.3181 42.531 44.3181 44.9317C44.3181 47.4221 45.6722 48.9991 47.6874 48.9991C49.0866 48.9991 50.0116 48.3345 50.54 47.2187L49.2411 46.4292C48.8336 47.129 48.4254 47.4332 47.7316 47.4332C46.5754 47.4332 45.9034 46.3506 45.9034 44.9317C45.9027 43.4673 46.5657 42.4292 47.721 42.4292ZM53.4397 40.9862H51.8978V48.8771H56.5317V47.3204H53.4397V40.9862ZM60.5938 40.8632C58.4892 40.8632 57.2453 42.531 57.2453 44.9317C57.2453 47.3324 58.4892 48.9991 60.5938 48.9991C62.6967 48.9991 63.9414 47.3324 63.9414 44.9317C63.9415 42.531 62.6967 40.8632 60.5938 40.8632ZM60.5938 47.4341C59.3482 47.4341 58.8315 46.3405 58.8315 44.9325C58.8315 43.5237 59.3482 42.4301 60.5938 42.4301C61.8368 42.4301 62.3543 43.5237 62.3543 44.9325C62.3543 46.3405 61.8368 47.4341 60.5938 47.4341ZM70.1633 45.4169C70.1633 46.6788 69.5591 47.4571 68.579 47.4571C67.5971 47.4571 67.0036 46.6565 67.0036 45.3948V40.9862H65.4618V45.417C65.4618 47.7151 66.7173 49.0001 68.579 49.0001C70.5392 49.0001 71.7062 47.6809 71.7062 45.3949V40.9862H70.1633V45.4169ZM76.0447 40.9862H73.6338V48.8771H75.9345C77.9181 48.8771 79.8773 47.704 79.8773 44.9317C79.8773 42.0456 78.2478 40.9862 76.0447 40.9862ZM75.9345 47.3443H75.1748V42.5198H75.9905C77.6191 42.5198 78.2911 43.3194 78.2911 44.9317C78.2912 46.3747 77.5531 47.3443 75.9345 47.3443Z" fill="url(#paint0_linear)"/>
</g>
<defs>
<linearGradient id="paint0_linear" x1="41.997" y1="-0.00684274" x2="41.997" y2="48.9934" gradientUnits="userSpaceOnUse">
<stop stop-color="#F79810"/>
<stop offset="1" stop-color="#F8310E"/>
</linearGradient>
<clipPath id="clip0">
<rect width="84" height="49" fill="white"/>
</clipPath>
</defs>
</svg>
