<svg width="79" height="70" viewBox="0 0 79 70" fill="none" xmlns="http://www.w3.org/2000/svg">
<path d="M39 40C50.0457 40 59 31.0457 59 20C59 8.9543 50.0457 0 39 0C27.9543 0 19 8.9543 19 20C19 31.0457 27.9543 40 39 40Z" fill="url(#paint0_linear)"/>
<path d="M27.3237 19.8265L40.7919 14.2774C42.1214 13.6993 46.6301 11.8496 46.6301 11.8496C46.6301 11.8496 48.711 11.0404 48.5376 13.0057C48.4798 13.8149 48.0174 16.6473 47.5549 19.7109L46.1098 28.786C46.1098 28.786 45.9942 30.1155 45.0116 30.3467C44.0289 30.5779 42.4104 29.5375 42.1214 29.3063C41.8902 29.1329 37.7861 26.5317 36.2832 25.26C35.8786 24.9132 35.4162 24.2196 36.3411 23.4103C38.422 21.5028 40.9075 19.1329 42.4104 17.63C43.1041 16.9363 43.7977 15.3178 40.9075 17.2831L32.7572 22.7745C32.7572 22.7745 31.8324 23.3525 30.0983 22.8323C28.3642 22.312 26.3411 21.6184 26.3411 21.6184C26.3411 21.6184 24.9538 20.7514 27.3237 19.8265Z" fill="white"/>
<path d="M4.77148 65H3.1377V56.4072H0.198242V55.0059H7.71094V56.4072H4.77148V65ZM14.4799 65.1367C13.3041 65.1367 12.3835 64.7949 11.7182 64.1113C11.0574 63.4232 10.727 62.4775 10.727 61.2744C10.727 60.0394 11.0346 59.0687 11.6498 58.3623C12.265 57.6559 13.1104 57.3027 14.1859 57.3027C15.184 57.3027 15.9724 57.6058 16.5512 58.2119C17.1299 58.818 17.4193 59.652 17.4193 60.7139V61.582H12.3813C12.404 62.3158 12.6023 62.8809 12.976 63.2773C13.3497 63.6693 13.876 63.8652 14.5551 63.8652C15.0017 63.8652 15.4164 63.8242 15.7992 63.7422C16.1866 63.6556 16.6013 63.5143 17.0434 63.3184V64.624C16.6514 64.8109 16.2549 64.943 15.8539 65.0205C15.4529 65.098 14.9949 65.1367 14.4799 65.1367ZM14.1859 58.5195C13.6755 58.5195 13.2654 58.6813 12.9555 59.0049C12.6501 59.3285 12.4678 59.8001 12.4086 60.4199H15.8402C15.8311 59.7956 15.6807 59.3239 15.3891 59.0049C15.0974 58.6813 14.6964 58.5195 14.1859 58.5195ZM22.951 65H21.3445V54.3633H22.951V65ZM30.6564 65.1367C29.4807 65.1367 28.5601 64.7949 27.8947 64.1113C27.2339 63.4232 26.9035 62.4775 26.9035 61.2744C26.9035 60.0394 27.2111 59.0687 27.8264 58.3623C28.4416 57.6559 29.287 57.3027 30.3625 57.3027C31.3605 57.3027 32.149 57.6058 32.7277 58.2119C33.3065 58.818 33.5959 59.652 33.5959 60.7139V61.582H28.5578C28.5806 62.3158 28.7788 62.8809 29.1525 63.2773C29.5262 63.6693 30.0526 63.8652 30.7316 63.8652C31.1783 63.8652 31.593 63.8242 31.9758 63.7422C32.3632 63.6556 32.7779 63.5143 33.2199 63.3184V64.624C32.828 64.8109 32.4315 64.943 32.0305 65.0205C31.6294 65.098 31.1714 65.1367 30.6564 65.1367ZM30.3625 58.5195C29.8521 58.5195 29.4419 58.6813 29.132 59.0049C28.8267 59.3285 28.6444 59.8001 28.5852 60.4199H32.0168C32.0077 59.7956 31.8573 59.3239 31.5656 59.0049C31.274 58.6813 30.8729 58.5195 30.3625 58.5195ZM43.9059 57.4395V58.3213L42.6139 58.5605C42.7324 58.7201 42.8303 58.916 42.9078 59.1484C42.9853 59.3809 43.024 59.627 43.024 59.8867C43.024 60.666 42.7551 61.279 42.2174 61.7256C41.6796 62.1722 40.9391 62.3955 39.9957 62.3955C39.7542 62.3955 39.5354 62.3773 39.3395 62.3408C38.9931 62.555 38.8199 62.8057 38.8199 63.0928C38.8199 63.266 38.8997 63.3958 39.0592 63.4824C39.2232 63.569 39.5217 63.6123 39.9547 63.6123H41.274C42.108 63.6123 42.7415 63.79 43.1744 64.1455C43.6074 64.501 43.8238 65.0137 43.8238 65.6836C43.8238 66.5404 43.4706 67.2012 42.7643 67.666C42.0579 68.1309 41.037 68.3633 39.7018 68.3633C38.6718 68.3633 37.8857 68.181 37.3434 67.8164C36.801 67.4518 36.5299 66.9323 36.5299 66.2578C36.5299 65.793 36.6757 65.401 36.9674 65.082C37.2636 64.7676 37.676 64.5488 38.2047 64.4258C37.9905 64.3346 37.8128 64.1888 37.6715 63.9883C37.5348 63.7832 37.4664 63.569 37.4664 63.3457C37.4664 63.0632 37.5462 62.8239 37.7057 62.6279C37.8652 62.432 38.1021 62.2383 38.4166 62.0469C38.0247 61.8783 37.7057 61.6048 37.4596 61.2266C37.218 60.8438 37.0973 60.3971 37.0973 59.8867C37.0973 59.0664 37.3548 58.4307 37.8697 57.9795C38.3893 57.5283 39.1275 57.3027 40.0846 57.3027C40.2988 57.3027 40.5221 57.3187 40.7545 57.3506C40.9915 57.3779 41.1692 57.4076 41.2877 57.4395H43.9059ZM37.9654 66.1758C37.9654 66.5221 38.1204 66.7887 38.4303 66.9756C38.7447 67.1624 39.1845 67.2559 39.7496 67.2559C40.6246 67.2559 41.2763 67.1305 41.7047 66.8799C42.1331 66.6292 42.3473 66.2965 42.3473 65.8818C42.3473 65.5537 42.2288 65.319 41.9918 65.1777C41.7594 65.041 41.3242 64.9727 40.6861 64.9727H39.4693C39.0091 64.9727 38.6422 65.0798 38.3688 65.2939C38.0999 65.5127 37.9654 65.8066 37.9654 66.1758ZM38.6559 59.8867C38.6559 60.3607 38.7766 60.7253 39.0182 60.9805C39.2643 61.2357 39.6152 61.3633 40.0709 61.3633C41.0006 61.3633 41.4654 60.8665 41.4654 59.873C41.4654 59.3809 41.3492 59.0026 41.1168 58.7383C40.8889 58.4694 40.5403 58.335 40.0709 58.335C39.6061 58.335 39.2529 58.4671 39.0113 58.7314C38.7744 58.9958 38.6559 59.3809 38.6559 59.8867ZM51.249 57.3027C51.5726 57.3027 51.8392 57.3255 52.0488 57.3711L51.8916 58.8682C51.6637 58.8135 51.4268 58.7861 51.1807 58.7861C50.5381 58.7861 50.0163 58.9958 49.6152 59.415C49.2188 59.8343 49.0205 60.3789 49.0205 61.0488V65H47.4141V57.4395H48.6719L48.8838 58.7725H48.9658C49.2165 58.3213 49.5423 57.9635 49.9434 57.6992C50.349 57.4349 50.7842 57.3027 51.249 57.3027ZM60.2875 65L59.9662 63.9473H59.9115C59.5469 64.4076 59.1801 64.722 58.8109 64.8906C58.4418 65.0547 57.9678 65.1367 57.3891 65.1367C56.6462 65.1367 56.0652 64.9362 55.6459 64.5352C55.2312 64.1341 55.0238 63.5667 55.0238 62.833C55.0238 62.0537 55.3132 61.4658 55.892 61.0693C56.4708 60.6729 57.3526 60.4564 58.5375 60.4199L59.8432 60.3789V59.9756C59.8432 59.4925 59.7292 59.1325 59.5014 58.8955C59.2781 58.654 58.9294 58.5332 58.4555 58.5332C58.0681 58.5332 57.6967 58.5902 57.3412 58.7041C56.9857 58.818 56.6439 58.9525 56.3158 59.1074L55.7963 57.959C56.2064 57.7448 56.6553 57.583 57.143 57.4736C57.6306 57.3597 58.0909 57.3027 58.5238 57.3027C59.4854 57.3027 60.21 57.5124 60.6977 57.9316C61.1898 58.3509 61.4359 59.0094 61.4359 59.9072V65H60.2875ZM57.8949 63.9062C58.4783 63.9062 58.9454 63.7445 59.2963 63.4209C59.6518 63.0928 59.8295 62.6348 59.8295 62.0469V61.3906L58.8588 61.4316C58.1023 61.459 57.5508 61.5866 57.2045 61.8145C56.8627 62.0378 56.6918 62.3818 56.6918 62.8467C56.6918 63.1839 56.7921 63.446 56.9926 63.6328C57.1931 63.8151 57.4939 63.9062 57.8949 63.9062ZM72.1492 65H70.5359V60.3379C70.5359 59.7591 70.4266 59.3285 70.2078 59.0459C69.9891 58.7588 69.6473 58.6152 69.1824 58.6152C68.5626 58.6152 68.1069 58.818 67.8152 59.2236C67.5281 59.6247 67.3846 60.2946 67.3846 61.2334V65H65.7781V57.4395H67.0359L67.2615 58.4307H67.3436C67.5532 58.0706 67.8562 57.7926 68.2527 57.5967C68.6538 57.4007 69.0936 57.3027 69.5721 57.3027C70.7342 57.3027 71.5044 57.6992 71.8826 58.4922H71.992C72.2153 58.1185 72.5297 57.8268 72.9353 57.6172C73.3409 57.4076 73.8058 57.3027 74.3299 57.3027C75.2322 57.3027 75.8885 57.5306 76.2986 57.9863C76.7133 58.4421 76.9207 59.137 76.9207 60.0713V65H75.3143V60.3379C75.3143 59.7591 75.2026 59.3285 74.9793 59.0459C74.7605 58.7588 74.4187 58.6152 73.9539 58.6152C73.3296 58.6152 72.8715 58.8112 72.5799 59.2031C72.2928 59.5905 72.1492 60.1875 72.1492 60.9941V65Z" fill="#2EA6D9"/>
<defs>
<linearGradient id="paint0_linear" x1="45.6682" y1="6.66821" x2="35.6682" y2="30" gradientUnits="userSpaceOnUse">
<stop stop-color="#37AEE2"/>
<stop offset="1" stop-color="#1E96C8"/>
</linearGradient>
</defs>
</svg>
