<svg width="76" height="40" viewBox="0 0 76 40" fill="none" xmlns="http://www.w3.org/2000/svg">
<path d="M0 22.9638H5.76095L8.96148 7.04117H3.20053L0 22.9638ZM4.40073 5.60093H11.2019L12.322 0H5.52091L4.40073 5.60093ZM8.00132 27.4445H13.7623L17.2829 10.2417H21.6036L22.2437 7.04117H18.003L18.163 6.32105C18.403 4.96082 18.8831 3.44057 21.0435 3.44057C22.3237 3.44057 23.5239 3.52058 24.7241 4.08068L25.3642 0.720119C24.004 0.240039 22.5637 0 21.2035 0C16.5627 0 13.3622 2.72045 12.162 7.04117H10.1617L9.52157 10.2417H11.5219L8.00132 27.4445Z" fill="#F03D3D"/>
<path d="M26.2443 23.2836C33.0455 23.2836 37.7662 17.1226 37.7662 12.0818C37.7662 8.32115 34.3257 6.72088 30.9651 6.72088C23.5239 6.72088 19.4432 13.362 19.4432 17.9227C19.4432 21.6834 22.9638 23.2836 26.2443 23.2836ZM44.4874 23.2836C51.2885 23.2836 56.0093 17.1226 56.0093 12.0818C56.0093 8.32115 52.4887 6.72088 49.1281 6.72088C41.6869 6.72088 37.6062 13.362 37.6062 17.9227C37.6062 21.6834 41.2068 23.2836 44.4874 23.2836ZM65.3708 22.9636H71.0518L75.6925 0.319824H69.9316L68.5713 7.04094L66.1709 6.80089C60.57 6.80089 55.4492 14.0021 55.4492 19.1229C55.4492 21.2033 56.8094 23.2836 59.1298 23.2836C62.4103 23.2836 64.7307 21.6834 65.6909 20.0831H66.0109L65.3708 22.9636ZM47.6079 34.8855C43.1361 38.5903 37.3929 40.3994 31.6052 39.9264C24.004 39.4463 18.5631 33.6053 17.6029 27.4443H17.923C19.6832 31.2849 23.924 34.8855 29.1248 35.4456C34.4057 36.0857 40.7267 33.6853 44.1673 30.4048L40.3267 27.4443H51.9286L49.3682 39.7663L47.6879 34.9656L47.6079 34.8855Z" fill="#F03D3D"/>
</svg>
