<svg width="131" height="39" viewBox="0 0 131 39" fill="none" xmlns="http://www.w3.org/2000/svg">
<path d="M14.261 0.365723C6.40161 0.365723 0.0338135 6.73316 0.0338135 14.5919C0.0338135 19.5781 3.19126 23.1727 6.4901 26.4992L19.3889 38.694C20.0648 39.333 21.1768 38.8535 21.1768 37.9233V28.4225C21.1768 25.6737 23.4025 23.4443 26.1506 23.4399C28.8983 23.4444 31.1253 25.6737 31.1253 28.4225V37.9233C31.1253 38.8535 32.2373 39.333 32.9132 38.694L45.811 26.4992C49.11 23.1727 52.2683 19.5779 52.2683 14.5919C52.2683 6.7335 45.9017 0.366255 38.0421 0.365723H38.0411C33.1094 0.366075 28.7031 2.97861 26.1515 6.79452C23.5997 2.97855 19.1935 0.365723 14.261 0.365723H14.261ZM10.8601 4.70722C11.1768 4.71778 11.4817 4.88111 11.6622 5.16965C11.9517 5.6296 11.8124 6.23891 11.351 6.52846C9.1417 7.91334 7.41201 11.1592 7.41201 13.9175V13.9656C7.41201 17.3632 9.3428 20.7969 13.1506 24.1703C13.5593 24.5323 13.5964 25.1554 13.236 25.5625C13.041 25.7827 12.7692 25.8934 12.4977 25.8934C12.265 25.8934 12.0318 25.8128 11.8438 25.647C7.59619 21.8814 5.44155 17.9518 5.44155 13.9656V13.9175C5.44155 10.4922 7.53262 6.59671 10.3034 4.85744C10.4763 4.74936 10.6706 4.70069 10.8601 4.70722ZM41.442 4.70722C41.6321 4.70069 41.8258 4.74935 41.9987 4.85744C44.77 6.59671 46.8606 10.4922 46.8606 13.9175V13.9656C46.8606 17.9518 44.7064 21.8814 40.4583 25.647C40.2708 25.8128 40.0371 25.8934 39.8044 25.8934C39.5335 25.8934 39.2611 25.7827 39.0661 25.5625C38.7047 25.1554 38.7424 24.5323 39.1505 24.1703C42.9583 20.7969 44.8891 17.3632 44.8891 13.9656V13.9175C44.8891 11.1592 43.1589 7.91236 40.9502 6.52747C40.4887 6.23793 40.3504 5.6296 40.6399 5.16965C40.8204 4.88111 41.1259 4.71778 41.442 4.70722ZM18.0429 7.22749C18.4259 7.19532 18.8077 7.38987 18.9982 7.75079C19.2515 8.23286 19.0674 8.82825 18.5848 9.08211C16.6098 10.1211 15.3804 12.1491 15.3754 14.3769C15.3809 16.8009 16.9168 19.2849 19.1985 20.5632C19.674 20.8281 19.8429 21.4293 19.5774 21.9044C19.397 22.2266 19.0622 22.409 18.7174 22.409C18.553 22.409 18.3876 22.3688 18.2353 22.2833C15.3555 20.6707 13.4165 17.5027 13.4039 14.3926V14.3632C13.4155 11.4054 15.0459 8.7158 17.6669 7.33745C17.7875 7.27411 17.9152 7.23854 18.0429 7.22749V7.22749ZM34.2592 7.22749C34.3869 7.23855 34.5151 7.27409 34.6352 7.33745C37.2562 8.71581 38.8861 11.4054 38.8982 14.3632V14.3926C38.8856 17.5027 36.9466 20.6707 34.0668 22.2833C33.9145 22.3688 33.7491 22.409 33.5847 22.409C33.2399 22.409 32.9047 22.2266 32.7237 21.9044C32.4583 21.4293 32.6281 20.8281 33.1036 20.5632C35.3858 19.2849 36.9197 16.8009 36.9258 14.3769C36.9207 12.1491 35.6928 10.1212 33.7173 9.08211C33.2352 8.82826 33.0491 8.23287 33.303 7.7508C33.493 7.38987 33.8767 7.19532 34.2592 7.22749ZM26.1506 10.8297C28.5127 10.8312 30.4273 12.7463 30.4273 15.1084C30.4273 17.4705 28.5127 19.3855 26.1506 19.387C23.789 19.3855 21.8748 17.4705 21.8748 15.1084C21.8748 12.7463 23.789 10.8312 26.1506 10.8297Z" fill="#C6002B"/>
<path d="M122.185 22.5396C117.35 22.5396 114.057 26.379 114.057 30.7644V30.8081C114.057 35.192 117.299 38.9857 122.14 38.9857C126.976 38.9857 130.274 35.1468 130.274 30.7644V30.7182C130.274 26.3333 127.026 22.5396 122.185 22.5396ZM79.1963 22.631C78.6232 22.631 78.2864 22.9261 78.0602 23.4273L71.6058 37.5325C71.5153 37.7145 71.4952 37.8738 71.4952 38.009C71.4952 38.4635 71.8571 38.8269 72.3096 38.8269C72.7218 38.8269 73.0183 38.6002 73.1742 38.2131L74.833 34.5109H83.5545L85.2134 38.1679C85.3742 38.5313 85.6658 38.8269 86.0981 38.8269C86.5756 38.8269 86.9627 38.4393 86.9627 37.9638C86.9627 37.8271 86.9174 37.6692 86.8521 37.5099L80.3977 23.4273C80.1966 22.9261 79.8296 22.631 79.2868 22.631H79.1963ZM109.196 22.6989C108.719 22.6989 108.312 23.1091 108.312 23.6077V37.9175C108.312 38.4172 108.719 38.8269 109.196 38.8269C109.694 38.8269 110.101 38.4172 110.101 37.9175V23.6077C110.101 23.1091 109.694 22.6989 109.196 22.6989ZM57.0482 22.8125C56.5706 22.8125 56.1635 23.2217 56.1635 23.7219V37.9175C56.1635 38.4172 56.5706 38.8269 57.0482 38.8269C57.5509 38.8269 57.958 38.4172 57.958 37.9175V32.5343H62.5224L66.9962 38.3493C67.2023 38.6223 67.4738 38.8269 67.8407 38.8269C68.2931 38.8269 68.7455 38.4172 68.7455 37.9402C68.7455 37.6908 68.635 37.4878 68.454 37.2822L64.5029 32.1945C66.9761 31.7165 68.7455 30.1959 68.7455 27.5829V27.5382C68.7455 26.288 68.2931 25.1746 67.519 24.403C66.5237 23.4037 64.9553 22.8125 62.9999 22.8125H57.0482ZM91.2757 22.8125C90.7981 22.8125 90.391 23.2217 90.391 23.7219V37.8044C90.391 38.3046 90.7981 38.7128 91.2757 38.7128H95.9104C100.907 38.7128 104.36 35.2368 104.36 30.7644V30.7182C104.36 26.2428 100.907 22.8125 95.9104 22.8125H91.2757ZM122.14 24.1989C125.775 24.1989 128.409 27.1511 128.409 30.7644V30.8081C128.409 34.4204 125.82 37.3284 122.185 37.3284C118.551 37.3284 115.917 34.3752 115.917 30.7644V30.7182C115.917 27.1074 118.506 24.1989 122.14 24.1989ZM57.958 24.4719H62.8642C65.4329 24.4719 66.9309 25.6516 66.9309 27.6066V27.6518C66.9309 29.6947 65.2268 30.9222 62.8441 30.9222H57.958V24.4719ZM92.1855 24.4719H95.9104C99.9268 24.4719 102.496 27.2421 102.496 30.7644V30.8081C102.496 34.3304 99.9268 37.0565 95.9104 37.0565H92.1855V24.4719ZM79.1963 24.7438L82.8508 32.8762H75.5368L79.1963 24.7438Z" fill="#939697"/>
<path d="M58.9734 0.823242C57.6061 0.823242 56.4952 1.93311 56.4952 3.30327C56.4952 4.67327 57.6061 5.78419 58.9734 5.78419C60.3457 5.78419 61.4567 4.67327 61.4567 3.30327C61.4567 1.93311 60.3457 0.823242 58.9734 0.823242ZM63.5579 2.06325V19.2841H68.3333V12.7412H74.456V19.2841H79.2264V2.06325L74.456 2.06315V8.50953H68.3333V2.06315L63.5579 2.06305V2.06325ZM121.552 2.60524V5.97572H119.984V9.73878H121.552V15.1527C121.552 18.3236 123.231 19.5561 126.031 19.5561C127.338 19.5561 128.444 19.259 129.278 18.791V15.127C128.715 15.397 128.122 15.5689 127.509 15.5689C126.649 15.5689 126.227 15.1763 126.227 14.2413V9.73878H129.329V5.97572H126.227V2.60524H121.552ZM87.3196 5.68115C83.3836 5.68115 80.6038 8.75554 80.6038 12.6423V12.692C80.6038 16.8246 83.5545 19.6039 87.7368 19.6039C90.396 19.6039 92.2408 18.5216 93.5226 16.8975L90.9389 14.757C89.9787 15.693 89.094 16.1128 87.9831 16.1128C86.5354 16.1128 85.4747 15.3733 85.1078 13.9216H94.0102C94.0354 13.6004 94.0354 13.2565 94.0354 12.962C94.0354 9.05011 91.9191 5.68115 87.3196 5.68115ZM100.817 5.68316C98.1573 5.68316 96.3125 6.76593 95.0307 8.39009L97.6145 10.5305C98.5746 9.59451 99.4593 9.17427 100.57 9.17427C102.003 9.17427 103.053 9.89863 103.43 11.3187L103.435 11.4208L100.359 11.4333C96.5337 11.4836 94.528 12.9087 94.528 15.6091C94.528 18.2094 96.3779 19.6039 99.5699 19.6039C101.299 19.6039 102.626 18.9253 103.516 18.0008V19.2842H107.94V12.773C107.945 12.7292 107.945 12.69 107.945 12.6453V12.596C107.945 8.46298 104.994 5.68316 100.817 5.68316ZM118.229 5.75001C116.269 5.80581 115.143 6.94941 114.429 8.65601V5.97572H109.754V19.2842H114.429V15.1516C114.429 12.0757 115.806 10.6748 118.239 10.6748H118.632V5.75403C118.496 5.748 118.36 5.74599 118.229 5.75001ZM58.888 6.95142C57.5408 6.95142 56.45 8.04425 56.45 9.39244V19.2842H61.5019V9.39244C61.5019 8.04425 60.4111 6.95142 59.0589 6.95142H58.888ZM87.3447 9.12451C88.6215 9.12451 89.657 10.0484 89.657 11.471H85.0324C85.143 10.0746 86.1131 9.12451 87.3447 9.12451ZM100.852 13.9135H103.521V14.0588C103.501 14.6057 103.28 16.527 100.967 16.6265C99.7559 16.6783 99.037 15.9806 99.037 15.1426C99.037 14.3328 99.6805 13.9135 100.852 13.9135Z" fill="black"/>
</svg>
