<svg width="122" height="24" viewBox="0 0 122 24" fill="none" xmlns="http://www.w3.org/2000/svg">
<path d="M7.78192 23.5431H3.18943V11.982H0.0609436V8.21797H3.18931V5.53957C3.18931 2.36566 4.57299 0.0893555 9.15305 0.0893555C10.1217 0.0893555 11.6425 0.286525 11.6425 0.286525V3.78166H10.0452C8.41764 3.78166 7.78217 4.2816 7.78217 5.66376V8.21797H11.5816L11.2433 11.982H7.78205L7.78192 23.5431ZM18.3195 7.91717C18.2526 7.91717 18.1837 7.91963 18.1156 7.92136C13.8572 7.92136 11.9088 11.1561 11.9088 15.7478C11.9088 21.5322 14.4361 23.8473 18.1489 23.8473C20.2731 23.8473 21.6687 22.9444 22.517 21.2594V23.5447H26.8851V8.21957H22.517V10.5764C21.8244 9.06006 20.3897 7.93514 18.3195 7.91717ZM19.4302 11.5385C21.2187 11.5385 22.2922 12.7983 22.2922 14.9412L22.2964 17.1298C22.2964 18.5742 21.4097 20.2639 19.4302 20.2639C16.3869 20.2639 16.4682 16.9455 16.4682 15.8402C16.4682 12.1225 18.0896 11.5385 19.4302 11.5385ZM28.6492 15.883C28.6492 14.0207 28.5609 7.92714 36.4226 7.92714C39.5783 7.92714 40.8961 8.94043 40.8961 8.94043L39.837 12.2577C39.837 12.2577 38.5209 11.5259 36.8061 11.5259C34.6097 11.5259 33.2083 12.8117 33.2083 15.074L33.2107 16.6961C33.2107 18.8699 34.5629 20.321 36.8106 20.321C38.3729 20.321 39.8127 19.5823 39.8127 19.5823L40.8692 22.8303C40.8692 22.8303 39.6643 23.85 36.4446 23.85C28.9591 23.85 28.6493 18.3829 28.6493 15.883H28.6492ZM66.5079 7.92136C70.7665 7.92136 72.7455 11.1561 72.7455 15.7478C72.7455 21.5322 70.2181 23.8473 66.5054 23.8473C64.3812 23.8473 62.8109 22.9445 61.9626 21.2594V23.5447L57.6495 23.543V0.555325L62.2289 0.152002V10.3687C62.8899 8.58129 65.062 7.92136 66.508 7.92136H66.5079ZM65.2241 11.5385C63.4355 11.5385 62.2289 12.7983 62.2289 14.9412L62.2246 17.1298C62.222 18.5742 63.0602 20.2639 65.2241 20.2639C68.2674 20.2639 68.1861 16.9455 68.1861 15.8402C68.1861 12.1225 66.5647 11.5385 65.2241 11.5385ZM48.8418 7.93403C44.0118 7.93403 41.4619 10.5934 41.4619 15.3193V16.1973C41.4619 22.3311 45.0428 23.9103 49.3119 23.9103C53.4615 23.9103 55.3398 22.7382 55.3398 22.7382L54.4828 19.617C54.4828 19.617 52.2734 20.5663 49.861 20.5663C47.36 20.5663 46.2844 19.9226 46.0088 17.4955H55.7059V14.9915C55.7059 9.86511 52.8441 7.93391 48.8417 7.93391L48.8418 7.93403ZM48.9582 11.0594C50.6301 11.0594 51.7135 12.0948 51.654 14.4959H46.0172C46.1149 11.9687 47.2832 11.0596 48.9582 11.0596V11.0594ZM81.8768 7.91299C76.9167 7.91299 74.3055 10.7356 74.3055 15.794C74.3055 22.7343 78.8066 23.8514 81.885 23.8514C86.3916 23.8514 89.3898 21.4014 89.3898 15.857C89.3898 10.0863 86.0187 7.91299 81.8768 7.91299ZM81.8144 11.551C83.9954 11.551 84.8596 13.1994 84.8596 15.0757V16.6889C84.8596 18.9618 83.6503 20.2766 81.8061 20.2766C80.0813 20.2766 78.8691 19.0468 78.8691 16.6889V15.0757C78.8691 12.561 80.3115 11.551 81.8144 11.551ZM98.5129 7.91299C93.5528 7.91299 90.9416 10.7356 90.9416 15.794C90.9416 22.7343 95.4428 23.8514 98.5212 23.8514C103.028 23.8514 106.026 21.4014 106.026 15.857C106.026 10.0863 102.655 7.91299 98.5129 7.91299ZM98.4505 11.551C100.631 11.551 101.496 13.1994 101.496 15.0757V16.6889C101.496 18.9618 100.286 20.2766 98.4422 20.2766C96.7174 20.2766 95.5052 19.0468 95.5052 16.6889V15.0757C95.5052 12.561 96.9476 11.551 98.4505 11.551ZM107.756 23.5431V0.555325L112.349 0.152125V15.56L116.906 8.21809H121.756L117.003 15.8222L121.939 23.5431H117.075L112.349 16.046V23.5431H107.756Z" fill="#1877F2"/>
</svg>
