<svg width="138" height="45" viewBox="0 0 138 45" fill="none" xmlns="http://www.w3.org/2000/svg">
<g clip-path="url(#clip0)">
<path d="M20.5983 20.133H12.128V22.5002H20.5983V31.9751H7.28786L2.44769 27.2383V2.36865H12.128V10.6581H20.5983V20.133ZM56.8996 31.9751H27.8586L23.0184 27.2383V10.6581H32.6987V22.5002H35.1188V10.6581H44.7992V22.5002H47.2192V10.6581H56.8996V31.9751ZM59.3197 10.6581H69V31.9739H59.3197V10.6581ZM59.3197 2.36865H69V8.2897H59.3197V2.36865ZM89.5707 20.133H81.1004V22.5002H89.5707V31.9751H76.2602L71.4201 27.2383V2.36865H81.1004V10.6581H89.5707V20.133ZM111.351 20.133H101.671V22.5002H111.351V31.9751H96.831L91.9908 27.2383V15.3962L96.831 10.6581H111.351V20.133ZM135.552 31.9751H125.872V20.133H123.452V31.9751H113.772V2.36865H123.452V10.6581H130.712L135.552 15.3962V31.9751Z" fill="white"/>
<path d="M131.923 8.28947H125.872V0H112.587L106.478 8.28947H95.6213L91.9912 11.8421V8.28947H83.5209V0H56.9V8.28947H19.4492L13.3384 0H0.0279846V28.4211L16.9686 45H33.9092V40.2632L38.7493 45H71.4205V40.2632L76.2606 45H91.9912V40.2632L96.8313 45H127.082L137.973 34.3421V14.2105L131.923 8.28947ZM20.5987 20.1316H12.1284V22.5H20.5987V31.9737H7.28824L2.44807 27.2368V2.36842H12.1284V10.6579H20.5987V20.1316ZM56.9 31.9737H27.859L23.0188 27.2368V10.6579H32.6991V22.5H35.1192V10.6579H44.7995V22.5H47.2196V10.6579H56.9V31.9737ZM69.0004 31.9737H59.32V10.6579H69.0004V31.9737ZM69.0004 8.28947H59.32V2.36842H69.0004V8.28947ZM89.5711 20.1316H81.1008V22.5H89.5711V31.9737H76.2606L71.4205 27.2368V2.36842H81.1008V10.6579H89.5711V20.1316ZM111.352 20.1316H101.672V22.5H111.352V31.9737H96.8313L91.9912 27.2368V15.3947L96.8313 10.6579H111.352V20.1316ZM135.553 31.9737H125.872V20.1316H123.452V31.9737H113.772V2.36842H123.452V10.6579H130.713L135.553 15.3947V31.9737Z" fill="#9146FF"/>
</g>
<defs>
<clipPath id="clip0">
<rect width="138" height="45" fill="white"/>
</clipPath>
</defs>
</svg>
