<svg width="49" height="40" viewBox="0 0 49 40" fill="none" xmlns="http://www.w3.org/2000/svg">
<path d="M48.5714 0.0224161C46.4572 1.52819 44.1163 2.67986 41.639 3.43309C40.3093 1.88939 38.5422 0.795261 36.5766 0.298672C34.611 -0.197917 32.5417 -0.0730032 30.6488 0.656519C28.7558 1.38604 27.1303 2.68497 25.9923 4.37764C24.8543 6.0703 24.2586 8.07502 24.2857 10.1207V12.3499C20.4058 12.4515 16.5613 11.5826 13.0944 9.82073C9.62762 8.05885 6.64615 5.45862 4.41558 2.25161C4.41558 2.25161 -4.41558 22.3144 15.4545 31.2312C10.9077 34.3475 5.49113 35.9101 0 35.6896C19.8701 46.8356 44.1558 35.6896 44.1558 10.0538C44.1538 9.43287 44.0947 8.81347 43.9792 8.20357C46.2325 5.95987 47.8226 3.12705 48.5714 0.0224161Z" fill="#2A7DDB"/>
</svg>
