<?xml version="1.0" standalone="no"?>
<!DOCTYPE svg PUBLIC "-//W3C//DTD SVG 20010904//EN"
 "http://www.w3.org/TR/2001/REC-SVG-20010904/DTD/svg10.dtd">
<svg version="1.0" xmlns="http://www.w3.org/2000/svg"
 width="81.000000pt" height="81.000000pt" viewBox="0 0 81.000000 81.000000"
 preserveAspectRatio="xMidYMid meet">
<metadata>
Created by potrace 1.14, written by Peter Selinger 2001-2017
</metadata>
<g transform="translate(0.000000,81.000000) scale(0.100000,-0.100000)"
fill="#000000" stroke="none">
<path d="M371 686 c-72 -26 -131 -112 -131 -190 0 -18 5 -26 18 -26 13 0 18
10 19 42 8 124 159 195 262 123 95 -65 101 -193 12 -268 -17 -14 -36 -27 -42
-29 -15 -5 -3 -28 14 -28 24 0 90 64 108 104 74 164 -89 334 -260 272z"/>
<path d="M383 615 c-34 -14 -73 -67 -73 -97 0 -29 27 -20 40 13 45 108 210 66
193 -49 -5 -30 -43 -73 -75 -85 -11 -4 -11 -7 0 -18 17 -19 58 4 89 50 75 112
-47 242 -174 186z"/>
<path d="M347 469 c-57 -56 -73 -67 -76 -52 -7 39 -63 46 -85 11 -19 -30 -40
-161 -32 -201 13 -69 89 -122 162 -113 51 6 83 26 142 90 56 61 55 69 -10 148
-24 29 -23 35 17 79 40 45 43 61 15 89 -33 33 -56 24 -133 -51z m113 18 c0 -6
-26 -38 -57 -70 -40 -40 -51 -57 -36 -53 28 9 37 -7 22 -36 -11 -20 -10 -21 3
-10 9 7 23 10 32 6 12 -5 13 -10 5 -26 -9 -17 -8 -19 10 -13 16 5 21 2 21 -12
0 -26 -89 -111 -128 -122 -69 -20 -152 40 -147 106 2 15 8 59 15 96 13 74 29
83 44 26 5 -19 11 -36 13 -38 2 -3 43 35 93 83 81 79 110 96 110 63z"/>
</g>
</svg>
