<svg width="46" height="46" viewBox="0 0 46 46" fill="none" xmlns="http://www.w3.org/2000/svg">
<rect width="46" height="46" rx="3" fill="#0A2156"/>
<path d="M17.112 28.304C16.184 28.304 15.3893 28.1547 14.728 27.856C14.0667 27.5573 13.528 27.1413 13.112 26.608C12.696 26.0747 12.392 25.4667 12.2 24.784C12.008 24.1013 11.912 23.376 11.912 22.608V21.696C11.912 20.64 12.0987 19.68 12.472 18.816C12.8453 17.9413 13.416 17.248 14.184 16.736C14.952 16.224 15.928 15.968 17.112 15.968C18.296 15.968 19.2667 16.224 20.024 16.736C20.792 17.248 21.3627 17.9413 21.736 18.816C22.1093 19.68 22.296 20.64 22.296 21.696V22.608C22.296 23.376 22.1947 24.1013 21.992 24.784C21.8 25.4667 21.496 26.0747 21.08 26.608C20.6747 27.1413 20.1413 27.5573 19.48 27.856C18.8293 28.1547 18.04 28.304 17.112 28.304ZM17.112 25.888C17.976 25.888 18.616 25.5893 19.032 24.992C19.4587 24.384 19.672 23.4453 19.672 22.176C19.672 20.832 19.4533 19.8667 19.016 19.28C18.5893 18.6827 17.9547 18.384 17.112 18.384C16.2587 18.384 15.6133 18.6773 15.176 19.264C14.7493 19.8507 14.536 20.8107 14.536 22.144C14.536 23.4347 14.744 24.384 15.16 24.992C15.5867 25.5893 16.2373 25.888 17.112 25.888ZM24.0511 25.76V23.024L28.4831 15.984L30.5151 17.312L26.7231 23.344L26.9471 23.68H30.1791V19.584H32.5951V23.68H33.9391V25.76H32.5951V28H30.1791V25.76H24.0511Z" fill="white"/>
</svg>
