<svg width="33" height="33" viewBox="0 0 33 33" fill="none" xmlns="http://www.w3.org/2000/svg">
<path opacity="0.1" fill-rule="evenodd" clip-rule="evenodd" d="M28.1673 4.83275C34.6109 11.2764 34.6109 21.7236 28.1673 28.1673C21.7236 34.6109 11.2764 34.6109 4.83275 28.1673C-1.61092 21.7236 -1.61092 11.2764 4.83275 4.83275C11.2764 -1.61092 21.7236 -1.61092 28.1673 4.83275" fill="#0A2156"/>
<path d="M23.375 24.522L22.9575 23.4735C22.7464 22.9415 22.4183 22.4643 21.9985 22.0754L21.9221 22.0051C21.2613 21.3919 20.3929 21.0508 19.4911 21.0508H13.5101C12.6083 21.0508 11.7399 21.3919 11.0779 22.0039L11.0016 22.0754C10.5817 22.4643 10.2548 22.9415 10.0425 23.4735L9.625 24.522" stroke="#0A2156" stroke-width="1.5" stroke-linecap="round" stroke-linejoin="round"/>
<path d="M19.4553 10.8478C21.0857 12.4783 21.0857 15.1217 19.4553 16.7522C17.8248 18.3826 15.1814 18.3826 13.551 16.7522C11.9205 15.1217 11.9205 12.4783 13.551 10.8478C15.1814 9.21739 17.8248 9.21739 19.4553 10.8478" stroke="#0A2156" stroke-width="1.5" stroke-linecap="round" stroke-linejoin="round"/>
</svg>
