<svg width="27" height="27" viewBox="0 0 27 27" fill="none" xmlns="http://www.w3.org/2000/svg">
<path d="M10.9294 14.6669C11.4663 15.3846 12.1511 15.9784 12.9376 16.4081C13.7241 16.8378 14.5938 17.0933 15.4878 17.1574C16.3817 17.2214 17.2789 17.0924 18.1186 16.7792C18.9583 16.4659 19.7208 15.9758 20.3544 15.3419L24.1044 11.5919C25.2429 10.4132 25.8729 8.83442 25.8587 7.19569C25.8444 5.55696 25.1871 3.98938 24.0283 2.83058C22.8695 1.67178 21.3019 1.01448 19.6632 1.00024C18.0245 0.985996 16.4457 1.61596 15.2669 2.75445L13.1169 4.89195" stroke="#4070F4" stroke-opacity="0.74" stroke-width="2" stroke-linecap="round" stroke-linejoin="round"/>
<path d="M15.9294 12.167C15.3926 11.4494 14.7078 10.8556 13.9213 10.4259C13.1348 9.99616 12.2651 9.74063 11.3711 9.67661C10.4772 9.61259 9.57997 9.74157 8.74027 10.0548C7.90057 10.368 7.13806 10.8582 6.50445 11.492L2.75445 15.242C1.61596 16.4208 0.985996 17.9996 1.00024 19.6383C1.01448 21.277 1.67178 22.8446 2.83058 24.0034C3.98938 25.1622 5.55696 25.8195 7.19569 25.8337C8.83442 25.848 10.4132 25.218 11.5919 24.0795L13.7294 21.942" stroke="#87A7FF" stroke-opacity="0.5" stroke-width="2" stroke-linecap="round" stroke-linejoin="round"/>
</svg>
