<svg width="46" height="46" viewBox="0 0 46 46" fill="none" xmlns="http://www.w3.org/2000/svg">
<rect width="46" height="46" rx="3" fill="#0A2156"/>
<path d="M19.112 28.304C18.184 28.304 17.3893 28.1547 16.728 27.856C16.0667 27.5573 15.528 27.1413 15.112 26.608C14.696 26.0747 14.392 25.4667 14.2 24.784C14.008 24.1013 13.912 23.376 13.912 22.608V21.696C13.912 20.64 14.0987 19.68 14.472 18.816C14.8453 17.9413 15.416 17.248 16.184 16.736C16.952 16.224 17.928 15.968 19.112 15.968C20.296 15.968 21.2667 16.224 22.024 16.736C22.792 17.248 23.3627 17.9413 23.736 18.816C24.1093 19.68 24.296 20.64 24.296 21.696V22.608C24.296 23.376 24.1947 24.1013 23.992 24.784C23.8 25.4667 23.496 26.0747 23.08 26.608C22.6747 27.1413 22.1413 27.5573 21.48 27.856C20.8293 28.1547 20.04 28.304 19.112 28.304ZM19.112 25.888C19.976 25.888 20.616 25.5893 21.032 24.992C21.4587 24.384 21.672 23.4453 21.672 22.176C21.672 20.832 21.4533 19.8667 21.016 19.28C20.5893 18.6827 19.9547 18.384 19.112 18.384C18.2587 18.384 17.6133 18.6773 17.176 19.264C16.7493 19.8507 16.536 20.8107 16.536 22.144C16.536 23.4347 16.744 24.384 17.16 24.992C17.5867 25.5893 18.2373 25.888 19.112 25.888ZM28.3391 28V18.592H26.0511V16.32H30.9471V28H28.3391Z" fill="white"/>
</svg>
