<svg width="43" height="35" viewBox="0 0 43 35" fill="none" xmlns="http://www.w3.org/2000/svg">
<path d="M26.6 34.6588C26.2267 34.6588 26.04 34.4721 26.04 34.0987V17.8587C26.04 14.4987 26.8333 11.5121 28.42 8.89875C30.0067 6.19208 32.06 4.09208 34.58 2.59875C37.1933 1.01208 39.9933 0.21875 42.98 0.21875V8.89875C40.6467 8.89875 38.64 9.78541 36.96 11.5587C35.3733 13.3321 34.58 15.4321 34.58 17.8587H42.42C42.7933 17.8587 42.98 18.0454 42.98 18.4188V34.0987C42.98 34.4721 42.7933 34.6588 42.42 34.6588H26.6ZM0.56 34.6588C0.186667 34.6588 0 34.4721 0 34.0987V17.8587C0 14.4987 0.793333 11.5121 2.38 8.89875C3.96667 6.19208 6.02 4.09208 8.54 2.59875C11.1533 1.01208 13.9533 0.21875 16.94 0.21875V8.89875C14.6067 8.89875 12.6 9.78541 10.92 11.5587C9.33333 13.3321 8.54 15.4321 8.54 17.8587H16.38C16.7533 17.8587 16.94 18.0454 16.94 18.4188V34.0987C16.94 34.4721 16.7533 34.6588 16.38 34.6588H0.56Z" fill="#24B568"/>
</svg>
