<svg width="34" height="32" viewBox="0 0 34 32" fill="none" xmlns="http://www.w3.org/2000/svg">
<path d="M25 11.5H26.5C28.0913 11.5 29.6174 12.1321 30.7426 13.2574C31.8679 14.3826 32.5 15.9087 32.5 17.5C32.5 19.0913 31.8679 20.6174 30.7426 21.7426C29.6174 22.8679 28.0913 23.5 26.5 23.5H25" stroke="#4070F4" stroke-opacity="0.74" stroke-width="2" stroke-linecap="round" stroke-linejoin="round"/>
<path d="M1 11.5H25V25C25 26.5913 24.3679 28.1174 23.2426 29.2426C22.1174 30.3679 20.5913 31 19 31H7C5.4087 31 3.88258 30.3679 2.75736 29.2426C1.63214 28.1174 1 26.5913 1 25V11.5Z" stroke="#4070F4" stroke-opacity="0.74" stroke-width="2" stroke-linecap="round" stroke-linejoin="round"/>
<path d="M7 1V5.5" stroke="#87A7FF" stroke-opacity="0.5" stroke-width="2" stroke-linecap="round" stroke-linejoin="round"/>
<path d="M13 1V5.5" stroke="#87A7FF" stroke-opacity="0.5" stroke-width="2" stroke-linecap="round" stroke-linejoin="round"/>
<path d="M19 1V5.5" stroke="#87A7FF" stroke-opacity="0.5" stroke-width="2" stroke-linecap="round" stroke-linejoin="round"/>
</svg>
