<svg width="71" height="70" viewBox="0 0 71 70" fill="none" xmlns="http://www.w3.org/2000/svg">
<rect x="0.285156" width="70" height="70" rx="3" fill="white"/>
<path d="M24.957 24.158L35 22L45.043 24.158C45.3144 24.2163 45.5571 24.3624 45.7311 24.5721C45.9051 24.7818 46 25.0426 46 25.3115V37.1143C45.9999 38.2816 45.7018 39.4308 45.1321 40.46C44.5624 41.4892 43.7387 42.3664 42.7342 43.0139L35 48L27.2658 43.0139C26.2614 42.3665 25.4379 41.4895 24.8682 40.4605C24.2985 39.4316 24.0003 38.2826 24 37.1155V25.3115C24 25.0426 24.0949 24.7818 24.2689 24.5721C24.4429 24.3624 24.6856 24.2163 24.957 24.158ZM26.4444 26.2593V37.1143C26.4445 37.8925 26.6431 38.6586 27.0229 39.3447C27.4026 40.0308 27.9516 40.6157 28.6212 41.0474L35 45.1601L41.3788 41.0474C42.0482 40.6158 42.5971 40.0311 42.9768 39.3452C43.3566 38.6593 43.5553 37.8934 43.5556 37.1155V26.2593L35 24.4227L26.4444 26.2593Z" fill="#4070F4" fill-opacity="0.74"/>
<path d="M36.2852 27L30.2852 35H33.7852V41L39.7852 32.5H36.2852V27Z" fill="#87A7FF" fill-opacity="0.5"/>
</svg>
