<svg width="29" height="32" viewBox="0 0 29 32" fill="none" xmlns="http://www.w3.org/2000/svg">
<path d="M27.8952 21.9154V9.96201C27.8947 9.43796 27.7563 8.92327 27.4941 8.46956C27.2318 8.01586 26.8549 7.6391 26.401 7.37708L15.9418 1.40036C15.4875 1.13808 14.9722 1 14.4476 1C13.923 1 13.4077 1.13808 12.9534 1.40036L2.49418 7.37708C2.04034 7.6391 1.66339 8.01586 1.40113 8.46956C1.13887 8.92327 1.00054 9.43796 1 9.96201V21.9154C1.00054 22.4395 1.13887 22.9542 1.40113 23.4079C1.66339 23.8616 2.04034 24.2383 2.49418 24.5004L12.9534 30.4771C13.4077 30.7394 13.923 30.8774 14.4476 30.8774C14.9722 30.8774 15.4875 30.7394 15.9418 30.4771L26.401 24.5004C26.8549 24.2383 27.2318 23.8616 27.4941 23.4079C27.7563 22.9542 27.8947 22.4395 27.8952 21.9154Z" stroke="#4070F4" stroke-opacity="0.74" stroke-width="2" stroke-linecap="round" stroke-linejoin="round"/>
<path d="M7.72382 4.29883L14.4476 8.18369L21.1714 4.29883" stroke="#87A7FF" stroke-opacity="0.5" stroke-width="2" stroke-linecap="round" stroke-linejoin="round"/>
<path d="M7.7238 27.5781V19.8233L1 15.9385" stroke="#87A7FF" stroke-opacity="0.5" stroke-width="2" stroke-linecap="round" stroke-linejoin="round"/>
<path d="M27.8952 15.9385L21.1714 19.8233V27.5781" stroke="#87A7FF" stroke-opacity="0.5" stroke-width="2" stroke-linecap="round" stroke-linejoin="round"/>
<path d="M1.40344 8.4082L14.4476 15.9538L27.4918 8.4082" stroke="#87A7FF" stroke-opacity="0.5" stroke-width="2" stroke-linecap="round" stroke-linejoin="round"/>
<path d="M14.4476 30.9998V15.9385" stroke="#87A7FF" stroke-opacity="0.5" stroke-width="2" stroke-linecap="round" stroke-linejoin="round"/>
</svg>
