<svg width="25" height="26" viewBox="0 0 25 26" fill="none" xmlns="http://www.w3.org/2000/svg">
<path d="M6.56627 20.8861L7.47127 21.4217C8.99745 22.3234 10.7333 22.7968 12.5 22.7931C14.4778 22.7931 16.4112 22.199 18.0557 21.0858C19.7002 19.9727 20.9819 18.3906 21.7388 16.5395C22.4957 14.6885 22.6937 12.6516 22.3079 10.6865C21.922 8.72144 20.9696 6.9164 19.5711 5.49965C18.1726 4.08291 16.3907 3.1181 14.4509 2.72722C12.5111 2.33634 10.5005 2.53695 8.67319 3.30369C6.84593 4.07042 5.28414 5.36884 4.18532 7.03476C3.08651 8.70067 2.50002 10.6593 2.50002 12.6628C2.50002 14.4812 2.97127 16.2249 3.85502 17.7584L4.38252 18.6751L3.56627 21.7155L6.56627 20.8861ZM0.00501673 25.3257L1.69502 19.0348C0.581439 17.101 -0.00361329 14.9016 1.67903e-05 12.6628C1.67903e-05 5.66915 5.59627 0 12.5 0C19.4038 0 25 5.66915 25 12.6628C25 19.6565 19.4038 25.3257 12.5 25.3257C10.291 25.3293 8.12084 24.7371 6.21252 23.6099L0.00501673 25.3257ZM7.98877 6.72143C8.15627 6.70877 8.32502 6.70877 8.49252 6.71637C8.56002 6.72143 8.62752 6.72903 8.69502 6.73663C8.89377 6.75942 9.11252 6.88225 9.18627 7.05193C9.55877 7.90794 9.92127 8.77028 10.2713 9.63515C10.3488 9.82763 10.3025 10.0746 10.155 10.3151C10.0536 10.4778 9.94385 10.6351 9.82627 10.7862C9.68502 10.9698 9.38127 11.3066 9.38127 11.3066C9.38127 11.3066 9.25752 11.4561 9.30502 11.6422C9.32252 11.7131 9.38002 11.8157 9.43252 11.9018L9.50627 12.0221C9.82627 12.5628 10.2563 13.1111 10.7813 13.6277C10.9313 13.7746 11.0775 13.9253 11.235 14.0659C11.82 14.5889 12.4825 15.0156 13.1975 15.3322L13.2038 15.3347C13.31 15.3815 13.3638 15.4069 13.5188 15.474C13.5963 15.5069 13.6763 15.536 13.7575 15.5576C13.8415 15.5792 13.9299 15.5751 14.0116 15.5458C14.0933 15.5165 14.1645 15.4633 14.2163 15.3929C15.1213 14.2824 15.2038 14.2102 15.2113 14.2102V14.2128C15.2741 14.1534 15.3488 14.1083 15.4303 14.0805C15.5118 14.0528 15.5983 14.043 15.6838 14.0519C15.7588 14.057 15.835 14.0709 15.905 14.1026C16.5688 14.4103 17.655 14.8902 17.655 14.8902L18.3825 15.2207C18.505 15.2802 18.6163 15.4208 18.62 15.5563C18.625 15.6411 18.6325 15.7779 18.6038 16.0286C18.5638 16.3566 18.4663 16.7504 18.3688 16.9568C18.302 17.0977 18.2134 17.2268 18.1063 17.3392C17.9801 17.4734 17.8421 17.5955 17.6938 17.7039C17.6425 17.743 17.5904 17.781 17.5375 17.8179C17.3821 17.9178 17.2223 18.0107 17.0588 18.0965C16.7369 18.2696 16.3815 18.3691 16.0175 18.3877C15.7863 18.4004 15.555 18.4181 15.3225 18.4054C15.3125 18.4054 14.6125 18.2953 14.6125 18.2953C12.8353 17.8217 11.1918 16.9346 9.81252 15.7044C9.53002 15.4525 9.26877 15.1815 9.00127 14.9118C7.88877 13.7911 7.04877 12.5818 6.53877 11.4396C6.27773 10.879 6.13673 10.2688 6.12502 9.64908C6.11987 8.88026 6.36795 8.13165 6.83002 7.52172C6.92127 7.40269 7.00752 7.2786 7.15627 7.13551C7.31502 6.98355 7.41502 6.90251 7.52377 6.84679C7.66836 6.77339 7.8261 6.73032 7.98752 6.72017L7.98877 6.72143Z" fill="#24B568"/>
</svg>
