<svg width="46" height="46" viewBox="0 0 46 46" fill="none" xmlns="http://www.w3.org/2000/svg">
<rect width="46" height="46" rx="3" fill="#0A2156"/>
<path d="M18.112 28.304C17.184 28.304 16.3893 28.1547 15.728 27.856C15.0667 27.5573 14.528 27.1413 14.112 26.608C13.696 26.0747 13.392 25.4667 13.2 24.784C13.008 24.1013 12.912 23.376 12.912 22.608V21.696C12.912 20.64 13.0987 19.68 13.472 18.816C13.8453 17.9413 14.416 17.248 15.184 16.736C15.952 16.224 16.928 15.968 18.112 15.968C19.296 15.968 20.2667 16.224 21.024 16.736C21.792 17.248 22.3627 17.9413 22.736 18.816C23.1093 19.68 23.296 20.64 23.296 21.696V22.608C23.296 23.376 23.1947 24.1013 22.992 24.784C22.8 25.4667 22.496 26.0747 22.08 26.608C21.6747 27.1413 21.1413 27.5573 20.48 27.856C19.8293 28.1547 19.04 28.304 18.112 28.304ZM18.112 25.888C18.976 25.888 19.616 25.5893 20.032 24.992C20.4587 24.384 20.672 23.4453 20.672 22.176C20.672 20.832 20.4533 19.8667 20.016 19.28C19.5893 18.6827 18.9547 18.384 18.112 18.384C17.2587 18.384 16.6133 18.6773 16.176 19.264C15.7493 19.8507 15.536 20.8107 15.536 22.144C15.536 23.4347 15.744 24.384 16.16 24.992C16.5867 25.5893 17.2373 25.888 18.112 25.888ZM29.4831 28.304C28.5658 28.304 27.7765 28.1387 27.1151 27.808C26.4538 27.4667 25.9471 27.008 25.5951 26.432C25.2431 25.856 25.0671 25.2053 25.0671 24.48H27.5951C27.5951 24.9707 27.7605 25.3707 28.0911 25.68C28.4218 25.9787 28.8858 26.128 29.4831 26.128C30.0698 26.128 30.5285 25.968 30.8591 25.648C31.1898 25.328 31.3551 24.912 31.3551 24.4C31.3551 23.888 31.1898 23.4667 30.8591 23.136C30.5285 22.8053 30.0698 22.64 29.4831 22.64C29.1631 22.64 28.8805 22.688 28.6351 22.784C28.4005 22.88 28.1978 22.9973 28.0271 23.136L26.8431 21.136L30.3791 18.832L30.2351 18.56H25.5471V16.32H33.4191V18.752L30.1711 20.816C31.3231 20.9333 32.2298 21.312 32.8911 21.952C33.5631 22.5813 33.8991 23.3867 33.8991 24.368V24.56C33.8991 25.2747 33.7178 25.9147 33.3551 26.48C33.0031 27.0453 32.4965 27.4933 31.8351 27.824C31.1738 28.144 30.3898 28.304 29.4831 28.304Z" fill="white"/>
</svg>
