<svg width="46" height="46" viewBox="0 0 46 46" fill="none" xmlns="http://www.w3.org/2000/svg">
<rect width="46" height="46" rx="3" fill="#0A2156"/>
<path d="M18.112 28.304C17.184 28.304 16.3893 28.1547 15.728 27.856C15.0667 27.5573 14.528 27.1413 14.112 26.608C13.696 26.0747 13.392 25.4667 13.2 24.784C13.008 24.1013 12.912 23.376 12.912 22.608V21.696C12.912 20.64 13.0987 19.68 13.472 18.816C13.8453 17.9413 14.416 17.248 15.184 16.736C15.952 16.224 16.928 15.968 18.112 15.968C19.296 15.968 20.2667 16.224 21.024 16.736C21.792 17.248 22.3627 17.9413 22.736 18.816C23.1093 19.68 23.296 20.64 23.296 21.696V22.608C23.296 23.376 23.1947 24.1013 22.992 24.784C22.8 25.4667 22.496 26.0747 22.08 26.608C21.6747 27.1413 21.1413 27.5573 20.48 27.856C19.8293 28.1547 19.04 28.304 18.112 28.304ZM18.112 25.888C18.976 25.888 19.616 25.5893 20.032 24.992C20.4587 24.384 20.672 23.4453 20.672 22.176C20.672 20.832 20.4533 19.8667 20.016 19.28C19.5893 18.6827 18.9547 18.384 18.112 18.384C17.2587 18.384 16.6133 18.6773 16.176 19.264C15.7493 19.8507 15.536 20.8107 15.536 22.144C15.536 23.4347 15.744 24.384 16.16 24.992C16.5867 25.5893 17.2373 25.888 18.112 25.888ZM25.4831 28V25.6C25.4831 24.8533 25.6698 24.24 26.0431 23.76C26.4271 23.28 27.0671 22.848 27.9631 22.464L29.8511 21.648C30.3205 21.4453 30.6725 21.1947 30.9071 20.896C31.1418 20.5973 31.2591 20.2187 31.2591 19.76C31.2591 19.2907 31.1098 18.9067 30.8111 18.608C30.5231 18.3093 30.1071 18.16 29.5631 18.16C29.0085 18.16 28.5871 18.3147 28.2991 18.624C28.0111 18.9333 27.8671 19.3493 27.8671 19.872H25.3231C25.3231 19.136 25.4831 18.4747 25.8031 17.888C26.1231 17.3013 26.5978 16.8373 27.2271 16.496C27.8565 16.144 28.6351 15.968 29.5631 15.968C30.4805 15.968 31.2538 16.1333 31.8831 16.464C32.5125 16.7947 32.9871 17.2427 33.3071 17.808C33.6378 18.3627 33.8031 18.9813 33.8031 19.664V19.856C33.8031 20.752 33.5578 21.4933 33.0671 22.08C32.5765 22.6667 31.8191 23.1787 30.7951 23.616L28.9231 24.432C28.6031 24.5707 28.3738 24.72 28.2351 24.88C28.1071 25.0293 28.0431 25.2267 28.0431 25.472V25.744H33.8191V28H25.4831Z" fill="white"/>
</svg>
